%TF.GenerationSoftware,KiCad,Pcbnew,8.0.6*%
%TF.CreationDate,2025-01-17T09:04:30-05:00*%
%TF.ProjectId,Vanguard_V2,56616e67-7561-4726-945f-56322e6b6963,rev?*%
%TF.SameCoordinates,Original*%
%TF.FileFunction,Legend,Top*%
%TF.FilePolarity,Positive*%
%FSLAX46Y46*%
G04 Gerber Fmt 4.6, Leading zero omitted, Abs format (unit mm)*
G04 Created by KiCad (PCBNEW 8.0.6) date 2025-01-17 09:04:30*
%MOMM*%
%LPD*%
G01*
G04 APERTURE LIST*
%ADD10C,0.150000*%
%ADD11C,0.200000*%
%ADD12C,0.100000*%
%ADD13C,0.120000*%
G04 APERTURE END LIST*
D10*
X110684398Y-100694295D02*
X111055826Y-100694295D01*
X111055826Y-100694295D02*
X110855826Y-100999057D01*
X110855826Y-100999057D02*
X110941541Y-100999057D01*
X110941541Y-100999057D02*
X110998684Y-101037152D01*
X110998684Y-101037152D02*
X111027255Y-101075247D01*
X111027255Y-101075247D02*
X111055826Y-101151438D01*
X111055826Y-101151438D02*
X111055826Y-101341914D01*
X111055826Y-101341914D02*
X111027255Y-101418104D01*
X111027255Y-101418104D02*
X110998684Y-101456200D01*
X110998684Y-101456200D02*
X110941541Y-101494295D01*
X110941541Y-101494295D02*
X110770112Y-101494295D01*
X110770112Y-101494295D02*
X110712969Y-101456200D01*
X110712969Y-101456200D02*
X110684398Y-101418104D01*
X111312970Y-101418104D02*
X111341541Y-101456200D01*
X111341541Y-101456200D02*
X111312970Y-101494295D01*
X111312970Y-101494295D02*
X111284398Y-101456200D01*
X111284398Y-101456200D02*
X111312970Y-101418104D01*
X111312970Y-101418104D02*
X111312970Y-101494295D01*
X111541541Y-100694295D02*
X111912969Y-100694295D01*
X111912969Y-100694295D02*
X111712969Y-100999057D01*
X111712969Y-100999057D02*
X111798684Y-100999057D01*
X111798684Y-100999057D02*
X111855827Y-101037152D01*
X111855827Y-101037152D02*
X111884398Y-101075247D01*
X111884398Y-101075247D02*
X111912969Y-101151438D01*
X111912969Y-101151438D02*
X111912969Y-101341914D01*
X111912969Y-101341914D02*
X111884398Y-101418104D01*
X111884398Y-101418104D02*
X111855827Y-101456200D01*
X111855827Y-101456200D02*
X111798684Y-101494295D01*
X111798684Y-101494295D02*
X111627255Y-101494295D01*
X111627255Y-101494295D02*
X111570112Y-101456200D01*
X111570112Y-101456200D02*
X111541541Y-101418104D01*
X112084398Y-100694295D02*
X112284398Y-101494295D01*
X112284398Y-101494295D02*
X112484398Y-100694295D01*
X105084398Y-79694295D02*
X104884398Y-79313342D01*
X104741541Y-79694295D02*
X104741541Y-78894295D01*
X104741541Y-78894295D02*
X104970112Y-78894295D01*
X104970112Y-78894295D02*
X105027255Y-78932390D01*
X105027255Y-78932390D02*
X105055826Y-78970485D01*
X105055826Y-78970485D02*
X105084398Y-79046676D01*
X105084398Y-79046676D02*
X105084398Y-79160961D01*
X105084398Y-79160961D02*
X105055826Y-79237152D01*
X105055826Y-79237152D02*
X105027255Y-79275247D01*
X105027255Y-79275247D02*
X104970112Y-79313342D01*
X104970112Y-79313342D02*
X104741541Y-79313342D01*
X105312969Y-79656200D02*
X105398684Y-79694295D01*
X105398684Y-79694295D02*
X105541541Y-79694295D01*
X105541541Y-79694295D02*
X105598684Y-79656200D01*
X105598684Y-79656200D02*
X105627255Y-79618104D01*
X105627255Y-79618104D02*
X105655826Y-79541914D01*
X105655826Y-79541914D02*
X105655826Y-79465723D01*
X105655826Y-79465723D02*
X105627255Y-79389533D01*
X105627255Y-79389533D02*
X105598684Y-79351438D01*
X105598684Y-79351438D02*
X105541541Y-79313342D01*
X105541541Y-79313342D02*
X105427255Y-79275247D01*
X105427255Y-79275247D02*
X105370112Y-79237152D01*
X105370112Y-79237152D02*
X105341541Y-79199057D01*
X105341541Y-79199057D02*
X105312969Y-79122866D01*
X105312969Y-79122866D02*
X105312969Y-79046676D01*
X105312969Y-79046676D02*
X105341541Y-78970485D01*
X105341541Y-78970485D02*
X105370112Y-78932390D01*
X105370112Y-78932390D02*
X105427255Y-78894295D01*
X105427255Y-78894295D02*
X105570112Y-78894295D01*
X105570112Y-78894295D02*
X105655826Y-78932390D01*
X105827255Y-78894295D02*
X106170113Y-78894295D01*
X105998684Y-79694295D02*
X105998684Y-78894295D01*
X151241541Y-93594295D02*
X151241541Y-92794295D01*
X151241541Y-92794295D02*
X151470112Y-92794295D01*
X151470112Y-92794295D02*
X151527255Y-92832390D01*
X151527255Y-92832390D02*
X151555826Y-92870485D01*
X151555826Y-92870485D02*
X151584398Y-92946676D01*
X151584398Y-92946676D02*
X151584398Y-93060961D01*
X151584398Y-93060961D02*
X151555826Y-93137152D01*
X151555826Y-93137152D02*
X151527255Y-93175247D01*
X151527255Y-93175247D02*
X151470112Y-93213342D01*
X151470112Y-93213342D02*
X151241541Y-93213342D01*
X152184398Y-93518104D02*
X152155826Y-93556200D01*
X152155826Y-93556200D02*
X152070112Y-93594295D01*
X152070112Y-93594295D02*
X152012969Y-93594295D01*
X152012969Y-93594295D02*
X151927255Y-93556200D01*
X151927255Y-93556200D02*
X151870112Y-93480009D01*
X151870112Y-93480009D02*
X151841541Y-93403819D01*
X151841541Y-93403819D02*
X151812969Y-93251438D01*
X151812969Y-93251438D02*
X151812969Y-93137152D01*
X151812969Y-93137152D02*
X151841541Y-92984771D01*
X151841541Y-92984771D02*
X151870112Y-92908580D01*
X151870112Y-92908580D02*
X151927255Y-92832390D01*
X151927255Y-92832390D02*
X152012969Y-92794295D01*
X152012969Y-92794295D02*
X152070112Y-92794295D01*
X152070112Y-92794295D02*
X152155826Y-92832390D01*
X152155826Y-92832390D02*
X152184398Y-92870485D01*
X152698684Y-92794295D02*
X152584398Y-92794295D01*
X152584398Y-92794295D02*
X152527255Y-92832390D01*
X152527255Y-92832390D02*
X152498684Y-92870485D01*
X152498684Y-92870485D02*
X152441541Y-92984771D01*
X152441541Y-92984771D02*
X152412969Y-93137152D01*
X152412969Y-93137152D02*
X152412969Y-93441914D01*
X152412969Y-93441914D02*
X152441541Y-93518104D01*
X152441541Y-93518104D02*
X152470112Y-93556200D01*
X152470112Y-93556200D02*
X152527255Y-93594295D01*
X152527255Y-93594295D02*
X152641541Y-93594295D01*
X152641541Y-93594295D02*
X152698684Y-93556200D01*
X152698684Y-93556200D02*
X152727255Y-93518104D01*
X152727255Y-93518104D02*
X152755826Y-93441914D01*
X152755826Y-93441914D02*
X152755826Y-93251438D01*
X152755826Y-93251438D02*
X152727255Y-93175247D01*
X152727255Y-93175247D02*
X152698684Y-93137152D01*
X152698684Y-93137152D02*
X152641541Y-93099057D01*
X152641541Y-93099057D02*
X152527255Y-93099057D01*
X152527255Y-93099057D02*
X152470112Y-93137152D01*
X152470112Y-93137152D02*
X152441541Y-93175247D01*
X152441541Y-93175247D02*
X152412969Y-93251438D01*
X108841541Y-79275247D02*
X108927255Y-79313342D01*
X108927255Y-79313342D02*
X108955826Y-79351438D01*
X108955826Y-79351438D02*
X108984398Y-79427628D01*
X108984398Y-79427628D02*
X108984398Y-79541914D01*
X108984398Y-79541914D02*
X108955826Y-79618104D01*
X108955826Y-79618104D02*
X108927255Y-79656200D01*
X108927255Y-79656200D02*
X108870112Y-79694295D01*
X108870112Y-79694295D02*
X108641541Y-79694295D01*
X108641541Y-79694295D02*
X108641541Y-78894295D01*
X108641541Y-78894295D02*
X108841541Y-78894295D01*
X108841541Y-78894295D02*
X108898684Y-78932390D01*
X108898684Y-78932390D02*
X108927255Y-78970485D01*
X108927255Y-78970485D02*
X108955826Y-79046676D01*
X108955826Y-79046676D02*
X108955826Y-79122866D01*
X108955826Y-79122866D02*
X108927255Y-79199057D01*
X108927255Y-79199057D02*
X108898684Y-79237152D01*
X108898684Y-79237152D02*
X108841541Y-79275247D01*
X108841541Y-79275247D02*
X108641541Y-79275247D01*
X109355826Y-78894295D02*
X109470112Y-78894295D01*
X109470112Y-78894295D02*
X109527255Y-78932390D01*
X109527255Y-78932390D02*
X109584398Y-79008580D01*
X109584398Y-79008580D02*
X109612969Y-79160961D01*
X109612969Y-79160961D02*
X109612969Y-79427628D01*
X109612969Y-79427628D02*
X109584398Y-79580009D01*
X109584398Y-79580009D02*
X109527255Y-79656200D01*
X109527255Y-79656200D02*
X109470112Y-79694295D01*
X109470112Y-79694295D02*
X109355826Y-79694295D01*
X109355826Y-79694295D02*
X109298684Y-79656200D01*
X109298684Y-79656200D02*
X109241541Y-79580009D01*
X109241541Y-79580009D02*
X109212969Y-79427628D01*
X109212969Y-79427628D02*
X109212969Y-79160961D01*
X109212969Y-79160961D02*
X109241541Y-79008580D01*
X109241541Y-79008580D02*
X109298684Y-78932390D01*
X109298684Y-78932390D02*
X109355826Y-78894295D01*
X109984397Y-78894295D02*
X110098683Y-78894295D01*
X110098683Y-78894295D02*
X110155826Y-78932390D01*
X110155826Y-78932390D02*
X110212969Y-79008580D01*
X110212969Y-79008580D02*
X110241540Y-79160961D01*
X110241540Y-79160961D02*
X110241540Y-79427628D01*
X110241540Y-79427628D02*
X110212969Y-79580009D01*
X110212969Y-79580009D02*
X110155826Y-79656200D01*
X110155826Y-79656200D02*
X110098683Y-79694295D01*
X110098683Y-79694295D02*
X109984397Y-79694295D01*
X109984397Y-79694295D02*
X109927255Y-79656200D01*
X109927255Y-79656200D02*
X109870112Y-79580009D01*
X109870112Y-79580009D02*
X109841540Y-79427628D01*
X109841540Y-79427628D02*
X109841540Y-79160961D01*
X109841540Y-79160961D02*
X109870112Y-79008580D01*
X109870112Y-79008580D02*
X109927255Y-78932390D01*
X109927255Y-78932390D02*
X109984397Y-78894295D01*
X110412968Y-78894295D02*
X110755826Y-78894295D01*
X110584397Y-79694295D02*
X110584397Y-78894295D01*
X128712969Y-87394295D02*
X128712969Y-87965723D01*
X128712969Y-87965723D02*
X128684398Y-88080009D01*
X128684398Y-88080009D02*
X128627255Y-88156200D01*
X128627255Y-88156200D02*
X128541541Y-88194295D01*
X128541541Y-88194295D02*
X128484398Y-88194295D01*
X129284398Y-88194295D02*
X128998684Y-88194295D01*
X128998684Y-88194295D02*
X128998684Y-87394295D01*
X129827255Y-88118104D02*
X129798683Y-88156200D01*
X129798683Y-88156200D02*
X129712969Y-88194295D01*
X129712969Y-88194295D02*
X129655826Y-88194295D01*
X129655826Y-88194295D02*
X129570112Y-88156200D01*
X129570112Y-88156200D02*
X129512969Y-88080009D01*
X129512969Y-88080009D02*
X129484398Y-88003819D01*
X129484398Y-88003819D02*
X129455826Y-87851438D01*
X129455826Y-87851438D02*
X129455826Y-87737152D01*
X129455826Y-87737152D02*
X129484398Y-87584771D01*
X129484398Y-87584771D02*
X129512969Y-87508580D01*
X129512969Y-87508580D02*
X129570112Y-87432390D01*
X129570112Y-87432390D02*
X129655826Y-87394295D01*
X129655826Y-87394295D02*
X129712969Y-87394295D01*
X129712969Y-87394295D02*
X129798683Y-87432390D01*
X129798683Y-87432390D02*
X129827255Y-87470485D01*
X130255826Y-87394295D02*
X130255826Y-87965723D01*
X130255826Y-87965723D02*
X130227255Y-88080009D01*
X130227255Y-88080009D02*
X130170112Y-88156200D01*
X130170112Y-88156200D02*
X130084398Y-88194295D01*
X130084398Y-88194295D02*
X130027255Y-88194295D01*
X130827255Y-88194295D02*
X130541541Y-88194295D01*
X130541541Y-88194295D02*
X130541541Y-87394295D01*
X131370112Y-88118104D02*
X131341540Y-88156200D01*
X131341540Y-88156200D02*
X131255826Y-88194295D01*
X131255826Y-88194295D02*
X131198683Y-88194295D01*
X131198683Y-88194295D02*
X131112969Y-88156200D01*
X131112969Y-88156200D02*
X131055826Y-88080009D01*
X131055826Y-88080009D02*
X131027255Y-88003819D01*
X131027255Y-88003819D02*
X130998683Y-87851438D01*
X130998683Y-87851438D02*
X130998683Y-87737152D01*
X130998683Y-87737152D02*
X131027255Y-87584771D01*
X131027255Y-87584771D02*
X131055826Y-87508580D01*
X131055826Y-87508580D02*
X131112969Y-87432390D01*
X131112969Y-87432390D02*
X131198683Y-87394295D01*
X131198683Y-87394295D02*
X131255826Y-87394295D01*
X131255826Y-87394295D02*
X131341540Y-87432390D01*
X131341540Y-87432390D02*
X131370112Y-87470485D01*
X131798683Y-87394295D02*
X131798683Y-87965723D01*
X131798683Y-87965723D02*
X131770112Y-88080009D01*
X131770112Y-88080009D02*
X131712969Y-88156200D01*
X131712969Y-88156200D02*
X131627255Y-88194295D01*
X131627255Y-88194295D02*
X131570112Y-88194295D01*
X132370112Y-88194295D02*
X132084398Y-88194295D01*
X132084398Y-88194295D02*
X132084398Y-87394295D01*
X132912969Y-88118104D02*
X132884397Y-88156200D01*
X132884397Y-88156200D02*
X132798683Y-88194295D01*
X132798683Y-88194295D02*
X132741540Y-88194295D01*
X132741540Y-88194295D02*
X132655826Y-88156200D01*
X132655826Y-88156200D02*
X132598683Y-88080009D01*
X132598683Y-88080009D02*
X132570112Y-88003819D01*
X132570112Y-88003819D02*
X132541540Y-87851438D01*
X132541540Y-87851438D02*
X132541540Y-87737152D01*
X132541540Y-87737152D02*
X132570112Y-87584771D01*
X132570112Y-87584771D02*
X132598683Y-87508580D01*
X132598683Y-87508580D02*
X132655826Y-87432390D01*
X132655826Y-87432390D02*
X132741540Y-87394295D01*
X132741540Y-87394295D02*
X132798683Y-87394295D01*
X132798683Y-87394295D02*
X132884397Y-87432390D01*
X132884397Y-87432390D02*
X132912969Y-87470485D01*
X133341540Y-87394295D02*
X133341540Y-87965723D01*
X133341540Y-87965723D02*
X133312969Y-88080009D01*
X133312969Y-88080009D02*
X133255826Y-88156200D01*
X133255826Y-88156200D02*
X133170112Y-88194295D01*
X133170112Y-88194295D02*
X133112969Y-88194295D01*
X133912969Y-88194295D02*
X133627255Y-88194295D01*
X133627255Y-88194295D02*
X133627255Y-87394295D01*
X134455826Y-88118104D02*
X134427254Y-88156200D01*
X134427254Y-88156200D02*
X134341540Y-88194295D01*
X134341540Y-88194295D02*
X134284397Y-88194295D01*
X134284397Y-88194295D02*
X134198683Y-88156200D01*
X134198683Y-88156200D02*
X134141540Y-88080009D01*
X134141540Y-88080009D02*
X134112969Y-88003819D01*
X134112969Y-88003819D02*
X134084397Y-87851438D01*
X134084397Y-87851438D02*
X134084397Y-87737152D01*
X134084397Y-87737152D02*
X134112969Y-87584771D01*
X134112969Y-87584771D02*
X134141540Y-87508580D01*
X134141540Y-87508580D02*
X134198683Y-87432390D01*
X134198683Y-87432390D02*
X134284397Y-87394295D01*
X134284397Y-87394295D02*
X134341540Y-87394295D01*
X134341540Y-87394295D02*
X134427254Y-87432390D01*
X134427254Y-87432390D02*
X134455826Y-87470485D01*
X151241541Y-91994295D02*
X151241541Y-91194295D01*
X151241541Y-91194295D02*
X151470112Y-91194295D01*
X151470112Y-91194295D02*
X151527255Y-91232390D01*
X151527255Y-91232390D02*
X151555826Y-91270485D01*
X151555826Y-91270485D02*
X151584398Y-91346676D01*
X151584398Y-91346676D02*
X151584398Y-91460961D01*
X151584398Y-91460961D02*
X151555826Y-91537152D01*
X151555826Y-91537152D02*
X151527255Y-91575247D01*
X151527255Y-91575247D02*
X151470112Y-91613342D01*
X151470112Y-91613342D02*
X151241541Y-91613342D01*
X152184398Y-91918104D02*
X152155826Y-91956200D01*
X152155826Y-91956200D02*
X152070112Y-91994295D01*
X152070112Y-91994295D02*
X152012969Y-91994295D01*
X152012969Y-91994295D02*
X151927255Y-91956200D01*
X151927255Y-91956200D02*
X151870112Y-91880009D01*
X151870112Y-91880009D02*
X151841541Y-91803819D01*
X151841541Y-91803819D02*
X151812969Y-91651438D01*
X151812969Y-91651438D02*
X151812969Y-91537152D01*
X151812969Y-91537152D02*
X151841541Y-91384771D01*
X151841541Y-91384771D02*
X151870112Y-91308580D01*
X151870112Y-91308580D02*
X151927255Y-91232390D01*
X151927255Y-91232390D02*
X152012969Y-91194295D01*
X152012969Y-91194295D02*
X152070112Y-91194295D01*
X152070112Y-91194295D02*
X152155826Y-91232390D01*
X152155826Y-91232390D02*
X152184398Y-91270485D01*
X152384398Y-91194295D02*
X152784398Y-91194295D01*
X152784398Y-91194295D02*
X152527255Y-91994295D01*
X151241541Y-90394295D02*
X151241541Y-89594295D01*
X151241541Y-89594295D02*
X151470112Y-89594295D01*
X151470112Y-89594295D02*
X151527255Y-89632390D01*
X151527255Y-89632390D02*
X151555826Y-89670485D01*
X151555826Y-89670485D02*
X151584398Y-89746676D01*
X151584398Y-89746676D02*
X151584398Y-89860961D01*
X151584398Y-89860961D02*
X151555826Y-89937152D01*
X151555826Y-89937152D02*
X151527255Y-89975247D01*
X151527255Y-89975247D02*
X151470112Y-90013342D01*
X151470112Y-90013342D02*
X151241541Y-90013342D01*
X152184398Y-90318104D02*
X152155826Y-90356200D01*
X152155826Y-90356200D02*
X152070112Y-90394295D01*
X152070112Y-90394295D02*
X152012969Y-90394295D01*
X152012969Y-90394295D02*
X151927255Y-90356200D01*
X151927255Y-90356200D02*
X151870112Y-90280009D01*
X151870112Y-90280009D02*
X151841541Y-90203819D01*
X151841541Y-90203819D02*
X151812969Y-90051438D01*
X151812969Y-90051438D02*
X151812969Y-89937152D01*
X151812969Y-89937152D02*
X151841541Y-89784771D01*
X151841541Y-89784771D02*
X151870112Y-89708580D01*
X151870112Y-89708580D02*
X151927255Y-89632390D01*
X151927255Y-89632390D02*
X152012969Y-89594295D01*
X152012969Y-89594295D02*
X152070112Y-89594295D01*
X152070112Y-89594295D02*
X152155826Y-89632390D01*
X152155826Y-89632390D02*
X152184398Y-89670485D01*
X152527255Y-89937152D02*
X152470112Y-89899057D01*
X152470112Y-89899057D02*
X152441541Y-89860961D01*
X152441541Y-89860961D02*
X152412969Y-89784771D01*
X152412969Y-89784771D02*
X152412969Y-89746676D01*
X152412969Y-89746676D02*
X152441541Y-89670485D01*
X152441541Y-89670485D02*
X152470112Y-89632390D01*
X152470112Y-89632390D02*
X152527255Y-89594295D01*
X152527255Y-89594295D02*
X152641541Y-89594295D01*
X152641541Y-89594295D02*
X152698684Y-89632390D01*
X152698684Y-89632390D02*
X152727255Y-89670485D01*
X152727255Y-89670485D02*
X152755826Y-89746676D01*
X152755826Y-89746676D02*
X152755826Y-89784771D01*
X152755826Y-89784771D02*
X152727255Y-89860961D01*
X152727255Y-89860961D02*
X152698684Y-89899057D01*
X152698684Y-89899057D02*
X152641541Y-89937152D01*
X152641541Y-89937152D02*
X152527255Y-89937152D01*
X152527255Y-89937152D02*
X152470112Y-89975247D01*
X152470112Y-89975247D02*
X152441541Y-90013342D01*
X152441541Y-90013342D02*
X152412969Y-90089533D01*
X152412969Y-90089533D02*
X152412969Y-90241914D01*
X152412969Y-90241914D02*
X152441541Y-90318104D01*
X152441541Y-90318104D02*
X152470112Y-90356200D01*
X152470112Y-90356200D02*
X152527255Y-90394295D01*
X152527255Y-90394295D02*
X152641541Y-90394295D01*
X152641541Y-90394295D02*
X152698684Y-90356200D01*
X152698684Y-90356200D02*
X152727255Y-90318104D01*
X152727255Y-90318104D02*
X152755826Y-90241914D01*
X152755826Y-90241914D02*
X152755826Y-90089533D01*
X152755826Y-90089533D02*
X152727255Y-90013342D01*
X152727255Y-90013342D02*
X152698684Y-89975247D01*
X152698684Y-89975247D02*
X152641541Y-89937152D01*
X151241541Y-95294295D02*
X151241541Y-94494295D01*
X151241541Y-94494295D02*
X151470112Y-94494295D01*
X151470112Y-94494295D02*
X151527255Y-94532390D01*
X151527255Y-94532390D02*
X151555826Y-94570485D01*
X151555826Y-94570485D02*
X151584398Y-94646676D01*
X151584398Y-94646676D02*
X151584398Y-94760961D01*
X151584398Y-94760961D02*
X151555826Y-94837152D01*
X151555826Y-94837152D02*
X151527255Y-94875247D01*
X151527255Y-94875247D02*
X151470112Y-94913342D01*
X151470112Y-94913342D02*
X151241541Y-94913342D01*
X151841541Y-95294295D02*
X151841541Y-94494295D01*
X151841541Y-94494295D02*
X151984398Y-94494295D01*
X151984398Y-94494295D02*
X152070112Y-94532390D01*
X152070112Y-94532390D02*
X152127255Y-94608580D01*
X152127255Y-94608580D02*
X152155826Y-94684771D01*
X152155826Y-94684771D02*
X152184398Y-94837152D01*
X152184398Y-94837152D02*
X152184398Y-94951438D01*
X152184398Y-94951438D02*
X152155826Y-95103819D01*
X152155826Y-95103819D02*
X152127255Y-95180009D01*
X152127255Y-95180009D02*
X152070112Y-95256200D01*
X152070112Y-95256200D02*
X151984398Y-95294295D01*
X151984398Y-95294295D02*
X151841541Y-95294295D01*
X152470112Y-95294295D02*
X152584398Y-95294295D01*
X152584398Y-95294295D02*
X152641541Y-95256200D01*
X152641541Y-95256200D02*
X152670112Y-95218104D01*
X152670112Y-95218104D02*
X152727255Y-95103819D01*
X152727255Y-95103819D02*
X152755826Y-94951438D01*
X152755826Y-94951438D02*
X152755826Y-94646676D01*
X152755826Y-94646676D02*
X152727255Y-94570485D01*
X152727255Y-94570485D02*
X152698684Y-94532390D01*
X152698684Y-94532390D02*
X152641541Y-94494295D01*
X152641541Y-94494295D02*
X152527255Y-94494295D01*
X152527255Y-94494295D02*
X152470112Y-94532390D01*
X152470112Y-94532390D02*
X152441541Y-94570485D01*
X152441541Y-94570485D02*
X152412969Y-94646676D01*
X152412969Y-94646676D02*
X152412969Y-94837152D01*
X152412969Y-94837152D02*
X152441541Y-94913342D01*
X152441541Y-94913342D02*
X152470112Y-94951438D01*
X152470112Y-94951438D02*
X152527255Y-94989533D01*
X152527255Y-94989533D02*
X152641541Y-94989533D01*
X152641541Y-94989533D02*
X152698684Y-94951438D01*
X152698684Y-94951438D02*
X152727255Y-94913342D01*
X152727255Y-94913342D02*
X152755826Y-94837152D01*
D11*
%TO.C,Q1*%
X112625000Y-91800000D02*
X113850000Y-91800000D01*
X112625000Y-88750000D02*
X113850000Y-88750000D01*
X114950000Y-88750000D02*
X115675000Y-88750000D01*
X114950000Y-91800000D02*
X115675000Y-91800000D01*
X116550000Y-91250000D02*
X116550000Y-91250000D01*
X116650000Y-91250000D02*
X116650000Y-91250000D01*
X116550000Y-91250000D02*
X116550000Y-91250000D01*
X116650000Y-91250000D02*
G75*
G02*
X116550000Y-91250000I-50000J0D01*
G01*
X116550000Y-91250000D02*
G75*
G02*
X116650000Y-91250000I50000J0D01*
G01*
X116650000Y-91250000D02*
G75*
G02*
X116550000Y-91250000I-50000J0D01*
G01*
D12*
%TO.C,IC3*%
X140272000Y-102402000D02*
X140272000Y-102402000D01*
X140272000Y-102302000D02*
X140272000Y-102302000D01*
X140272000Y-102302000D02*
G75*
G02*
X140272000Y-102402000I0J-50000D01*
G01*
X140272000Y-102402000D02*
G75*
G02*
X140272000Y-102302000I0J50000D01*
G01*
D13*
%TO.C,J1*%
X97984000Y-90867000D02*
X99314000Y-90867000D01*
X97984000Y-92197000D02*
X97984000Y-90867000D01*
X97984000Y-93467000D02*
X97984000Y-96067000D01*
X97984000Y-93467000D02*
X100644000Y-93467000D01*
X97984000Y-96067000D02*
X100644000Y-96067000D01*
X100644000Y-93467000D02*
X100644000Y-96067000D01*
%TO.C,J5*%
X141286000Y-75625000D02*
X141286000Y-74295000D01*
X142616000Y-75625000D02*
X141286000Y-75625000D01*
X143886000Y-72965000D02*
X146486000Y-72965000D01*
X143886000Y-75625000D02*
X143886000Y-72965000D01*
X143886000Y-75625000D02*
X146486000Y-75625000D01*
X146486000Y-75625000D02*
X146486000Y-72965000D01*
%TO.C,R4*%
X105746359Y-100920000D02*
X106053641Y-100920000D01*
X105746359Y-101680000D02*
X106053641Y-101680000D01*
%TO.C,R8*%
X101420000Y-82056359D02*
X101420000Y-82363641D01*
X102180000Y-82056359D02*
X102180000Y-82363641D01*
%TO.C,U4*%
X144422000Y-79325000D02*
X144422000Y-79130000D01*
X144432000Y-81120000D02*
X144432000Y-80695000D01*
X144607000Y-81120000D02*
X144432000Y-81120000D01*
X146477000Y-78900000D02*
X146652000Y-78900000D01*
X146477000Y-81120000D02*
X146652000Y-81120000D01*
X146652000Y-78900000D02*
X146652000Y-79325000D01*
X146652000Y-81120000D02*
X146652000Y-80695000D01*
X144422000Y-78890000D02*
X144282000Y-78700000D01*
X144562000Y-78700000D01*
X144422000Y-78890000D01*
G36*
X144422000Y-78890000D02*
G01*
X144282000Y-78700000D01*
X144562000Y-78700000D01*
X144422000Y-78890000D01*
G37*
%TO.C,C18*%
X107307836Y-79040000D02*
X107092164Y-79040000D01*
X107307836Y-79760000D02*
X107092164Y-79760000D01*
%TO.C,C27*%
X132101000Y-100310836D02*
X132101000Y-100095164D01*
X132821000Y-100310836D02*
X132821000Y-100095164D01*
%TO.C,C3*%
X122957000Y-90376836D02*
X122957000Y-90161164D01*
X123677000Y-90376836D02*
X123677000Y-90161164D01*
%TO.C,C24*%
X130958000Y-100282836D02*
X130958000Y-100067164D01*
X131678000Y-100282836D02*
X131678000Y-100067164D01*
%TO.C,C20*%
X143207836Y-77940000D02*
X142992164Y-77940000D01*
X143207836Y-78660000D02*
X142992164Y-78660000D01*
%TO.C,D4*%
X108865000Y-90515000D02*
X108865000Y-92800000D01*
X110335000Y-90515000D02*
X108865000Y-90515000D01*
X110335000Y-92800000D02*
X110335000Y-90515000D01*
%TO.C,C4*%
X124100000Y-90404836D02*
X124100000Y-90189164D01*
X124820000Y-90404836D02*
X124820000Y-90189164D01*
D11*
%TO.C,IC4*%
X126635000Y-102264000D02*
X126635000Y-102264000D01*
X126835000Y-102264000D02*
X126835000Y-102264000D01*
X126635000Y-102264000D02*
G75*
G02*
X126835000Y-102264000I100000J0D01*
G01*
X126835000Y-102264000D02*
G75*
G02*
X126635000Y-102264000I-100000J0D01*
G01*
D13*
%TO.C,C9*%
X122840000Y-77992164D02*
X122840000Y-78207836D01*
X123560000Y-77992164D02*
X123560000Y-78207836D01*
%TO.C,C19*%
X140692164Y-95840000D02*
X140907836Y-95840000D01*
X140692164Y-96560000D02*
X140907836Y-96560000D01*
%TO.C,SW2*%
X107901000Y-73619000D02*
X107901000Y-78019000D01*
X107901000Y-78019000D02*
X108021000Y-78019000D01*
X108021000Y-73619000D02*
X107901000Y-73619000D01*
X109031000Y-78019000D02*
X110171000Y-78019000D01*
X110171000Y-73619000D02*
X109031000Y-73619000D01*
X111181000Y-78019000D02*
X111301000Y-78019000D01*
X111301000Y-73619000D02*
X111181000Y-73619000D01*
X111301000Y-78019000D02*
X111301000Y-73619000D01*
%TO.C,R5*%
X112420000Y-74146359D02*
X112420000Y-74453641D01*
X113180000Y-74146359D02*
X113180000Y-74453641D01*
%TO.C,D5*%
X109165000Y-85400000D02*
X109165000Y-87685000D01*
X109165000Y-87685000D02*
X110635000Y-87685000D01*
X110635000Y-87685000D02*
X110635000Y-85400000D01*
%TO.C,C26*%
X129930932Y-100279768D02*
X129930932Y-100064096D01*
X130650932Y-100279768D02*
X130650932Y-100064096D01*
%TO.C,SW1*%
X103964000Y-73619000D02*
X103964000Y-78019000D01*
X103964000Y-78019000D02*
X104084000Y-78019000D01*
X104084000Y-73619000D02*
X103964000Y-73619000D01*
X105094000Y-78019000D02*
X106234000Y-78019000D01*
X106234000Y-73619000D02*
X105094000Y-73619000D01*
X107244000Y-78019000D02*
X107364000Y-78019000D01*
X107364000Y-73619000D02*
X107244000Y-73619000D01*
X107364000Y-78019000D02*
X107364000Y-73619000D01*
%TO.C,C1*%
X147427836Y-77491000D02*
X147212164Y-77491000D01*
X147427836Y-78211000D02*
X147212164Y-78211000D01*
%TO.C,R13*%
X118846359Y-90220000D02*
X119153641Y-90220000D01*
X118846359Y-90980000D02*
X119153641Y-90980000D01*
%TO.C,C29*%
X132060836Y-101340000D02*
X131845164Y-101340000D01*
X132060836Y-102060000D02*
X131845164Y-102060000D01*
%TO.C,C2*%
X147140000Y-79355836D02*
X147140000Y-79140164D01*
X147860000Y-79355836D02*
X147860000Y-79140164D01*
%TO.C,C28*%
X135235836Y-98700000D02*
X135020164Y-98700000D01*
X135235836Y-99420000D02*
X135020164Y-99420000D01*
%TO.C,R6*%
X131553641Y-96120000D02*
X131246359Y-96120000D01*
X131553641Y-96880000D02*
X131246359Y-96880000D01*
%TO.C,U1*%
X127201000Y-79766000D02*
X127201000Y-80466000D01*
X127201000Y-93986000D02*
X127201000Y-93286000D01*
X127901000Y-79766000D02*
X127201000Y-79766000D01*
X127901000Y-93986000D02*
X127201000Y-93986000D01*
X140721000Y-79766000D02*
X141421000Y-79766000D01*
X140721000Y-93986000D02*
X141421000Y-93986000D01*
X141421000Y-79766000D02*
X141421000Y-80466000D01*
X141421000Y-93986000D02*
X141421000Y-93286000D01*
X126573500Y-80466000D02*
X126233500Y-79996000D01*
X126913500Y-79996000D01*
X126573500Y-80466000D01*
G36*
X126573500Y-80466000D02*
G01*
X126233500Y-79996000D01*
X126913500Y-79996000D01*
X126573500Y-80466000D01*
G37*
%TO.C,C10*%
X123940000Y-77992164D02*
X123940000Y-78207836D01*
X124660000Y-77992164D02*
X124660000Y-78207836D01*
%TO.C,C30*%
X133117000Y-101199836D02*
X133117000Y-100984164D01*
X133837000Y-101199836D02*
X133837000Y-100984164D01*
%TO.C,U5*%
X134282000Y-99738000D02*
X134782000Y-99738000D01*
X134282000Y-100238000D02*
X134282000Y-99738000D01*
X134282000Y-101438000D02*
X134282000Y-101438000D01*
X134282000Y-101938000D02*
X134282000Y-101438000D01*
X134782000Y-99738000D02*
X134782000Y-99738000D01*
X134782000Y-101938000D02*
X134282000Y-101938000D01*
X135982000Y-99738000D02*
X136482000Y-99738000D01*
X135982000Y-101938000D02*
X136282000Y-101938000D01*
X136482000Y-99738000D02*
X136482000Y-100238000D01*
X136482000Y-100238000D02*
X136482000Y-100238000D01*
X136482000Y-101438000D02*
X136482000Y-101738000D01*
X136482000Y-101938000D02*
X136482000Y-101938000D01*
X136482000Y-102298000D02*
X136482000Y-101938000D01*
X136842000Y-101938000D01*
X136482000Y-102298000D01*
G36*
X136482000Y-102298000D02*
G01*
X136482000Y-101938000D01*
X136842000Y-101938000D01*
X136482000Y-102298000D01*
G37*
%TO.C,R7*%
X126246359Y-95420000D02*
X126553641Y-95420000D01*
X126246359Y-96180000D02*
X126553641Y-96180000D01*
%TO.C,R14*%
X118220000Y-88346359D02*
X118220000Y-88653641D01*
X118980000Y-88346359D02*
X118980000Y-88653641D01*
%TO.C,C14*%
X123592164Y-76240000D02*
X123807836Y-76240000D01*
X123592164Y-76960000D02*
X123807836Y-76960000D01*
%TO.C,C22*%
X146325000Y-100945836D02*
X146325000Y-100730164D01*
X147045000Y-100945836D02*
X147045000Y-100730164D01*
%TO.C,J8*%
X148282000Y-85091000D02*
X148282000Y-84641000D01*
X148282000Y-85091000D02*
X148672000Y-85091000D01*
X148982000Y-79521000D02*
X148982000Y-80171000D01*
X148982000Y-87141000D02*
X148982000Y-86481000D01*
X150712000Y-79521000D02*
X148982000Y-79521000D01*
X150712000Y-87141000D02*
X148982000Y-87141000D01*
X153282000Y-79521000D02*
X153072000Y-79521000D01*
X153282000Y-87141000D02*
X153072000Y-87141000D01*
%TO.C,R2*%
X143282641Y-76201000D02*
X142975359Y-76201000D01*
X143282641Y-76961000D02*
X142975359Y-76961000D01*
%TO.C,U3*%
X145622000Y-82658500D02*
X146922000Y-82658500D01*
X145622000Y-84638500D02*
X146672000Y-84638500D01*
X147042000Y-84918500D02*
X147042000Y-84638500D01*
X147322000Y-84638500D01*
X147042000Y-84918500D01*
G36*
X147042000Y-84918500D02*
G01*
X147042000Y-84638500D01*
X147322000Y-84638500D01*
X147042000Y-84918500D01*
G37*
%TO.C,FB1*%
X121410000Y-89775420D02*
X121410000Y-90056580D01*
X122430000Y-89775420D02*
X122430000Y-90056580D01*
%TO.C,C13*%
X121740000Y-77207836D02*
X121740000Y-76992164D01*
X122460000Y-77207836D02*
X122460000Y-76992164D01*
%TO.C,D1*%
X108000000Y-101935000D02*
X110285000Y-101935000D01*
X110285000Y-100465000D02*
X108000000Y-100465000D01*
X110285000Y-101935000D02*
X110285000Y-100465000D01*
%TO.C,J2*%
X127448000Y-75625000D02*
X127448000Y-74295000D01*
X128778000Y-75625000D02*
X127448000Y-75625000D01*
X130048000Y-72965000D02*
X140268000Y-72965000D01*
X130048000Y-75625000D02*
X130048000Y-72965000D01*
X130048000Y-75625000D02*
X140268000Y-75625000D01*
X140268000Y-75625000D02*
X140268000Y-72965000D01*
%TO.C,J4*%
X97984000Y-87122000D02*
X97984000Y-79442000D01*
X97984000Y-89722000D02*
X97984000Y-88392000D01*
X99314000Y-89722000D02*
X97984000Y-89722000D01*
X100644000Y-79442000D02*
X97984000Y-79442000D01*
X100644000Y-87122000D02*
X97984000Y-87122000D01*
X100644000Y-87122000D02*
X100644000Y-79442000D01*
%TO.C,C21*%
X137689000Y-101746164D02*
X137689000Y-101961836D01*
X138409000Y-101746164D02*
X138409000Y-101961836D01*
%TO.C,C11*%
X125040000Y-77992164D02*
X125040000Y-78207836D01*
X125760000Y-77992164D02*
X125760000Y-78207836D01*
%TO.C,X1*%
X122461000Y-85664000D02*
X122461000Y-85024000D01*
X123191000Y-83784000D02*
X122501000Y-83784000D01*
X123401000Y-86704000D02*
X123741000Y-86704000D01*
X123411000Y-83984000D02*
X123741000Y-83984000D01*
X124681000Y-85664000D02*
X124681000Y-85024000D01*
X123191000Y-83784000D02*
G75*
G02*
X123411001Y-83984000I-90001J-320002D01*
G01*
%TO.C,J6*%
X101580000Y-85360000D02*
X108320000Y-85360000D01*
X101580000Y-96260000D02*
X101580000Y-85360000D01*
X101580000Y-96260000D02*
X108320000Y-96260000D01*
X103299000Y-96260000D02*
X103299000Y-85360000D01*
X106400000Y-96260000D02*
X106400000Y-85360000D01*
X107400000Y-96260000D02*
X107400000Y-85360000D01*
X107520000Y-96500000D02*
X108560000Y-96500000D01*
X108320000Y-96260000D02*
X108320000Y-85360000D01*
X108560000Y-96500000D02*
X108560000Y-95700000D01*
%TO.C,R9*%
X102353641Y-83810000D02*
X102046359Y-83810000D01*
X102353641Y-84570000D02*
X102046359Y-84570000D01*
%TO.C,C12*%
X126140000Y-77992164D02*
X126140000Y-78207836D01*
X126860000Y-77992164D02*
X126860000Y-78207836D01*
%TO.C,R1*%
X144781000Y-77242641D02*
X144781000Y-76935359D01*
X145541000Y-77242641D02*
X145541000Y-76935359D01*
%TO.C,C25*%
X130692164Y-97640000D02*
X130907836Y-97640000D01*
X130692164Y-98360000D02*
X130907836Y-98360000D01*
%TD*%
M02*
