M48
; DRILL file {KiCad 8.0.6} date 2025-01-17T09:04:37-0500
; FORMAT={-:-/ absolute / metric / decimal}
; #@! TF.CreationDate,2025-01-17T09:04:37-05:00
; #@! TF.GenerationSoftware,Kicad,Pcbnew,8.0.6
; #@! TF.FileFunction,Plated,1,4,PTH
FMAT,2
METRIC
; #@! TA.AperFunction,Plated,PTH,ViaDrill
T1C0.300
; #@! TA.AperFunction,Plated,PTH,ComponentDrill
T2C0.450
; #@! TA.AperFunction,Plated,PTH,ComponentDrill
T3C1.000
; #@! TA.AperFunction,Plated,PTH,ComponentDrill
T4C1.200
%
G90
G05
T1
X103.1Y-79.5
X103.1Y-83.1
X104.2Y-100.8
X107.5Y-81.3
X107.7Y-93.4
X108.526Y-75.438
X109.5Y-83.1
X111.0Y-81.0
X112.1Y-80.3
X113.3Y-81.0
X113.3Y-83.1
X114.1Y-87.1
X116.5Y-85.4
X116.8Y-74.4
X117.4Y-91.4
X117.4Y-94.6
X117.4Y-96.8
X117.4Y-98.8
X117.4Y-101.2
X117.6Y-80.94
X117.8Y-84.4
X118.9Y-83.2
X118.9Y-85.4
X119.6Y-89.3
X119.85Y-98.65
X120.65Y-89.281
X121.2Y-94.6
X121.2Y-96.8
X121.2Y-101.2
X121.8Y-80.6
X122.9Y-95.9
X122.9Y-97.7
X123.4Y-93.4
X123.8Y-81.6
X124.2Y-91.7
X124.4Y-82.425
X124.4Y-95.8
X124.5Y-98.7
X124.5Y-100.5
X124.714Y-88.773
X125.2Y-83.3
X125.7Y-75.4
X125.984Y-74.168
X127.508Y-77.597
X129.2Y-98.0
X129.3Y-80.7
X129.4Y-85.6
X130.2Y-101.981
X130.5Y-91.6
X130.65Y-92.55
X131.7Y-92.9
X132.5Y-89.6
X132.8Y-96.7
X133.0Y-97.5
X133.465Y-77.816
X133.604Y-76.581
X134.25Y-86.55
X134.4Y-96.7
X134.6Y-84.1
X135.3Y-80.8
X135.9Y-97.6
X136.017Y-76.581
X136.3Y-92.3
X137.1Y-102.0
X137.111Y-84.489
X137.4Y-96.7
X137.9Y-100.33
X138.0Y-92.3
X138.8Y-97.6
X139.319Y-102.1
X139.5Y-77.6
X140.3Y-92.2
X140.3Y-97.5
X140.674Y-88.9
X141.4Y-78.3
X142.951Y-80.5
X143.216Y-79.295
X143.59Y-81.386
X143.9Y-91.8
X143.9Y-94.0
X144.082Y-77.533
X144.145Y-83.586
X144.8Y-85.0
X145.034Y-81.661
X145.669Y-100.358
X146.042Y-78.113
X146.1Y-94.0
X146.8Y-74.0
X146.8Y-75.8
X147.6Y-96.4
X147.6Y-99.0
X147.8Y-82.031
X148.2Y-101.4
X148.4Y-74.0
X148.4Y-75.8
X149.6Y-77.2
X149.6Y-78.6
X150.8Y-96.4
X151.6Y-88.6
X152.2Y-77.2
T3
X99.314Y-80.772
X99.314Y-83.312
X99.314Y-85.852
X99.314Y-88.392
X99.314Y-92.197
X99.314Y-94.737
X128.778Y-74.295
X131.318Y-74.295
X133.858Y-74.295
X136.398Y-74.295
X138.938Y-74.295
X142.616Y-74.295
X145.156Y-74.295
T4
X104.8Y-87.0
X104.8Y-89.54
X104.8Y-92.08
X104.8Y-94.62
T2
G00X151.492Y-79.756
M15
G01X152.292Y-79.756
M16
G05
G00X152.292Y-86.906
M15
G01X151.492Y-86.906
M16
G05
M30
