%TF.GenerationSoftware,KiCad,Pcbnew,8.0.6*%
%TF.CreationDate,2025-01-17T09:04:30-05:00*%
%TF.ProjectId,Vanguard_V2,56616e67-7561-4726-945f-56322e6b6963,rev?*%
%TF.SameCoordinates,Original*%
%TF.FileFunction,Copper,L2,Inr*%
%TF.FilePolarity,Positive*%
%FSLAX46Y46*%
G04 Gerber Fmt 4.6, Leading zero omitted, Abs format (unit mm)*
G04 Created by KiCad (PCBNEW 8.0.6) date 2025-01-17 09:04:30*
%MOMM*%
%LPD*%
G01*
G04 APERTURE LIST*
%TA.AperFunction,ComponentPad*%
%ADD10R,1.700000X1.700000*%
%TD*%
%TA.AperFunction,ComponentPad*%
%ADD11O,1.700000X1.700000*%
%TD*%
%TA.AperFunction,ComponentPad*%
%ADD12O,1.900000X1.050000*%
%TD*%
%TA.AperFunction,ComponentPad*%
%ADD13R,2.000000X2.000000*%
%TD*%
%TA.AperFunction,ComponentPad*%
%ADD14C,2.000000*%
%TD*%
%TA.AperFunction,ViaPad*%
%ADD15C,0.600000*%
%TD*%
G04 APERTURE END LIST*
D10*
%TO.N,C1_P*%
%TO.C,J1*%
X99314000Y-92197000D03*
D11*
%TO.N,GND*%
X99314000Y-94737000D03*
%TD*%
D10*
%TO.N,I2C1_SDA*%
%TO.C,J5*%
X142616000Y-74295000D03*
D11*
%TO.N,I2C1_SCL*%
X145156000Y-74295000D03*
%TD*%
D12*
%TO.N,GND*%
%TO.C,J8*%
X151892000Y-86906000D03*
X151892000Y-79756000D03*
%TD*%
D10*
%TO.N,SERVO_1_PWM*%
%TO.C,J2*%
X128778000Y-74295000D03*
D11*
%TO.N,SERVO_2_PWM*%
X131318000Y-74295000D03*
%TO.N,SERVO_3_PWM*%
X133858000Y-74295000D03*
%TO.N,SERVO_4_PWM*%
X136398000Y-74295000D03*
%TO.N,SERVO_5_PWM*%
X138938000Y-74295000D03*
%TD*%
D10*
%TO.N,GND*%
%TO.C,J4*%
X99314000Y-88392000D03*
D11*
%TO.N,Net-(J4-Pin_2)*%
X99314000Y-85852000D03*
%TO.N,Net-(J4-Pin_3)*%
X99314000Y-83312000D03*
%TO.N,+3.3V*%
X99314000Y-80772000D03*
%TD*%
D13*
%TO.N,C1_M*%
%TO.C,J6*%
X104800000Y-94620000D03*
D14*
%TO.N,C1_P*%
X104800000Y-92080000D03*
%TO.N,C2_M*%
X104800000Y-89540000D03*
%TO.N,C1_P*%
X104800000Y-87000000D03*
%TD*%
D15*
%TO.N,GND*%
X118900000Y-85400000D03*
X134600000Y-84100000D03*
X149600000Y-78600000D03*
X121200000Y-94600000D03*
X144800000Y-85000000D03*
X143900000Y-94000000D03*
X146800000Y-75800000D03*
X152200000Y-77200000D03*
X150800000Y-96400000D03*
X113300000Y-81000000D03*
X146800000Y-74000000D03*
X143900000Y-91800000D03*
X149600000Y-77200000D03*
X116800000Y-74400000D03*
X129300000Y-80700000D03*
X109500000Y-83100000D03*
X143590103Y-81385897D03*
X117400000Y-91400000D03*
X124400000Y-82425000D03*
X146042000Y-78113000D03*
X107700000Y-93400000D03*
X137400000Y-96700000D03*
X116500000Y-85400000D03*
X121200000Y-96800000D03*
X148400000Y-74000000D03*
X117400000Y-101200000D03*
X117400000Y-98800000D03*
X117400000Y-96800000D03*
X117800000Y-84400000D03*
X141400000Y-78300000D03*
X130200000Y-101981000D03*
X103100000Y-83100000D03*
X147600000Y-99000000D03*
X103100000Y-79500000D03*
X111000000Y-81000000D03*
X135900000Y-97600000D03*
X147600000Y-96400000D03*
X146100000Y-94000000D03*
X136300000Y-92300000D03*
X113300000Y-83100000D03*
X138800000Y-97600000D03*
X119600000Y-89300000D03*
X121200000Y-101200000D03*
X148200000Y-101400000D03*
X118900000Y-83200000D03*
X147800000Y-82031000D03*
X133000000Y-97500000D03*
X134400000Y-96700000D03*
X125700000Y-75400000D03*
X124714000Y-88773000D03*
X117400000Y-94600000D03*
X139319000Y-102100000D03*
X148400000Y-75800000D03*
%TO.N,+3.3V*%
X129400000Y-85600000D03*
X123400000Y-93400000D03*
X144081500Y-77533500D03*
X127508000Y-77597000D03*
X129200000Y-98000000D03*
X137100000Y-102000000D03*
X145669000Y-100358000D03*
X125200000Y-83300000D03*
X142951470Y-80500000D03*
X108526000Y-75438000D03*
X124400000Y-95800000D03*
X132800000Y-96700000D03*
X138000000Y-92300000D03*
X151600000Y-88600000D03*
X104200000Y-100800000D03*
X120650000Y-89281000D03*
%TO.N,VBUS*%
X144145000Y-83586000D03*
%TO.N,I2C1_SDA*%
X145034000Y-81661000D03*
X134250000Y-86550000D03*
X117600000Y-80940000D03*
X124500046Y-100499954D03*
X140300000Y-97500000D03*
X140300000Y-92200000D03*
X123800000Y-81600000D03*
%TO.N,I2C1_SCL*%
X140674000Y-88900000D03*
X143216000Y-79294528D03*
X137900000Y-100330000D03*
X135300000Y-80800000D03*
X124500000Y-98700000D03*
%TO.N,SERVO_5_PWM*%
X136017000Y-76581000D03*
X133464970Y-77816000D03*
%TO.N,SD_CS*%
X132500000Y-89600000D03*
%TO.N,SPI1_MOSI*%
X131700000Y-92900000D03*
X122900000Y-97700000D03*
%TO.N,SPI1_SCK*%
X130500000Y-91600000D03*
X122900000Y-95900000D03*
%TO.N,SPI1_MISO*%
X119850000Y-98650000D03*
X130650000Y-92550000D03*
%TO.N,BOOT0*%
X125984000Y-74168000D03*
X133604000Y-76581000D03*
%TO.N,SWDIO*%
X137111265Y-84488735D03*
X114100000Y-87100000D03*
%TO.N,SWCLK*%
X107500000Y-81300000D03*
X121800000Y-80600000D03*
X139500000Y-77600000D03*
X112100000Y-80300000D03*
%TO.N,TELEM_CS*%
X124200000Y-91700000D03*
%TD*%
%TA.AperFunction,Conductor*%
%TO.N,+3.3V*%
G36*
X121727177Y-73020185D02*
G01*
X121772932Y-73072989D01*
X121782876Y-73142147D01*
X121753851Y-73205703D01*
X121747819Y-73212181D01*
X121732000Y-73228000D01*
X121732000Y-75318000D01*
X123632000Y-75318000D01*
X123632000Y-73228000D01*
X123616181Y-73212181D01*
X123582696Y-73150858D01*
X123587680Y-73081166D01*
X123629552Y-73025233D01*
X123695016Y-73000816D01*
X123703862Y-73000500D01*
X127387825Y-73000500D01*
X127454864Y-73020185D01*
X127500619Y-73072989D01*
X127510563Y-73142147D01*
X127487092Y-73198810D01*
X127484206Y-73202664D01*
X127484202Y-73202671D01*
X127433908Y-73337517D01*
X127427501Y-73397116D01*
X127427500Y-73397135D01*
X127427500Y-75192870D01*
X127427501Y-75192876D01*
X127433908Y-75252483D01*
X127484202Y-75387328D01*
X127484206Y-75387335D01*
X127570452Y-75502544D01*
X127570455Y-75502547D01*
X127685664Y-75588793D01*
X127685671Y-75588797D01*
X127820517Y-75639091D01*
X127820516Y-75639091D01*
X127827444Y-75639835D01*
X127880127Y-75645500D01*
X129675872Y-75645499D01*
X129735483Y-75639091D01*
X129870331Y-75588796D01*
X129985546Y-75502546D01*
X130071796Y-75387331D01*
X130120810Y-75255916D01*
X130162681Y-75199984D01*
X130228145Y-75175566D01*
X130296418Y-75190417D01*
X130324673Y-75211569D01*
X130446599Y-75333495D01*
X130541572Y-75399996D01*
X130640165Y-75469032D01*
X130640167Y-75469033D01*
X130640170Y-75469035D01*
X130854337Y-75568903D01*
X130854343Y-75568904D01*
X130854344Y-75568905D01*
X130892949Y-75579249D01*
X131082592Y-75630063D01*
X131259034Y-75645500D01*
X131317999Y-75650659D01*
X131318000Y-75650659D01*
X131318001Y-75650659D01*
X131376966Y-75645500D01*
X131553408Y-75630063D01*
X131781663Y-75568903D01*
X131995830Y-75469035D01*
X132189401Y-75333495D01*
X132356495Y-75166401D01*
X132486425Y-74980842D01*
X132541002Y-74937217D01*
X132610500Y-74930023D01*
X132672855Y-74961546D01*
X132689575Y-74980842D01*
X132819500Y-75166395D01*
X132819505Y-75166401D01*
X132986599Y-75333495D01*
X133081572Y-75399996D01*
X133180165Y-75469032D01*
X133180167Y-75469033D01*
X133180170Y-75469035D01*
X133394337Y-75568903D01*
X133394350Y-75568906D01*
X133399431Y-75570757D01*
X133398632Y-75572950D01*
X133449814Y-75604099D01*
X133480387Y-75666925D01*
X133472140Y-75736306D01*
X133427692Y-75790215D01*
X133399073Y-75804613D01*
X133254480Y-75855209D01*
X133101737Y-75951184D01*
X132974184Y-76078737D01*
X132878211Y-76231476D01*
X132818631Y-76401745D01*
X132818630Y-76401750D01*
X132798435Y-76580996D01*
X132798435Y-76581003D01*
X132818630Y-76760249D01*
X132818631Y-76760254D01*
X132878211Y-76930523D01*
X132956860Y-77055691D01*
X132975860Y-77122928D01*
X132955492Y-77189763D01*
X132939548Y-77209344D01*
X132835153Y-77313739D01*
X132739181Y-77466476D01*
X132679601Y-77636745D01*
X132679600Y-77636750D01*
X132659405Y-77815996D01*
X132659405Y-77816003D01*
X132679600Y-77995249D01*
X132679601Y-77995254D01*
X132739181Y-78165523D01*
X132792561Y-78250476D01*
X132835154Y-78318262D01*
X132962708Y-78445816D01*
X133115448Y-78541789D01*
X133281814Y-78600003D01*
X133285715Y-78601368D01*
X133285720Y-78601369D01*
X133464966Y-78621565D01*
X133464970Y-78621565D01*
X133464974Y-78621565D01*
X133644219Y-78601369D01*
X133644222Y-78601368D01*
X133644225Y-78601368D01*
X133814492Y-78541789D01*
X133967232Y-78445816D01*
X134094786Y-78318262D01*
X134190759Y-78165522D01*
X134250338Y-77995255D01*
X134250339Y-77995249D01*
X134270535Y-77816003D01*
X134270535Y-77815996D01*
X134250339Y-77636750D01*
X134250338Y-77636745D01*
X134237479Y-77599996D01*
X138694435Y-77599996D01*
X138694435Y-77600003D01*
X138714630Y-77779249D01*
X138714631Y-77779254D01*
X138774211Y-77949523D01*
X138802943Y-77995249D01*
X138870184Y-78102262D01*
X138997738Y-78229816D01*
X139150478Y-78325789D01*
X139320745Y-78385368D01*
X139320750Y-78385369D01*
X139499996Y-78405565D01*
X139500000Y-78405565D01*
X139500004Y-78405565D01*
X139679249Y-78385369D01*
X139679252Y-78385368D01*
X139679255Y-78385368D01*
X139849522Y-78325789D01*
X139890571Y-78299996D01*
X140594435Y-78299996D01*
X140594435Y-78300003D01*
X140614630Y-78479249D01*
X140614631Y-78479254D01*
X140674211Y-78649523D01*
X140749854Y-78769907D01*
X140770184Y-78802262D01*
X140897738Y-78929816D01*
X140988080Y-78986582D01*
X141005833Y-78997737D01*
X141050478Y-79025789D01*
X141220745Y-79085368D01*
X141220750Y-79085369D01*
X141399996Y-79105565D01*
X141400000Y-79105565D01*
X141400004Y-79105565D01*
X141579249Y-79085369D01*
X141579252Y-79085368D01*
X141579255Y-79085368D01*
X141749522Y-79025789D01*
X141902262Y-78929816D01*
X142029816Y-78802262D01*
X142125789Y-78649522D01*
X142185368Y-78479255D01*
X142185369Y-78479249D01*
X142205565Y-78300003D01*
X142205565Y-78299996D01*
X142185369Y-78120750D01*
X142185368Y-78120745D01*
X142182658Y-78113000D01*
X142182657Y-78112996D01*
X145236435Y-78112996D01*
X145236435Y-78113003D01*
X145256630Y-78292249D01*
X145256631Y-78292254D01*
X145316211Y-78462523D01*
X145402592Y-78599996D01*
X145412184Y-78615262D01*
X145539738Y-78742816D01*
X145582858Y-78769910D01*
X145643450Y-78807983D01*
X145692478Y-78838789D01*
X145782200Y-78870184D01*
X145862745Y-78898368D01*
X145862750Y-78898369D01*
X146041996Y-78918565D01*
X146042000Y-78918565D01*
X146042004Y-78918565D01*
X146221249Y-78898369D01*
X146221252Y-78898368D01*
X146221255Y-78898368D01*
X146391522Y-78838789D01*
X146544262Y-78742816D01*
X146671816Y-78615262D01*
X146767789Y-78462522D01*
X146827368Y-78292255D01*
X146832075Y-78250478D01*
X146847565Y-78113003D01*
X146847565Y-78112996D01*
X146827369Y-77933750D01*
X146827368Y-77933745D01*
X146793801Y-77837817D01*
X146767789Y-77763478D01*
X146671816Y-77610738D01*
X146544262Y-77483184D01*
X146517673Y-77466477D01*
X146391523Y-77387211D01*
X146221254Y-77327631D01*
X146221249Y-77327630D01*
X146042004Y-77307435D01*
X146041996Y-77307435D01*
X145862750Y-77327630D01*
X145862745Y-77327631D01*
X145692476Y-77387211D01*
X145539737Y-77483184D01*
X145412184Y-77610737D01*
X145316211Y-77763476D01*
X145256631Y-77933745D01*
X145256630Y-77933750D01*
X145236435Y-78112996D01*
X142182657Y-78112996D01*
X142125789Y-77950478D01*
X142125188Y-77949522D01*
X142043061Y-77818817D01*
X142029816Y-77797738D01*
X141902262Y-77670184D01*
X141849052Y-77636750D01*
X141749523Y-77574211D01*
X141579254Y-77514631D01*
X141579249Y-77514630D01*
X141400004Y-77494435D01*
X141399996Y-77494435D01*
X141220750Y-77514630D01*
X141220745Y-77514631D01*
X141050476Y-77574211D01*
X140897737Y-77670184D01*
X140770184Y-77797737D01*
X140674211Y-77950476D01*
X140614631Y-78120745D01*
X140614630Y-78120750D01*
X140594435Y-78299996D01*
X139890571Y-78299996D01*
X140002262Y-78229816D01*
X140129816Y-78102262D01*
X140225789Y-77949522D01*
X140285368Y-77779255D01*
X140294043Y-77702262D01*
X140305565Y-77600003D01*
X140305565Y-77599996D01*
X140285369Y-77420750D01*
X140285368Y-77420745D01*
X140252786Y-77327631D01*
X140225789Y-77250478D01*
X140129816Y-77097738D01*
X140002262Y-76970184D01*
X139939142Y-76930523D01*
X139849523Y-76874211D01*
X139679254Y-76814631D01*
X139679249Y-76814630D01*
X139500004Y-76794435D01*
X139499996Y-76794435D01*
X139320750Y-76814630D01*
X139320745Y-76814631D01*
X139150476Y-76874211D01*
X138997737Y-76970184D01*
X138870184Y-77097737D01*
X138774211Y-77250476D01*
X138714631Y-77420745D01*
X138714630Y-77420750D01*
X138694435Y-77599996D01*
X134237479Y-77599996D01*
X134228456Y-77574211D01*
X134190759Y-77466478D01*
X134112108Y-77341306D01*
X134093109Y-77274072D01*
X134113476Y-77207236D01*
X134129413Y-77187664D01*
X134233816Y-77083262D01*
X134329789Y-76930522D01*
X134389368Y-76760255D01*
X134389369Y-76760249D01*
X134409565Y-76581003D01*
X134409565Y-76580996D01*
X134389369Y-76401750D01*
X134389368Y-76401745D01*
X134354556Y-76302259D01*
X134329789Y-76231478D01*
X134324300Y-76222743D01*
X134278293Y-76149523D01*
X134233816Y-76078738D01*
X134106262Y-75951184D01*
X134106260Y-75951182D01*
X133968589Y-75864677D01*
X133922299Y-75812343D01*
X133911651Y-75743289D01*
X133940026Y-75679441D01*
X133998416Y-75641069D01*
X134023747Y-75636157D01*
X134093408Y-75630063D01*
X134321663Y-75568903D01*
X134535830Y-75469035D01*
X134729401Y-75333495D01*
X134896495Y-75166401D01*
X135026425Y-74980842D01*
X135081002Y-74937217D01*
X135150500Y-74930023D01*
X135212855Y-74961546D01*
X135229575Y-74980842D01*
X135359500Y-75166395D01*
X135359505Y-75166401D01*
X135526599Y-75333495D01*
X135621572Y-75399996D01*
X135720165Y-75469032D01*
X135720167Y-75469033D01*
X135720170Y-75469035D01*
X135907711Y-75556487D01*
X135960149Y-75602658D01*
X135979301Y-75669852D01*
X135959085Y-75736733D01*
X135905920Y-75782067D01*
X135869190Y-75792088D01*
X135837749Y-75795630D01*
X135837745Y-75795631D01*
X135667476Y-75855211D01*
X135514737Y-75951184D01*
X135387184Y-76078737D01*
X135291211Y-76231476D01*
X135231631Y-76401745D01*
X135231630Y-76401750D01*
X135211435Y-76580996D01*
X135211435Y-76581003D01*
X135231630Y-76760249D01*
X135231631Y-76760254D01*
X135291211Y-76930523D01*
X135347900Y-77020742D01*
X135387184Y-77083262D01*
X135514738Y-77210816D01*
X135667478Y-77306789D01*
X135727044Y-77327632D01*
X135837745Y-77366368D01*
X135837750Y-77366369D01*
X136016996Y-77386565D01*
X136017000Y-77386565D01*
X136017004Y-77386565D01*
X136196249Y-77366369D01*
X136196252Y-77366368D01*
X136196255Y-77366368D01*
X136366522Y-77306789D01*
X136519262Y-77210816D01*
X136646816Y-77083262D01*
X136742789Y-76930522D01*
X136802368Y-76760255D01*
X136802369Y-76760249D01*
X136822565Y-76581003D01*
X136822565Y-76580996D01*
X136802369Y-76401750D01*
X136802368Y-76401745D01*
X136767556Y-76302259D01*
X136742789Y-76231478D01*
X136737300Y-76222743D01*
X136691293Y-76149523D01*
X136646816Y-76078738D01*
X136519262Y-75951184D01*
X136397111Y-75874431D01*
X136350821Y-75822097D01*
X136340173Y-75753044D01*
X136368548Y-75689195D01*
X136426938Y-75650823D01*
X136452274Y-75645910D01*
X136633408Y-75630063D01*
X136861663Y-75568903D01*
X137075830Y-75469035D01*
X137269401Y-75333495D01*
X137436495Y-75166401D01*
X137566425Y-74980842D01*
X137621002Y-74937217D01*
X137690500Y-74930023D01*
X137752855Y-74961546D01*
X137769575Y-74980842D01*
X137899500Y-75166395D01*
X137899505Y-75166401D01*
X138066599Y-75333495D01*
X138161572Y-75399996D01*
X138260165Y-75469032D01*
X138260167Y-75469033D01*
X138260170Y-75469035D01*
X138474337Y-75568903D01*
X138474343Y-75568904D01*
X138474344Y-75568905D01*
X138512949Y-75579249D01*
X138702592Y-75630063D01*
X138879034Y-75645500D01*
X138937999Y-75650659D01*
X138938000Y-75650659D01*
X138938001Y-75650659D01*
X138996966Y-75645500D01*
X139173408Y-75630063D01*
X139401663Y-75568903D01*
X139615830Y-75469035D01*
X139809401Y-75333495D01*
X139976495Y-75166401D01*
X140112035Y-74972830D01*
X140211903Y-74758663D01*
X140273063Y-74530408D01*
X140293659Y-74295000D01*
X140273063Y-74059592D01*
X140211903Y-73831337D01*
X140112035Y-73617171D01*
X140110258Y-73614632D01*
X139976494Y-73423597D01*
X139809402Y-73256506D01*
X139809396Y-73256501D01*
X139765943Y-73226075D01*
X139722318Y-73171498D01*
X139715124Y-73102000D01*
X139746647Y-73039645D01*
X139806877Y-73004231D01*
X139837066Y-73000500D01*
X141225825Y-73000500D01*
X141292864Y-73020185D01*
X141338619Y-73072989D01*
X141348563Y-73142147D01*
X141325092Y-73198810D01*
X141322206Y-73202664D01*
X141322202Y-73202671D01*
X141271908Y-73337517D01*
X141265501Y-73397116D01*
X141265500Y-73397135D01*
X141265500Y-75192870D01*
X141265501Y-75192876D01*
X141271908Y-75252483D01*
X141322202Y-75387328D01*
X141322206Y-75387335D01*
X141408452Y-75502544D01*
X141408455Y-75502547D01*
X141523664Y-75588793D01*
X141523671Y-75588797D01*
X141658517Y-75639091D01*
X141658516Y-75639091D01*
X141665444Y-75639835D01*
X141718127Y-75645500D01*
X143513872Y-75645499D01*
X143573483Y-75639091D01*
X143708331Y-75588796D01*
X143823546Y-75502546D01*
X143909796Y-75387331D01*
X143958810Y-75255916D01*
X144000681Y-75199984D01*
X144066145Y-75175566D01*
X144134418Y-75190417D01*
X144162673Y-75211569D01*
X144284599Y-75333495D01*
X144379572Y-75399996D01*
X144478165Y-75469032D01*
X144478167Y-75469033D01*
X144478170Y-75469035D01*
X144692337Y-75568903D01*
X144692343Y-75568904D01*
X144692344Y-75568905D01*
X144730949Y-75579249D01*
X144920592Y-75630063D01*
X145097034Y-75645500D01*
X145155999Y-75650659D01*
X145156000Y-75650659D01*
X145156001Y-75650659D01*
X145214966Y-75645500D01*
X145391408Y-75630063D01*
X145619663Y-75568903D01*
X145833830Y-75469035D01*
X145833838Y-75469029D01*
X145837512Y-75466909D01*
X145905412Y-75450436D01*
X145971439Y-75473289D01*
X146014630Y-75528210D01*
X146021271Y-75597763D01*
X146016555Y-75615247D01*
X146014632Y-75620740D01*
X146014630Y-75620750D01*
X145994435Y-75799996D01*
X145994435Y-75800003D01*
X146014630Y-75979249D01*
X146014631Y-75979254D01*
X146074211Y-76149523D01*
X146120219Y-76222743D01*
X146170184Y-76302262D01*
X146297738Y-76429816D01*
X146450478Y-76525789D01*
X146605193Y-76579926D01*
X146620745Y-76585368D01*
X146620750Y-76585369D01*
X146799996Y-76605565D01*
X146800000Y-76605565D01*
X146800004Y-76605565D01*
X146979249Y-76585369D01*
X146979252Y-76585368D01*
X146979255Y-76585368D01*
X147149522Y-76525789D01*
X147302262Y-76429816D01*
X147429816Y-76302262D01*
X147495007Y-76198510D01*
X147547341Y-76152221D01*
X147616394Y-76141573D01*
X147680243Y-76169948D01*
X147704992Y-76198509D01*
X147770184Y-76302262D01*
X147897738Y-76429816D01*
X148050478Y-76525789D01*
X148205193Y-76579926D01*
X148220745Y-76585368D01*
X148220750Y-76585369D01*
X148399996Y-76605565D01*
X148400000Y-76605565D01*
X148400004Y-76605565D01*
X148579249Y-76585369D01*
X148579252Y-76585368D01*
X148579255Y-76585368D01*
X148749522Y-76525789D01*
X148874053Y-76447540D01*
X148937559Y-76429593D01*
X148937423Y-76428567D01*
X148967094Y-76365310D01*
X148972261Y-76359816D01*
X149029816Y-76302262D01*
X149104644Y-76183173D01*
X149129494Y-76143626D01*
X149131166Y-76144676D01*
X149171462Y-76100044D01*
X149238888Y-76081728D01*
X149305513Y-76102773D01*
X149334740Y-76130216D01*
X149405733Y-76222736D01*
X149405739Y-76222743D01*
X149412233Y-76229237D01*
X149445718Y-76290560D01*
X149440734Y-76360252D01*
X149398862Y-76416185D01*
X149365507Y-76433959D01*
X149250480Y-76474209D01*
X149125946Y-76552459D01*
X149062440Y-76570404D01*
X149062577Y-76571431D01*
X149032905Y-76634688D01*
X149027707Y-76640215D01*
X148970183Y-76697739D01*
X148874211Y-76850476D01*
X148814631Y-77020745D01*
X148814630Y-77020750D01*
X148794435Y-77199996D01*
X148794435Y-77200003D01*
X148814630Y-77379249D01*
X148814631Y-77379254D01*
X148874211Y-77549523D01*
X148970184Y-77702262D01*
X149080241Y-77812319D01*
X149113726Y-77873642D01*
X149108742Y-77943334D01*
X149080241Y-77987681D01*
X148970184Y-78097737D01*
X148874211Y-78250476D01*
X148814631Y-78420745D01*
X148814630Y-78420750D01*
X148794435Y-78599996D01*
X148794435Y-78600003D01*
X148814630Y-78779249D01*
X148814631Y-78779254D01*
X148874211Y-78949523D01*
X148959569Y-79085368D01*
X148970184Y-79102262D01*
X149097738Y-79229816D01*
X149162068Y-79270237D01*
X149242450Y-79320745D01*
X149250478Y-79325789D01*
X149420745Y-79385368D01*
X149420750Y-79385369D01*
X149599996Y-79405565D01*
X149600000Y-79405565D01*
X149600004Y-79405565D01*
X149779249Y-79385369D01*
X149779252Y-79385368D01*
X149779255Y-79385368D01*
X149949522Y-79325789D01*
X150102262Y-79229816D01*
X150229816Y-79102262D01*
X150325789Y-78949522D01*
X150385368Y-78779255D01*
X150385369Y-78779249D01*
X150405565Y-78600003D01*
X150405565Y-78599996D01*
X150385369Y-78420750D01*
X150385368Y-78420745D01*
X150352141Y-78325788D01*
X150325789Y-78250478D01*
X150229816Y-78097738D01*
X150119759Y-77987681D01*
X150086274Y-77926358D01*
X150091258Y-77856666D01*
X150119759Y-77812319D01*
X150168602Y-77763476D01*
X150229816Y-77702262D01*
X150325789Y-77549522D01*
X150385368Y-77379255D01*
X150389644Y-77341308D01*
X150405565Y-77200003D01*
X150405565Y-77199996D01*
X150385369Y-77020750D01*
X150385367Y-77020742D01*
X150375306Y-76991988D01*
X150371745Y-76922209D01*
X150406474Y-76861582D01*
X150468467Y-76829355D01*
X150508527Y-76828095D01*
X150678712Y-76850500D01*
X150921289Y-76850500D01*
X150951350Y-76846542D01*
X151161789Y-76818838D01*
X151292129Y-76783913D01*
X151361973Y-76785576D01*
X151419836Y-76824738D01*
X151447341Y-76888966D01*
X151441260Y-76944641D01*
X151414633Y-77020738D01*
X151414630Y-77020750D01*
X151394435Y-77199996D01*
X151394435Y-77200003D01*
X151414630Y-77379249D01*
X151414631Y-77379254D01*
X151474211Y-77549523D01*
X151529017Y-77636745D01*
X151570184Y-77702262D01*
X151697738Y-77829816D01*
X151767487Y-77873642D01*
X151797422Y-77892452D01*
X151850478Y-77925789D01*
X151977352Y-77970184D01*
X152020745Y-77985368D01*
X152020750Y-77985369D01*
X152199996Y-78005565D01*
X152200000Y-78005565D01*
X152200004Y-78005565D01*
X152379249Y-77985369D01*
X152379252Y-77985368D01*
X152379255Y-77985368D01*
X152549522Y-77925789D01*
X152689528Y-77837816D01*
X152756764Y-77818817D01*
X152823600Y-77839185D01*
X152868814Y-77892452D01*
X152879500Y-77942811D01*
X152879500Y-78693422D01*
X152859815Y-78760461D01*
X152807011Y-78806216D01*
X152737853Y-78816160D01*
X152708048Y-78807983D01*
X152616131Y-78769910D01*
X152616119Y-78769907D01*
X152418007Y-78730500D01*
X152418003Y-78730500D01*
X151365997Y-78730500D01*
X151365992Y-78730500D01*
X151167880Y-78769907D01*
X151167872Y-78769909D01*
X150981247Y-78847212D01*
X150981237Y-78847217D01*
X150813281Y-78959441D01*
X150670441Y-79102281D01*
X150558217Y-79270237D01*
X150558212Y-79270247D01*
X150480909Y-79456872D01*
X150480907Y-79456880D01*
X150441500Y-79654992D01*
X150441500Y-79857007D01*
X150480907Y-80055119D01*
X150480909Y-80055127D01*
X150558212Y-80241752D01*
X150558217Y-80241762D01*
X150670441Y-80409718D01*
X150813281Y-80552558D01*
X150981237Y-80664782D01*
X150981241Y-80664784D01*
X150981244Y-80664786D01*
X151167873Y-80742091D01*
X151354706Y-80779254D01*
X151365992Y-80781499D01*
X151365996Y-80781500D01*
X151365997Y-80781500D01*
X152418004Y-80781500D01*
X152418005Y-80781499D01*
X152616127Y-80742091D01*
X152708047Y-80704015D01*
X152777516Y-80696547D01*
X152839996Y-80727822D01*
X152875648Y-80787911D01*
X152879500Y-80818577D01*
X152879500Y-85843422D01*
X152859815Y-85910461D01*
X152807011Y-85956216D01*
X152737853Y-85966160D01*
X152708048Y-85957983D01*
X152616131Y-85919910D01*
X152616119Y-85919907D01*
X152418007Y-85880500D01*
X152418003Y-85880500D01*
X151365997Y-85880500D01*
X151365992Y-85880500D01*
X151167880Y-85919907D01*
X151167872Y-85919909D01*
X150981247Y-85997212D01*
X150981237Y-85997217D01*
X150813281Y-86109441D01*
X150670441Y-86252281D01*
X150558217Y-86420237D01*
X150558212Y-86420247D01*
X150480909Y-86606872D01*
X150480907Y-86606880D01*
X150441500Y-86804992D01*
X150441500Y-87007007D01*
X150480907Y-87205119D01*
X150480909Y-87205127D01*
X150558212Y-87391752D01*
X150558217Y-87391762D01*
X150670441Y-87559718D01*
X150813281Y-87702558D01*
X150981237Y-87814782D01*
X150981241Y-87814784D01*
X150981244Y-87814786D01*
X151167873Y-87892091D01*
X151365992Y-87931499D01*
X151365996Y-87931500D01*
X151365997Y-87931500D01*
X152418004Y-87931500D01*
X152418005Y-87931499D01*
X152616127Y-87892091D01*
X152708047Y-87854015D01*
X152777516Y-87846547D01*
X152839996Y-87877822D01*
X152875648Y-87937911D01*
X152879500Y-87968577D01*
X152879500Y-100126264D01*
X152859815Y-100193303D01*
X152807011Y-100239058D01*
X152737853Y-100249002D01*
X152674297Y-100219977D01*
X152636523Y-100161199D01*
X152632561Y-100142449D01*
X152618838Y-100038214D01*
X152618838Y-100038211D01*
X152556054Y-99803900D01*
X152463224Y-99579788D01*
X152341936Y-99369711D01*
X152213448Y-99202262D01*
X152194266Y-99177263D01*
X152194260Y-99177256D01*
X152022743Y-99005739D01*
X152022736Y-99005733D01*
X151830293Y-98858067D01*
X151830292Y-98858066D01*
X151830289Y-98858064D01*
X151620212Y-98736776D01*
X151620205Y-98736773D01*
X151396104Y-98643947D01*
X151161785Y-98581161D01*
X150921289Y-98549500D01*
X150921288Y-98549500D01*
X150678712Y-98549500D01*
X150678711Y-98549500D01*
X150438214Y-98581161D01*
X150203895Y-98643947D01*
X149979794Y-98736773D01*
X149979785Y-98736777D01*
X149769706Y-98858067D01*
X149577263Y-99005733D01*
X149577256Y-99005739D01*
X149405739Y-99177256D01*
X149405733Y-99177263D01*
X149258067Y-99369706D01*
X149258064Y-99369710D01*
X149258064Y-99369711D01*
X149254555Y-99375789D01*
X149136777Y-99579785D01*
X149136773Y-99579794D01*
X149043947Y-99803895D01*
X148981161Y-100038214D01*
X148949500Y-100278711D01*
X148949500Y-100521288D01*
X148977039Y-100730475D01*
X148966273Y-100799510D01*
X148919893Y-100851766D01*
X148852624Y-100870651D01*
X148785824Y-100850170D01*
X148766419Y-100834341D01*
X148702262Y-100770184D01*
X148549523Y-100674211D01*
X148379254Y-100614631D01*
X148379249Y-100614630D01*
X148200004Y-100594435D01*
X148199996Y-100594435D01*
X148020750Y-100614630D01*
X148020745Y-100614631D01*
X147850476Y-100674211D01*
X147697737Y-100770184D01*
X147570184Y-100897737D01*
X147474211Y-101050476D01*
X147414631Y-101220745D01*
X147414630Y-101220750D01*
X147394435Y-101399996D01*
X147394435Y-101400003D01*
X147414630Y-101579249D01*
X147414631Y-101579254D01*
X147474211Y-101749523D01*
X147507025Y-101801745D01*
X147570184Y-101902262D01*
X147697738Y-102029816D01*
X147850478Y-102125789D01*
X147948982Y-102160257D01*
X148020745Y-102185368D01*
X148020750Y-102185369D01*
X148199996Y-102205565D01*
X148200000Y-102205565D01*
X148200004Y-102205565D01*
X148379249Y-102185369D01*
X148379252Y-102185368D01*
X148379255Y-102185368D01*
X148549522Y-102125789D01*
X148702262Y-102029816D01*
X148829816Y-101902262D01*
X148925789Y-101749522D01*
X148985368Y-101579255D01*
X149001748Y-101433875D01*
X149028814Y-101369462D01*
X149086409Y-101329907D01*
X149156246Y-101327769D01*
X149216152Y-101363727D01*
X149232353Y-101385756D01*
X149258064Y-101430289D01*
X149258066Y-101430292D01*
X149258067Y-101430293D01*
X149405733Y-101622736D01*
X149405739Y-101622743D01*
X149577256Y-101794260D01*
X149577263Y-101794266D01*
X149623592Y-101829815D01*
X149769711Y-101941936D01*
X149979788Y-102063224D01*
X150203900Y-102156054D01*
X150438211Y-102218838D01*
X150531046Y-102231059D01*
X150542449Y-102232561D01*
X150606346Y-102260827D01*
X150644817Y-102319152D01*
X150645648Y-102389016D01*
X150608576Y-102448240D01*
X150545370Y-102478019D01*
X150526264Y-102479500D01*
X140209061Y-102479500D01*
X140142022Y-102459815D01*
X140096267Y-102407011D01*
X140086323Y-102337853D01*
X140092020Y-102314544D01*
X140104367Y-102279259D01*
X140104369Y-102279249D01*
X140124565Y-102100003D01*
X140124565Y-102099996D01*
X140104369Y-101920750D01*
X140104368Y-101920745D01*
X140044789Y-101750478D01*
X140044188Y-101749522D01*
X139970015Y-101631476D01*
X139948816Y-101597738D01*
X139821262Y-101470184D01*
X139668523Y-101374211D01*
X139498254Y-101314631D01*
X139498249Y-101314630D01*
X139319004Y-101294435D01*
X139318996Y-101294435D01*
X139139750Y-101314630D01*
X139139745Y-101314631D01*
X138969476Y-101374211D01*
X138816737Y-101470184D01*
X138689184Y-101597737D01*
X138593211Y-101750476D01*
X138533631Y-101920745D01*
X138533630Y-101920750D01*
X138513435Y-102099996D01*
X138513435Y-102100003D01*
X138533630Y-102279249D01*
X138533632Y-102279259D01*
X138545980Y-102314544D01*
X138549543Y-102384323D01*
X138514814Y-102444951D01*
X138452821Y-102477178D01*
X138428939Y-102479500D01*
X131048422Y-102479500D01*
X130981383Y-102459815D01*
X130935628Y-102407011D01*
X130925684Y-102337853D01*
X130931380Y-102314546D01*
X130976580Y-102185369D01*
X130985368Y-102160255D01*
X130985369Y-102160249D01*
X131005565Y-101981003D01*
X131005565Y-101980996D01*
X130985369Y-101801750D01*
X130985368Y-101801745D01*
X130948792Y-101697218D01*
X130925789Y-101631478D01*
X130920300Y-101622743D01*
X130874293Y-101549523D01*
X130829816Y-101478738D01*
X130702262Y-101351184D01*
X130549523Y-101255211D01*
X130379254Y-101195631D01*
X130379249Y-101195630D01*
X130200004Y-101175435D01*
X130199996Y-101175435D01*
X130020750Y-101195630D01*
X130020745Y-101195631D01*
X129850476Y-101255211D01*
X129697737Y-101351184D01*
X129570184Y-101478737D01*
X129474211Y-101631476D01*
X129414631Y-101801745D01*
X129414630Y-101801750D01*
X129394435Y-101980996D01*
X129394435Y-101981003D01*
X129414630Y-102160249D01*
X129414632Y-102160257D01*
X129468620Y-102314546D01*
X129472181Y-102384324D01*
X129437452Y-102444952D01*
X129375459Y-102477179D01*
X129351578Y-102479500D01*
X100273736Y-102479500D01*
X100206697Y-102459815D01*
X100160942Y-102407011D01*
X100150998Y-102337853D01*
X100180023Y-102274297D01*
X100238801Y-102236523D01*
X100257551Y-102232561D01*
X100266343Y-102231403D01*
X100361789Y-102218838D01*
X100596100Y-102156054D01*
X100820212Y-102063224D01*
X101030289Y-101941936D01*
X101222738Y-101794265D01*
X101394265Y-101622738D01*
X101541936Y-101430289D01*
X101663224Y-101220212D01*
X101671598Y-101199996D01*
X116594435Y-101199996D01*
X116594435Y-101200003D01*
X116614630Y-101379249D01*
X116614631Y-101379254D01*
X116674211Y-101549523D01*
X116720219Y-101622743D01*
X116770184Y-101702262D01*
X116897738Y-101829816D01*
X116920420Y-101844068D01*
X117042450Y-101920745D01*
X117050478Y-101925789D01*
X117208251Y-101980996D01*
X117220745Y-101985368D01*
X117220750Y-101985369D01*
X117399996Y-102005565D01*
X117400000Y-102005565D01*
X117400004Y-102005565D01*
X117579249Y-101985369D01*
X117579252Y-101985368D01*
X117579255Y-101985368D01*
X117749522Y-101925789D01*
X117902262Y-101829816D01*
X118029816Y-101702262D01*
X118125789Y-101549522D01*
X118185368Y-101379255D01*
X118185369Y-101379249D01*
X118205565Y-101200003D01*
X118205565Y-101199996D01*
X120394435Y-101199996D01*
X120394435Y-101200003D01*
X120414630Y-101379249D01*
X120414631Y-101379254D01*
X120474211Y-101549523D01*
X120520219Y-101622743D01*
X120570184Y-101702262D01*
X120697738Y-101829816D01*
X120720420Y-101844068D01*
X120842450Y-101920745D01*
X120850478Y-101925789D01*
X121008251Y-101980996D01*
X121020745Y-101985368D01*
X121020750Y-101985369D01*
X121199996Y-102005565D01*
X121200000Y-102005565D01*
X121200004Y-102005565D01*
X121379249Y-101985369D01*
X121379252Y-101985368D01*
X121379255Y-101985368D01*
X121549522Y-101925789D01*
X121702262Y-101829816D01*
X121829816Y-101702262D01*
X121925789Y-101549522D01*
X121985368Y-101379255D01*
X121985369Y-101379249D01*
X122005565Y-101200003D01*
X122005565Y-101199996D01*
X121985369Y-101020750D01*
X121985368Y-101020745D01*
X121942326Y-100897738D01*
X121925789Y-100850478D01*
X121925595Y-100850170D01*
X121829815Y-100697737D01*
X121702262Y-100570184D01*
X121549523Y-100474211D01*
X121379254Y-100414631D01*
X121379249Y-100414630D01*
X121200004Y-100394435D01*
X121199996Y-100394435D01*
X121020750Y-100414630D01*
X121020745Y-100414631D01*
X120850476Y-100474211D01*
X120697737Y-100570184D01*
X120570184Y-100697737D01*
X120474211Y-100850476D01*
X120414631Y-101020745D01*
X120414630Y-101020750D01*
X120394435Y-101199996D01*
X118205565Y-101199996D01*
X118185369Y-101020750D01*
X118185368Y-101020745D01*
X118142326Y-100897738D01*
X118125789Y-100850478D01*
X118125595Y-100850170D01*
X118029815Y-100697737D01*
X117902262Y-100570184D01*
X117749523Y-100474211D01*
X117579254Y-100414631D01*
X117579249Y-100414630D01*
X117400004Y-100394435D01*
X117399996Y-100394435D01*
X117220750Y-100414630D01*
X117220745Y-100414631D01*
X117050476Y-100474211D01*
X116897737Y-100570184D01*
X116770184Y-100697737D01*
X116674211Y-100850476D01*
X116614631Y-101020745D01*
X116614630Y-101020750D01*
X116594435Y-101199996D01*
X101671598Y-101199996D01*
X101756054Y-100996100D01*
X101818838Y-100761789D01*
X101850500Y-100521288D01*
X101850500Y-100278712D01*
X101818838Y-100038211D01*
X101756054Y-99803900D01*
X101663224Y-99579788D01*
X101541936Y-99369711D01*
X101413448Y-99202262D01*
X101394266Y-99177263D01*
X101394260Y-99177256D01*
X101222743Y-99005739D01*
X101222736Y-99005733D01*
X101030293Y-98858067D01*
X101030292Y-98858066D01*
X101030289Y-98858064D01*
X100929712Y-98799996D01*
X116594435Y-98799996D01*
X116594435Y-98800003D01*
X116614630Y-98979249D01*
X116614631Y-98979254D01*
X116674211Y-99149523D01*
X116756080Y-99279815D01*
X116770184Y-99302262D01*
X116897738Y-99429816D01*
X116982262Y-99482926D01*
X117047097Y-99523665D01*
X117050478Y-99525789D01*
X117220745Y-99585368D01*
X117220750Y-99585369D01*
X117399996Y-99605565D01*
X117400000Y-99605565D01*
X117400004Y-99605565D01*
X117579249Y-99585369D01*
X117579252Y-99585368D01*
X117579255Y-99585368D01*
X117749522Y-99525789D01*
X117902262Y-99429816D01*
X118029816Y-99302262D01*
X118125789Y-99149522D01*
X118185368Y-98979255D01*
X118185369Y-98979249D01*
X118205565Y-98800003D01*
X118205565Y-98799996D01*
X118188664Y-98649996D01*
X119044435Y-98649996D01*
X119044435Y-98650003D01*
X119064630Y-98829249D01*
X119064631Y-98829254D01*
X119124211Y-98999523D01*
X119218462Y-99149522D01*
X119220184Y-99152262D01*
X119347738Y-99279816D01*
X119500478Y-99375789D01*
X119654878Y-99429816D01*
X119670745Y-99435368D01*
X119670750Y-99435369D01*
X119849996Y-99455565D01*
X119850000Y-99455565D01*
X119850004Y-99455565D01*
X120029249Y-99435369D01*
X120029252Y-99435368D01*
X120029255Y-99435368D01*
X120199522Y-99375789D01*
X120352262Y-99279816D01*
X120479816Y-99152262D01*
X120575789Y-98999522D01*
X120635368Y-98829255D01*
X120635369Y-98829249D01*
X120649932Y-98699996D01*
X123694435Y-98699996D01*
X123694435Y-98700003D01*
X123714630Y-98879249D01*
X123714631Y-98879254D01*
X123774211Y-99049523D01*
X123837045Y-99149522D01*
X123870184Y-99202262D01*
X123997738Y-99329816D01*
X124070902Y-99375788D01*
X124150480Y-99425790D01*
X124313814Y-99482944D01*
X124370590Y-99523665D01*
X124396337Y-99588618D01*
X124382881Y-99657180D01*
X124334493Y-99707582D01*
X124313814Y-99717026D01*
X124150526Y-99774163D01*
X123997783Y-99870138D01*
X123870230Y-99997691D01*
X123774257Y-100150430D01*
X123714677Y-100320699D01*
X123714676Y-100320704D01*
X123694481Y-100499950D01*
X123694481Y-100499957D01*
X123714676Y-100679203D01*
X123714677Y-100679208D01*
X123774257Y-100849477D01*
X123843588Y-100959816D01*
X123870230Y-101002216D01*
X123997784Y-101129770D01*
X124007007Y-101135565D01*
X124142577Y-101220750D01*
X124150524Y-101225743D01*
X124234739Y-101255211D01*
X124320791Y-101285322D01*
X124320796Y-101285323D01*
X124500042Y-101305519D01*
X124500046Y-101305519D01*
X124500050Y-101305519D01*
X124679295Y-101285323D01*
X124679298Y-101285322D01*
X124679301Y-101285322D01*
X124849568Y-101225743D01*
X125002308Y-101129770D01*
X125129862Y-101002216D01*
X125225835Y-100849476D01*
X125285414Y-100679209D01*
X125292690Y-100614631D01*
X125305611Y-100499957D01*
X125305611Y-100499950D01*
X125286462Y-100329996D01*
X137094435Y-100329996D01*
X137094435Y-100330003D01*
X137114630Y-100509249D01*
X137114631Y-100509254D01*
X137174211Y-100679523D01*
X137270184Y-100832262D01*
X137397738Y-100959816D01*
X137455484Y-100996100D01*
X137542025Y-101050478D01*
X137550478Y-101055789D01*
X137720745Y-101115368D01*
X137720750Y-101115369D01*
X137899996Y-101135565D01*
X137900000Y-101135565D01*
X137900004Y-101135565D01*
X138079249Y-101115369D01*
X138079252Y-101115368D01*
X138079255Y-101115368D01*
X138249522Y-101055789D01*
X138402262Y-100959816D01*
X138529816Y-100832262D01*
X138625789Y-100679522D01*
X138685368Y-100509255D01*
X138686416Y-100499954D01*
X138705565Y-100330003D01*
X138705565Y-100329996D01*
X138685369Y-100150750D01*
X138685368Y-100150745D01*
X138645992Y-100038214D01*
X138625789Y-99980478D01*
X138529816Y-99827738D01*
X138402262Y-99700184D01*
X138333822Y-99657180D01*
X138249523Y-99604211D01*
X138079254Y-99544631D01*
X138079249Y-99544630D01*
X137900004Y-99524435D01*
X137899996Y-99524435D01*
X137720750Y-99544630D01*
X137720745Y-99544631D01*
X137550476Y-99604211D01*
X137397737Y-99700184D01*
X137270184Y-99827737D01*
X137174211Y-99980476D01*
X137114631Y-100150745D01*
X137114630Y-100150750D01*
X137094435Y-100329996D01*
X125286462Y-100329996D01*
X125285415Y-100320704D01*
X125285414Y-100320699D01*
X125260326Y-100249002D01*
X125225835Y-100150432D01*
X125129862Y-99997692D01*
X125002308Y-99870138D01*
X124867399Y-99785369D01*
X124849565Y-99774163D01*
X124686231Y-99717009D01*
X124629455Y-99676287D01*
X124603708Y-99611335D01*
X124617165Y-99542773D01*
X124665552Y-99492370D01*
X124686225Y-99482928D01*
X124849522Y-99425789D01*
X125002262Y-99329816D01*
X125129816Y-99202262D01*
X125225789Y-99049522D01*
X125243119Y-98999996D01*
X146794435Y-98999996D01*
X146794435Y-99000003D01*
X146814630Y-99179249D01*
X146814631Y-99179254D01*
X146874211Y-99349523D01*
X146928152Y-99435369D01*
X146970184Y-99502262D01*
X147097738Y-99629816D01*
X147141288Y-99657180D01*
X147236531Y-99717026D01*
X147250478Y-99725789D01*
X147386897Y-99773524D01*
X147420745Y-99785368D01*
X147420750Y-99785369D01*
X147599996Y-99805565D01*
X147600000Y-99805565D01*
X147600004Y-99805565D01*
X147779249Y-99785369D01*
X147779252Y-99785368D01*
X147779255Y-99785368D01*
X147949522Y-99725789D01*
X148102262Y-99629816D01*
X148229816Y-99502262D01*
X148325789Y-99349522D01*
X148385368Y-99179255D01*
X148385369Y-99179249D01*
X148405565Y-99000003D01*
X148405565Y-98999996D01*
X148385369Y-98820750D01*
X148385368Y-98820745D01*
X148355985Y-98736773D01*
X148325789Y-98650478D01*
X148321685Y-98643947D01*
X148229815Y-98497737D01*
X148102262Y-98370184D01*
X147949523Y-98274211D01*
X147779254Y-98214631D01*
X147779249Y-98214630D01*
X147600004Y-98194435D01*
X147599996Y-98194435D01*
X147420750Y-98214630D01*
X147420745Y-98214631D01*
X147250476Y-98274211D01*
X147097737Y-98370184D01*
X146970184Y-98497737D01*
X146874211Y-98650476D01*
X146814631Y-98820745D01*
X146814630Y-98820750D01*
X146794435Y-98999996D01*
X125243119Y-98999996D01*
X125285368Y-98879255D01*
X125285369Y-98879249D01*
X125305565Y-98700003D01*
X125305565Y-98699996D01*
X125285369Y-98520750D01*
X125285368Y-98520745D01*
X125280056Y-98505565D01*
X125225789Y-98350478D01*
X125129816Y-98197738D01*
X125002262Y-98070184D01*
X124969379Y-98049522D01*
X124849523Y-97974211D01*
X124679254Y-97914631D01*
X124679249Y-97914630D01*
X124500004Y-97894435D01*
X124499996Y-97894435D01*
X124320750Y-97914630D01*
X124320745Y-97914631D01*
X124150476Y-97974211D01*
X123997737Y-98070184D01*
X123870184Y-98197737D01*
X123774211Y-98350476D01*
X123714631Y-98520745D01*
X123714630Y-98520750D01*
X123694435Y-98699996D01*
X120649932Y-98699996D01*
X120655565Y-98650003D01*
X120655565Y-98649996D01*
X120635369Y-98470750D01*
X120635368Y-98470745D01*
X120619637Y-98425788D01*
X120575789Y-98300478D01*
X120574067Y-98297738D01*
X120509158Y-98194435D01*
X120479816Y-98147738D01*
X120352262Y-98020184D01*
X120343426Y-98014632D01*
X120199523Y-97924211D01*
X120029254Y-97864631D01*
X120029249Y-97864630D01*
X119850004Y-97844435D01*
X119849996Y-97844435D01*
X119670750Y-97864630D01*
X119670745Y-97864631D01*
X119500476Y-97924211D01*
X119347737Y-98020184D01*
X119220184Y-98147737D01*
X119124211Y-98300476D01*
X119064631Y-98470745D01*
X119064630Y-98470750D01*
X119044435Y-98649996D01*
X118188664Y-98649996D01*
X118185369Y-98620750D01*
X118185368Y-98620745D01*
X118142326Y-98497738D01*
X118125789Y-98450478D01*
X118029816Y-98297738D01*
X117902262Y-98170184D01*
X117749523Y-98074211D01*
X117579254Y-98014631D01*
X117579249Y-98014630D01*
X117400004Y-97994435D01*
X117399996Y-97994435D01*
X117220750Y-98014630D01*
X117220745Y-98014631D01*
X117050476Y-98074211D01*
X116897737Y-98170184D01*
X116770184Y-98297737D01*
X116674211Y-98450476D01*
X116614631Y-98620745D01*
X116614630Y-98620750D01*
X116594435Y-98799996D01*
X100929712Y-98799996D01*
X100820212Y-98736776D01*
X100820205Y-98736773D01*
X100596104Y-98643947D01*
X100361785Y-98581161D01*
X100121289Y-98549500D01*
X100121288Y-98549500D01*
X99878712Y-98549500D01*
X99878711Y-98549500D01*
X99638214Y-98581161D01*
X99403895Y-98643947D01*
X99179794Y-98736773D01*
X99179785Y-98736777D01*
X98969706Y-98858067D01*
X98777263Y-99005733D01*
X98777256Y-99005739D01*
X98605739Y-99177256D01*
X98605733Y-99177263D01*
X98458067Y-99369706D01*
X98458064Y-99369710D01*
X98458064Y-99369711D01*
X98454555Y-99375789D01*
X98336777Y-99579785D01*
X98336773Y-99579794D01*
X98243945Y-99803901D01*
X98242643Y-99807738D01*
X98241438Y-99807329D01*
X98207905Y-99862337D01*
X98145057Y-99892863D01*
X98075682Y-99884565D01*
X98021806Y-99840077D01*
X98000535Y-99773524D01*
X98000500Y-99770579D01*
X98000500Y-96799996D01*
X116594435Y-96799996D01*
X116594435Y-96800003D01*
X116614630Y-96979249D01*
X116614631Y-96979254D01*
X116674211Y-97149523D01*
X116709425Y-97205565D01*
X116770184Y-97302262D01*
X116897738Y-97429816D01*
X116911605Y-97438529D01*
X117042450Y-97520745D01*
X117050478Y-97525789D01*
X117220745Y-97585368D01*
X117220750Y-97585369D01*
X117399996Y-97605565D01*
X117400000Y-97605565D01*
X117400004Y-97605565D01*
X117579249Y-97585369D01*
X117579252Y-97585368D01*
X117579255Y-97585368D01*
X117749522Y-97525789D01*
X117902262Y-97429816D01*
X118029816Y-97302262D01*
X118125789Y-97149522D01*
X118185368Y-96979255D01*
X118185901Y-96974525D01*
X118205565Y-96800003D01*
X118205565Y-96799996D01*
X120394435Y-96799996D01*
X120394435Y-96800003D01*
X120414630Y-96979249D01*
X120414631Y-96979254D01*
X120474211Y-97149523D01*
X120509425Y-97205565D01*
X120570184Y-97302262D01*
X120697738Y-97429816D01*
X120711605Y-97438529D01*
X120842450Y-97520745D01*
X120850478Y-97525789D01*
X121020745Y-97585368D01*
X121020750Y-97585369D01*
X121199996Y-97605565D01*
X121200000Y-97605565D01*
X121200004Y-97605565D01*
X121379249Y-97585369D01*
X121379252Y-97585368D01*
X121379255Y-97585368D01*
X121549522Y-97525789D01*
X121702262Y-97429816D01*
X121829816Y-97302262D01*
X121925789Y-97149522D01*
X121985368Y-96979255D01*
X121985901Y-96974525D01*
X122005565Y-96800003D01*
X122005565Y-96799996D01*
X121985369Y-96620750D01*
X121985368Y-96620745D01*
X121970848Y-96579249D01*
X121925789Y-96450478D01*
X121829816Y-96297738D01*
X121702262Y-96170184D01*
X121549523Y-96074211D01*
X121379254Y-96014631D01*
X121379249Y-96014630D01*
X121200004Y-95994435D01*
X121199996Y-95994435D01*
X121020750Y-96014630D01*
X121020745Y-96014631D01*
X120850476Y-96074211D01*
X120697737Y-96170184D01*
X120570184Y-96297737D01*
X120474211Y-96450476D01*
X120414631Y-96620745D01*
X120414630Y-96620750D01*
X120394435Y-96799996D01*
X118205565Y-96799996D01*
X118185369Y-96620750D01*
X118185368Y-96620745D01*
X118170848Y-96579249D01*
X118125789Y-96450478D01*
X118029816Y-96297738D01*
X117902262Y-96170184D01*
X117749523Y-96074211D01*
X117579254Y-96014631D01*
X117579249Y-96014630D01*
X117400004Y-95994435D01*
X117399996Y-95994435D01*
X117220750Y-96014630D01*
X117220745Y-96014631D01*
X117050476Y-96074211D01*
X116897737Y-96170184D01*
X116770184Y-96297737D01*
X116674211Y-96450476D01*
X116614631Y-96620745D01*
X116614630Y-96620750D01*
X116594435Y-96799996D01*
X98000500Y-96799996D01*
X98000500Y-95608931D01*
X98020185Y-95541892D01*
X98072989Y-95496137D01*
X98142147Y-95486193D01*
X98205703Y-95515218D01*
X98226075Y-95537808D01*
X98275500Y-95608395D01*
X98275505Y-95608401D01*
X98442599Y-95775495D01*
X98539384Y-95843265D01*
X98636165Y-95911032D01*
X98636167Y-95911033D01*
X98636170Y-95911035D01*
X98850337Y-96010903D01*
X98850343Y-96010904D01*
X98850344Y-96010905D01*
X98864250Y-96014631D01*
X99078592Y-96072063D01*
X99266918Y-96088539D01*
X99313999Y-96092659D01*
X99314000Y-96092659D01*
X99314001Y-96092659D01*
X99353234Y-96089226D01*
X99549408Y-96072063D01*
X99777663Y-96010903D01*
X99991830Y-95911035D01*
X100185401Y-95775495D01*
X100352495Y-95608401D01*
X100488035Y-95414830D01*
X100587903Y-95200663D01*
X100649063Y-94972408D01*
X100669659Y-94737000D01*
X100649063Y-94501592D01*
X100587903Y-94273337D01*
X100488035Y-94059171D01*
X100467480Y-94029816D01*
X100352496Y-93865600D01*
X100301526Y-93814630D01*
X100230567Y-93743671D01*
X100197084Y-93682351D01*
X100202068Y-93612659D01*
X100243939Y-93556725D01*
X100274915Y-93539810D01*
X100406331Y-93490796D01*
X100521546Y-93404546D01*
X100607796Y-93289331D01*
X100658091Y-93154483D01*
X100664500Y-93094873D01*
X100664499Y-91299128D01*
X100658091Y-91239517D01*
X100651091Y-91220750D01*
X100607797Y-91104671D01*
X100607793Y-91104664D01*
X100521547Y-90989455D01*
X100521544Y-90989452D01*
X100406335Y-90903206D01*
X100406328Y-90903202D01*
X100271482Y-90852908D01*
X100271483Y-90852908D01*
X100211883Y-90846501D01*
X100211881Y-90846500D01*
X100211873Y-90846500D01*
X100211864Y-90846500D01*
X98416129Y-90846500D01*
X98416123Y-90846501D01*
X98356516Y-90852908D01*
X98221671Y-90903202D01*
X98221669Y-90903203D01*
X98198810Y-90920316D01*
X98133345Y-90944732D01*
X98065072Y-90929880D01*
X98015667Y-90880474D01*
X98000500Y-90821048D01*
X98000500Y-89767951D01*
X98020185Y-89700912D01*
X98072989Y-89655157D01*
X98142147Y-89645213D01*
X98198811Y-89668684D01*
X98221097Y-89685368D01*
X98221668Y-89685795D01*
X98221671Y-89685797D01*
X98356517Y-89736091D01*
X98356516Y-89736091D01*
X98363444Y-89736835D01*
X98416127Y-89742500D01*
X100211872Y-89742499D01*
X100271483Y-89736091D01*
X100406331Y-89685796D01*
X100521546Y-89599546D01*
X100607796Y-89484331D01*
X100658091Y-89349483D01*
X100664500Y-89289873D01*
X100664499Y-87494128D01*
X100658091Y-87434517D01*
X100642144Y-87391762D01*
X100607797Y-87299671D01*
X100607793Y-87299664D01*
X100521547Y-87184455D01*
X100521544Y-87184452D01*
X100406335Y-87098206D01*
X100406328Y-87098202D01*
X100274917Y-87049189D01*
X100218983Y-87007318D01*
X100216251Y-86999994D01*
X103294357Y-86999994D01*
X103294357Y-87000005D01*
X103314890Y-87247812D01*
X103314892Y-87247824D01*
X103375936Y-87488881D01*
X103475826Y-87716606D01*
X103611833Y-87924782D01*
X103623919Y-87937911D01*
X103780256Y-88107738D01*
X103863008Y-88172147D01*
X103903821Y-88228857D01*
X103907496Y-88298630D01*
X103872864Y-88359313D01*
X103863014Y-88367848D01*
X103804400Y-88413469D01*
X103780257Y-88432261D01*
X103611833Y-88615217D01*
X103475826Y-88823393D01*
X103375936Y-89051118D01*
X103314892Y-89292175D01*
X103314890Y-89292187D01*
X103294357Y-89539994D01*
X103294357Y-89540005D01*
X103314890Y-89787812D01*
X103314892Y-89787824D01*
X103375936Y-90028881D01*
X103475826Y-90256606D01*
X103611833Y-90464782D01*
X103611836Y-90464785D01*
X103780256Y-90647738D01*
X103863008Y-90712147D01*
X103903821Y-90768857D01*
X103907496Y-90838630D01*
X103872864Y-90899313D01*
X103863014Y-90907848D01*
X103815627Y-90944732D01*
X103780257Y-90972261D01*
X103611833Y-91155217D01*
X103475826Y-91363393D01*
X103375936Y-91591118D01*
X103314892Y-91832175D01*
X103314890Y-91832187D01*
X103294357Y-92079994D01*
X103294357Y-92080005D01*
X103314890Y-92327812D01*
X103314892Y-92327824D01*
X103375936Y-92568881D01*
X103475825Y-92796603D01*
X103475827Y-92796607D01*
X103606742Y-92996988D01*
X103626929Y-93063877D01*
X103607749Y-93131063D01*
X103562367Y-93173637D01*
X103557670Y-93176201D01*
X103442455Y-93262452D01*
X103442452Y-93262455D01*
X103356206Y-93377664D01*
X103356202Y-93377671D01*
X103305908Y-93512517D01*
X103301156Y-93556725D01*
X103299501Y-93572123D01*
X103299500Y-93572135D01*
X103299500Y-95667870D01*
X103299501Y-95667876D01*
X103305908Y-95727483D01*
X103356202Y-95862328D01*
X103356206Y-95862335D01*
X103442452Y-95977544D01*
X103442455Y-95977547D01*
X103557664Y-96063793D01*
X103557671Y-96063797D01*
X103692517Y-96114091D01*
X103692516Y-96114091D01*
X103699444Y-96114835D01*
X103752127Y-96120500D01*
X105847872Y-96120499D01*
X105907483Y-96114091D01*
X106042331Y-96063796D01*
X106157546Y-95977546D01*
X106215600Y-95899996D01*
X122094435Y-95899996D01*
X122094435Y-95900003D01*
X122114630Y-96079249D01*
X122114631Y-96079254D01*
X122174211Y-96249523D01*
X122237646Y-96350478D01*
X122270184Y-96402262D01*
X122397738Y-96529816D01*
X122550478Y-96625789D01*
X122550480Y-96625790D01*
X122713857Y-96682959D01*
X122770633Y-96723680D01*
X122796380Y-96788633D01*
X122782924Y-96857195D01*
X122734536Y-96907597D01*
X122713857Y-96917041D01*
X122550480Y-96974209D01*
X122397737Y-97070184D01*
X122270184Y-97197737D01*
X122174211Y-97350476D01*
X122114631Y-97520745D01*
X122114630Y-97520750D01*
X122094435Y-97699996D01*
X122094435Y-97700003D01*
X122114630Y-97879249D01*
X122114631Y-97879254D01*
X122174211Y-98049523D01*
X122235924Y-98147738D01*
X122270184Y-98202262D01*
X122397738Y-98329816D01*
X122550478Y-98425789D01*
X122678955Y-98470745D01*
X122720745Y-98485368D01*
X122720750Y-98485369D01*
X122899996Y-98505565D01*
X122900000Y-98505565D01*
X122900004Y-98505565D01*
X123079249Y-98485369D01*
X123079252Y-98485368D01*
X123079255Y-98485368D01*
X123249522Y-98425789D01*
X123402262Y-98329816D01*
X123529816Y-98202262D01*
X123625789Y-98049522D01*
X123685368Y-97879255D01*
X123688718Y-97849522D01*
X123705565Y-97700003D01*
X123705565Y-97699996D01*
X123685369Y-97520750D01*
X123685368Y-97520745D01*
X123678108Y-97499996D01*
X132194435Y-97499996D01*
X132194435Y-97500003D01*
X132214630Y-97679249D01*
X132214631Y-97679254D01*
X132274211Y-97849523D01*
X132352558Y-97974211D01*
X132370184Y-98002262D01*
X132497738Y-98129816D01*
X132526259Y-98147737D01*
X132632721Y-98214632D01*
X132650478Y-98225789D01*
X132661984Y-98229815D01*
X132820745Y-98285368D01*
X132820750Y-98285369D01*
X132999996Y-98305565D01*
X133000000Y-98305565D01*
X133000004Y-98305565D01*
X133179249Y-98285369D01*
X133179252Y-98285368D01*
X133179255Y-98285368D01*
X133349522Y-98225789D01*
X133502262Y-98129816D01*
X133629816Y-98002262D01*
X133725789Y-97849522D01*
X133785368Y-97679255D01*
X133793671Y-97605565D01*
X133805565Y-97500003D01*
X133805565Y-97496261D01*
X133806249Y-97493930D01*
X133806345Y-97493081D01*
X133806493Y-97493097D01*
X133825250Y-97429222D01*
X133878054Y-97383467D01*
X133947212Y-97373523D01*
X133995538Y-97391268D01*
X134050475Y-97425788D01*
X134220745Y-97485368D01*
X134220750Y-97485369D01*
X134399996Y-97505565D01*
X134400000Y-97505565D01*
X134400004Y-97505565D01*
X134579249Y-97485369D01*
X134579252Y-97485368D01*
X134579255Y-97485368D01*
X134749522Y-97425789D01*
X134902262Y-97329816D01*
X134902561Y-97329516D01*
X134902801Y-97329385D01*
X134907705Y-97325475D01*
X134908389Y-97326333D01*
X134963877Y-97296028D01*
X135033569Y-97301006D01*
X135089507Y-97342872D01*
X135113930Y-97408334D01*
X135113467Y-97431075D01*
X135094435Y-97599996D01*
X135094435Y-97600003D01*
X135114630Y-97779249D01*
X135114631Y-97779254D01*
X135174211Y-97949523D01*
X135215122Y-98014632D01*
X135270184Y-98102262D01*
X135397738Y-98229816D01*
X135468392Y-98274211D01*
X135510192Y-98300476D01*
X135550478Y-98325789D01*
X135677352Y-98370184D01*
X135720745Y-98385368D01*
X135720750Y-98385369D01*
X135899996Y-98405565D01*
X135900000Y-98405565D01*
X135900004Y-98405565D01*
X136079249Y-98385369D01*
X136079252Y-98385368D01*
X136079255Y-98385368D01*
X136249522Y-98325789D01*
X136402262Y-98229816D01*
X136529816Y-98102262D01*
X136625789Y-97949522D01*
X136685368Y-97779255D01*
X136685369Y-97779249D01*
X136705565Y-97600003D01*
X136705565Y-97599997D01*
X136686532Y-97431076D01*
X136698586Y-97362254D01*
X136745935Y-97310874D01*
X136813546Y-97293250D01*
X136879952Y-97314976D01*
X136897433Y-97329511D01*
X136897738Y-97329816D01*
X136949363Y-97362254D01*
X137042450Y-97420745D01*
X137050478Y-97425789D01*
X137220745Y-97485368D01*
X137220750Y-97485369D01*
X137399996Y-97505565D01*
X137400000Y-97505565D01*
X137400004Y-97505565D01*
X137579249Y-97485369D01*
X137579252Y-97485368D01*
X137579255Y-97485368D01*
X137749522Y-97425789D01*
X137757550Y-97420745D01*
X137816196Y-97383895D01*
X137883433Y-97364894D01*
X137950268Y-97385261D01*
X137995483Y-97438529D01*
X138005389Y-97502771D01*
X137994435Y-97599995D01*
X137994435Y-97600003D01*
X138014630Y-97779249D01*
X138014631Y-97779254D01*
X138074211Y-97949523D01*
X138115122Y-98014632D01*
X138170184Y-98102262D01*
X138297738Y-98229816D01*
X138368392Y-98274211D01*
X138410192Y-98300476D01*
X138450478Y-98325789D01*
X138577352Y-98370184D01*
X138620745Y-98385368D01*
X138620750Y-98385369D01*
X138799996Y-98405565D01*
X138800000Y-98405565D01*
X138800004Y-98405565D01*
X138979249Y-98385369D01*
X138979252Y-98385368D01*
X138979255Y-98385368D01*
X139149522Y-98325789D01*
X139302262Y-98229816D01*
X139429816Y-98102262D01*
X139478431Y-98024890D01*
X139530764Y-97978601D01*
X139599818Y-97967952D01*
X139663666Y-97996327D01*
X139671105Y-98003183D01*
X139797738Y-98129816D01*
X139826259Y-98147737D01*
X139932721Y-98214632D01*
X139950478Y-98225789D01*
X139961984Y-98229815D01*
X140120745Y-98285368D01*
X140120750Y-98285369D01*
X140299996Y-98305565D01*
X140300000Y-98305565D01*
X140300004Y-98305565D01*
X140479249Y-98285369D01*
X140479252Y-98285368D01*
X140479255Y-98285368D01*
X140649522Y-98225789D01*
X140802262Y-98129816D01*
X140929816Y-98002262D01*
X141025789Y-97849522D01*
X141085368Y-97679255D01*
X141093671Y-97605565D01*
X141105565Y-97500003D01*
X141105565Y-97499996D01*
X141085369Y-97320750D01*
X141085368Y-97320745D01*
X141081914Y-97310874D01*
X141025789Y-97150478D01*
X141025188Y-97149522D01*
X140935478Y-97006749D01*
X140929816Y-96997738D01*
X140802262Y-96870184D01*
X140781590Y-96857195D01*
X140649523Y-96774211D01*
X140479254Y-96714631D01*
X140479249Y-96714630D01*
X140300004Y-96694435D01*
X140299996Y-96694435D01*
X140120750Y-96714630D01*
X140120745Y-96714631D01*
X139950476Y-96774211D01*
X139797737Y-96870184D01*
X139670184Y-96997737D01*
X139670182Y-96997740D01*
X139621568Y-97075108D01*
X139569233Y-97121399D01*
X139500180Y-97132046D01*
X139436331Y-97103671D01*
X139428894Y-97096816D01*
X139302262Y-96970184D01*
X139149523Y-96874211D01*
X138979254Y-96814631D01*
X138979249Y-96814630D01*
X138800004Y-96794435D01*
X138799996Y-96794435D01*
X138620750Y-96814630D01*
X138620745Y-96814631D01*
X138450474Y-96874212D01*
X138383801Y-96916105D01*
X138316564Y-96935105D01*
X138249729Y-96914737D01*
X138204516Y-96861468D01*
X138194610Y-96797227D01*
X138195579Y-96788633D01*
X138202897Y-96723680D01*
X138205565Y-96700002D01*
X138205565Y-96699996D01*
X138185369Y-96520750D01*
X138185368Y-96520745D01*
X138143116Y-96399996D01*
X146794435Y-96399996D01*
X146794435Y-96400003D01*
X146814630Y-96579249D01*
X146814631Y-96579254D01*
X146874211Y-96749523D01*
X146955728Y-96879255D01*
X146970184Y-96902262D01*
X147097738Y-97029816D01*
X147250478Y-97125789D01*
X147420745Y-97185368D01*
X147420750Y-97185369D01*
X147599996Y-97205565D01*
X147600000Y-97205565D01*
X147600004Y-97205565D01*
X147779249Y-97185369D01*
X147779252Y-97185368D01*
X147779255Y-97185368D01*
X147949522Y-97125789D01*
X148102262Y-97029816D01*
X148229816Y-96902262D01*
X148325789Y-96749522D01*
X148385368Y-96579255D01*
X148385369Y-96579249D01*
X148405565Y-96400003D01*
X148405565Y-96399996D01*
X149994435Y-96399996D01*
X149994435Y-96400003D01*
X150014630Y-96579249D01*
X150014631Y-96579254D01*
X150074211Y-96749523D01*
X150155728Y-96879255D01*
X150170184Y-96902262D01*
X150297738Y-97029816D01*
X150450478Y-97125789D01*
X150620745Y-97185368D01*
X150620750Y-97185369D01*
X150799996Y-97205565D01*
X150800000Y-97205565D01*
X150800004Y-97205565D01*
X150979249Y-97185369D01*
X150979252Y-97185368D01*
X150979255Y-97185368D01*
X151149522Y-97125789D01*
X151302262Y-97029816D01*
X151429816Y-96902262D01*
X151525789Y-96749522D01*
X151585368Y-96579255D01*
X151585369Y-96579249D01*
X151605565Y-96400003D01*
X151605565Y-96399996D01*
X151585369Y-96220750D01*
X151585368Y-96220745D01*
X151525789Y-96050478D01*
X151503265Y-96014632D01*
X151440431Y-95914632D01*
X151429816Y-95897738D01*
X151302262Y-95770184D01*
X151234304Y-95727483D01*
X151149523Y-95674211D01*
X150979254Y-95614631D01*
X150979249Y-95614630D01*
X150800004Y-95594435D01*
X150799996Y-95594435D01*
X150620750Y-95614630D01*
X150620745Y-95614631D01*
X150450476Y-95674211D01*
X150297737Y-95770184D01*
X150170184Y-95897737D01*
X150074211Y-96050476D01*
X150014631Y-96220745D01*
X150014630Y-96220750D01*
X149994435Y-96399996D01*
X148405565Y-96399996D01*
X148385369Y-96220750D01*
X148385368Y-96220745D01*
X148325789Y-96050478D01*
X148303265Y-96014632D01*
X148240431Y-95914632D01*
X148229816Y-95897738D01*
X148102262Y-95770184D01*
X148034304Y-95727483D01*
X147949523Y-95674211D01*
X147779254Y-95614631D01*
X147779249Y-95614630D01*
X147600004Y-95594435D01*
X147599996Y-95594435D01*
X147420750Y-95614630D01*
X147420745Y-95614631D01*
X147250476Y-95674211D01*
X147097737Y-95770184D01*
X146970184Y-95897737D01*
X146874211Y-96050476D01*
X146814631Y-96220745D01*
X146814630Y-96220750D01*
X146794435Y-96399996D01*
X138143116Y-96399996D01*
X138125789Y-96350478D01*
X138029816Y-96197738D01*
X137902262Y-96070184D01*
X137813852Y-96014632D01*
X137749523Y-95974211D01*
X137579254Y-95914631D01*
X137579249Y-95914630D01*
X137400004Y-95894435D01*
X137399996Y-95894435D01*
X137220750Y-95914630D01*
X137220745Y-95914631D01*
X137050476Y-95974211D01*
X136897737Y-96070184D01*
X136770184Y-96197737D01*
X136674211Y-96350476D01*
X136614631Y-96520745D01*
X136614630Y-96520750D01*
X136594435Y-96699996D01*
X136594435Y-96700003D01*
X136613467Y-96868924D01*
X136601412Y-96937746D01*
X136554063Y-96989125D01*
X136486453Y-97006749D01*
X136420047Y-96985022D01*
X136402566Y-96970488D01*
X136402262Y-96970184D01*
X136249523Y-96874211D01*
X136079254Y-96814631D01*
X136079249Y-96814630D01*
X135900004Y-96794435D01*
X135899996Y-96794435D01*
X135720750Y-96814630D01*
X135720745Y-96814631D01*
X135550476Y-96874211D01*
X135397737Y-96970184D01*
X135397425Y-96970497D01*
X135397173Y-96970634D01*
X135392295Y-96974525D01*
X135391613Y-96973669D01*
X135336099Y-97003976D01*
X135266407Y-96998985D01*
X135210478Y-96957108D01*
X135186067Y-96891641D01*
X135186532Y-96868923D01*
X135187854Y-96857195D01*
X135202897Y-96723680D01*
X135205565Y-96700002D01*
X135205565Y-96699996D01*
X135185369Y-96520750D01*
X135185368Y-96520745D01*
X135125789Y-96350478D01*
X135029816Y-96197738D01*
X134902262Y-96070184D01*
X134813852Y-96014632D01*
X134749523Y-95974211D01*
X134579254Y-95914631D01*
X134579249Y-95914630D01*
X134400004Y-95894435D01*
X134399996Y-95894435D01*
X134220750Y-95914630D01*
X134220745Y-95914631D01*
X134050476Y-95974211D01*
X133897737Y-96070184D01*
X133770184Y-96197737D01*
X133674211Y-96350476D01*
X133614631Y-96520745D01*
X133614630Y-96520750D01*
X133594435Y-96699996D01*
X133594435Y-96703738D01*
X133593750Y-96706067D01*
X133593655Y-96706919D01*
X133593505Y-96706902D01*
X133574750Y-96770777D01*
X133521946Y-96816532D01*
X133452788Y-96826476D01*
X133404464Y-96808732D01*
X133349525Y-96774212D01*
X133179254Y-96714631D01*
X133179249Y-96714630D01*
X133000004Y-96694435D01*
X132999996Y-96694435D01*
X132820750Y-96714630D01*
X132820745Y-96714631D01*
X132650476Y-96774211D01*
X132497737Y-96870184D01*
X132370184Y-96997737D01*
X132274211Y-97150476D01*
X132214631Y-97320745D01*
X132214630Y-97320750D01*
X132194435Y-97499996D01*
X123678108Y-97499996D01*
X123675985Y-97493930D01*
X123625789Y-97350478D01*
X123612807Y-97329818D01*
X123534734Y-97205565D01*
X123529816Y-97197738D01*
X123402262Y-97070184D01*
X123338017Y-97029816D01*
X123249523Y-96974211D01*
X123086142Y-96917042D01*
X123029366Y-96876320D01*
X123003619Y-96811367D01*
X123017075Y-96742806D01*
X123065462Y-96692403D01*
X123086142Y-96682958D01*
X123249522Y-96625789D01*
X123402262Y-96529816D01*
X123529816Y-96402262D01*
X123625789Y-96249522D01*
X123685368Y-96079255D01*
X123685369Y-96079249D01*
X123705565Y-95900003D01*
X123705565Y-95899996D01*
X123685369Y-95720750D01*
X123685368Y-95720745D01*
X123648237Y-95614630D01*
X123625789Y-95550478D01*
X123529816Y-95397738D01*
X123402262Y-95270184D01*
X123338017Y-95229816D01*
X123249523Y-95174211D01*
X123079254Y-95114631D01*
X123079249Y-95114630D01*
X122900004Y-95094435D01*
X122899996Y-95094435D01*
X122720750Y-95114630D01*
X122720745Y-95114631D01*
X122550476Y-95174211D01*
X122397737Y-95270184D01*
X122270184Y-95397737D01*
X122174211Y-95550476D01*
X122114631Y-95720745D01*
X122114630Y-95720750D01*
X122094435Y-95899996D01*
X106215600Y-95899996D01*
X106243796Y-95862331D01*
X106294091Y-95727483D01*
X106300500Y-95667873D01*
X106300499Y-94599996D01*
X116594435Y-94599996D01*
X116594435Y-94600003D01*
X116614630Y-94779249D01*
X116614631Y-94779254D01*
X116674211Y-94949523D01*
X116688588Y-94972403D01*
X116770184Y-95102262D01*
X116897738Y-95229816D01*
X117050478Y-95325789D01*
X117220745Y-95385368D01*
X117220750Y-95385369D01*
X117399996Y-95405565D01*
X117400000Y-95405565D01*
X117400004Y-95405565D01*
X117579249Y-95385369D01*
X117579252Y-95385368D01*
X117579255Y-95385368D01*
X117749522Y-95325789D01*
X117902262Y-95229816D01*
X118029816Y-95102262D01*
X118125789Y-94949522D01*
X118185368Y-94779255D01*
X118191392Y-94725789D01*
X118205565Y-94600003D01*
X118205565Y-94599996D01*
X120394435Y-94599996D01*
X120394435Y-94600003D01*
X120414630Y-94779249D01*
X120414631Y-94779254D01*
X120474211Y-94949523D01*
X120488588Y-94972403D01*
X120570184Y-95102262D01*
X120697738Y-95229816D01*
X120850478Y-95325789D01*
X121020745Y-95385368D01*
X121020750Y-95385369D01*
X121199996Y-95405565D01*
X121200000Y-95405565D01*
X121200004Y-95405565D01*
X121379249Y-95385369D01*
X121379252Y-95385368D01*
X121379255Y-95385368D01*
X121549522Y-95325789D01*
X121702262Y-95229816D01*
X121829816Y-95102262D01*
X121925789Y-94949522D01*
X121985368Y-94779255D01*
X121991392Y-94725789D01*
X122005565Y-94600003D01*
X122005565Y-94599996D01*
X121985369Y-94420750D01*
X121985368Y-94420745D01*
X121933790Y-94273344D01*
X121925789Y-94250478D01*
X121829816Y-94097738D01*
X121732074Y-93999996D01*
X143094435Y-93999996D01*
X143094435Y-94000003D01*
X143114630Y-94179249D01*
X143114631Y-94179254D01*
X143174211Y-94349523D01*
X143269759Y-94501586D01*
X143270184Y-94502262D01*
X143397738Y-94629816D01*
X143550478Y-94725789D01*
X143703258Y-94779249D01*
X143720745Y-94785368D01*
X143720750Y-94785369D01*
X143899996Y-94805565D01*
X143900000Y-94805565D01*
X143900004Y-94805565D01*
X144079249Y-94785369D01*
X144079252Y-94785368D01*
X144079255Y-94785368D01*
X144249522Y-94725789D01*
X144402262Y-94629816D01*
X144529816Y-94502262D01*
X144625789Y-94349522D01*
X144685368Y-94179255D01*
X144691392Y-94125789D01*
X144705565Y-94000003D01*
X144705565Y-93999996D01*
X145294435Y-93999996D01*
X145294435Y-94000003D01*
X145314630Y-94179249D01*
X145314631Y-94179254D01*
X145374211Y-94349523D01*
X145469759Y-94501586D01*
X145470184Y-94502262D01*
X145597738Y-94629816D01*
X145750478Y-94725789D01*
X145903258Y-94779249D01*
X145920745Y-94785368D01*
X145920750Y-94785369D01*
X146099996Y-94805565D01*
X146100000Y-94805565D01*
X146100004Y-94805565D01*
X146279249Y-94785369D01*
X146279252Y-94785368D01*
X146279255Y-94785368D01*
X146449522Y-94725789D01*
X146602262Y-94629816D01*
X146729816Y-94502262D01*
X146825789Y-94349522D01*
X146885368Y-94179255D01*
X146891392Y-94125789D01*
X146905565Y-94000003D01*
X146905565Y-93999996D01*
X146885369Y-93820750D01*
X146885368Y-93820745D01*
X146837998Y-93685369D01*
X146825789Y-93650478D01*
X146729816Y-93497738D01*
X146602262Y-93370184D01*
X146557632Y-93342141D01*
X146449523Y-93274211D01*
X146279254Y-93214631D01*
X146279249Y-93214630D01*
X146100004Y-93194435D01*
X146099996Y-93194435D01*
X145920750Y-93214630D01*
X145920745Y-93214631D01*
X145750476Y-93274211D01*
X145597737Y-93370184D01*
X145470184Y-93497737D01*
X145374211Y-93650476D01*
X145314631Y-93820745D01*
X145314630Y-93820750D01*
X145294435Y-93999996D01*
X144705565Y-93999996D01*
X144685369Y-93820750D01*
X144685368Y-93820745D01*
X144637998Y-93685369D01*
X144625789Y-93650478D01*
X144529816Y-93497738D01*
X144402262Y-93370184D01*
X144357632Y-93342141D01*
X144249523Y-93274211D01*
X144079254Y-93214631D01*
X144079249Y-93214630D01*
X143900004Y-93194435D01*
X143899996Y-93194435D01*
X143720750Y-93214630D01*
X143720745Y-93214631D01*
X143550476Y-93274211D01*
X143397737Y-93370184D01*
X143270184Y-93497737D01*
X143174211Y-93650476D01*
X143114631Y-93820745D01*
X143114630Y-93820750D01*
X143094435Y-93999996D01*
X121732074Y-93999996D01*
X121702262Y-93970184D01*
X121549523Y-93874211D01*
X121379254Y-93814631D01*
X121379249Y-93814630D01*
X121200004Y-93794435D01*
X121199996Y-93794435D01*
X121020750Y-93814630D01*
X121020745Y-93814631D01*
X120850476Y-93874211D01*
X120697737Y-93970184D01*
X120570184Y-94097737D01*
X120474211Y-94250476D01*
X120414631Y-94420745D01*
X120414630Y-94420750D01*
X120394435Y-94599996D01*
X118205565Y-94599996D01*
X118185369Y-94420750D01*
X118185368Y-94420745D01*
X118133790Y-94273344D01*
X118125789Y-94250478D01*
X118029816Y-94097738D01*
X117902262Y-93970184D01*
X117749523Y-93874211D01*
X117579254Y-93814631D01*
X117579249Y-93814630D01*
X117400004Y-93794435D01*
X117399996Y-93794435D01*
X117220750Y-93814630D01*
X117220745Y-93814631D01*
X117050476Y-93874211D01*
X116897737Y-93970184D01*
X116770184Y-94097737D01*
X116674211Y-94250476D01*
X116614631Y-94420745D01*
X116614630Y-94420750D01*
X116594435Y-94599996D01*
X106300499Y-94599996D01*
X106300499Y-93572128D01*
X106294091Y-93512517D01*
X106291627Y-93505912D01*
X106252124Y-93399996D01*
X106894435Y-93399996D01*
X106894435Y-93400003D01*
X106914630Y-93579249D01*
X106914631Y-93579254D01*
X106974211Y-93749523D01*
X107046814Y-93865069D01*
X107070184Y-93902262D01*
X107197738Y-94029816D01*
X107244453Y-94059169D01*
X107305833Y-94097737D01*
X107350478Y-94125789D01*
X107503258Y-94179249D01*
X107520745Y-94185368D01*
X107520750Y-94185369D01*
X107699996Y-94205565D01*
X107700000Y-94205565D01*
X107700004Y-94205565D01*
X107879249Y-94185369D01*
X107879252Y-94185368D01*
X107879255Y-94185368D01*
X108049522Y-94125789D01*
X108202262Y-94029816D01*
X108329816Y-93902262D01*
X108425789Y-93749522D01*
X108485368Y-93579255D01*
X108485369Y-93579249D01*
X108505565Y-93400003D01*
X108505565Y-93399996D01*
X108485369Y-93220750D01*
X108485368Y-93220745D01*
X108462182Y-93154483D01*
X108425789Y-93050478D01*
X108329816Y-92897738D01*
X108202262Y-92770184D01*
X108137124Y-92729255D01*
X108049523Y-92674211D01*
X107879254Y-92614631D01*
X107879249Y-92614630D01*
X107700004Y-92594435D01*
X107699996Y-92594435D01*
X107520750Y-92614630D01*
X107520745Y-92614631D01*
X107350476Y-92674211D01*
X107197737Y-92770184D01*
X107070184Y-92897737D01*
X106974211Y-93050476D01*
X106914631Y-93220745D01*
X106914630Y-93220750D01*
X106894435Y-93399996D01*
X106252124Y-93399996D01*
X106243797Y-93377671D01*
X106243793Y-93377664D01*
X106157547Y-93262455D01*
X106157544Y-93262452D01*
X106042332Y-93176204D01*
X106037635Y-93173639D01*
X105988232Y-93124232D01*
X105973382Y-93055958D01*
X105993257Y-92996989D01*
X106124173Y-92796607D01*
X106224063Y-92568881D01*
X106285108Y-92327821D01*
X106287413Y-92300003D01*
X106305643Y-92080005D01*
X106305643Y-92079994D01*
X106285109Y-91832187D01*
X106285107Y-91832175D01*
X106224063Y-91591118D01*
X106140229Y-91399996D01*
X116594435Y-91399996D01*
X116594435Y-91400003D01*
X116614630Y-91579249D01*
X116614631Y-91579254D01*
X116674211Y-91749523D01*
X116737646Y-91850478D01*
X116770184Y-91902262D01*
X116897738Y-92029816D01*
X116977596Y-92079994D01*
X117042450Y-92120745D01*
X117050478Y-92125789D01*
X117186371Y-92173340D01*
X117220745Y-92185368D01*
X117220750Y-92185369D01*
X117399996Y-92205565D01*
X117400000Y-92205565D01*
X117400004Y-92205565D01*
X117579249Y-92185369D01*
X117579252Y-92185368D01*
X117579255Y-92185368D01*
X117749522Y-92125789D01*
X117902262Y-92029816D01*
X118029816Y-91902262D01*
X118125789Y-91749522D01*
X118143119Y-91699996D01*
X123394435Y-91699996D01*
X123394435Y-91700003D01*
X123414630Y-91879249D01*
X123414631Y-91879254D01*
X123474211Y-92049523D01*
X123552011Y-92173340D01*
X123570184Y-92202262D01*
X123697738Y-92329816D01*
X123762876Y-92370745D01*
X123805833Y-92397737D01*
X123850478Y-92425789D01*
X123861984Y-92429815D01*
X124020745Y-92485368D01*
X124020750Y-92485369D01*
X124199996Y-92505565D01*
X124200000Y-92505565D01*
X124200004Y-92505565D01*
X124379249Y-92485369D01*
X124379252Y-92485368D01*
X124379255Y-92485368D01*
X124549522Y-92425789D01*
X124702262Y-92329816D01*
X124829816Y-92202262D01*
X124925789Y-92049522D01*
X124985368Y-91879255D01*
X124985369Y-91879249D01*
X125005565Y-91700003D01*
X125005565Y-91699996D01*
X124994298Y-91599996D01*
X129694435Y-91599996D01*
X129694435Y-91600003D01*
X129714630Y-91779249D01*
X129714631Y-91779254D01*
X129774211Y-91949523D01*
X129870184Y-92102262D01*
X129880571Y-92112649D01*
X129914056Y-92173972D01*
X129909932Y-92241285D01*
X129864631Y-92370745D01*
X129864630Y-92370750D01*
X129844435Y-92549996D01*
X129844435Y-92550003D01*
X129864630Y-92729249D01*
X129864631Y-92729254D01*
X129924211Y-92899523D01*
X129978152Y-92985369D01*
X130020184Y-93052262D01*
X130147738Y-93179816D01*
X130212876Y-93220745D01*
X130297966Y-93274211D01*
X130300478Y-93275789D01*
X130401034Y-93310975D01*
X130470745Y-93335368D01*
X130470750Y-93335369D01*
X130649996Y-93355565D01*
X130650000Y-93355565D01*
X130650004Y-93355565D01*
X130829246Y-93335369D01*
X130829245Y-93335369D01*
X130829255Y-93335368D01*
X130898966Y-93310974D01*
X130968742Y-93307412D01*
X131029370Y-93342141D01*
X131044913Y-93362044D01*
X131068764Y-93400003D01*
X131070184Y-93402262D01*
X131197738Y-93529816D01*
X131265058Y-93572116D01*
X131329581Y-93612659D01*
X131350478Y-93625789D01*
X131512123Y-93682351D01*
X131520745Y-93685368D01*
X131520750Y-93685369D01*
X131699996Y-93705565D01*
X131700000Y-93705565D01*
X131700004Y-93705565D01*
X131879249Y-93685369D01*
X131879252Y-93685368D01*
X131879255Y-93685368D01*
X132049522Y-93625789D01*
X132202262Y-93529816D01*
X132329816Y-93402262D01*
X132425789Y-93249522D01*
X132485368Y-93079255D01*
X132487993Y-93055958D01*
X132505565Y-92900003D01*
X132505565Y-92899996D01*
X132485369Y-92720750D01*
X132485368Y-92720745D01*
X132425789Y-92550478D01*
X132425188Y-92549522D01*
X132349971Y-92429815D01*
X132329816Y-92397738D01*
X132232074Y-92299996D01*
X135494435Y-92299996D01*
X135494435Y-92300003D01*
X135514630Y-92479249D01*
X135514631Y-92479254D01*
X135574211Y-92649523D01*
X135650028Y-92770184D01*
X135670184Y-92802262D01*
X135797738Y-92929816D01*
X135950478Y-93025789D01*
X136103258Y-93079249D01*
X136120745Y-93085368D01*
X136120750Y-93085369D01*
X136299996Y-93105565D01*
X136300000Y-93105565D01*
X136300004Y-93105565D01*
X136479249Y-93085369D01*
X136479252Y-93085368D01*
X136479255Y-93085368D01*
X136649522Y-93025789D01*
X136802262Y-92929816D01*
X136929816Y-92802262D01*
X137025789Y-92649522D01*
X137085368Y-92479255D01*
X137085369Y-92479249D01*
X137105565Y-92300003D01*
X137105565Y-92299996D01*
X137094298Y-92199996D01*
X139494435Y-92199996D01*
X139494435Y-92200003D01*
X139514630Y-92379249D01*
X139514631Y-92379254D01*
X139574211Y-92549523D01*
X139615122Y-92614632D01*
X139670184Y-92702262D01*
X139797738Y-92829816D01*
X139888080Y-92886582D01*
X139905833Y-92897737D01*
X139950478Y-92925789D01*
X139961984Y-92929815D01*
X140120745Y-92985368D01*
X140120750Y-92985369D01*
X140299996Y-93005565D01*
X140300000Y-93005565D01*
X140300004Y-93005565D01*
X140479249Y-92985369D01*
X140479252Y-92985368D01*
X140479255Y-92985368D01*
X140649522Y-92925789D01*
X140802262Y-92829816D01*
X140929816Y-92702262D01*
X141025789Y-92549522D01*
X141085368Y-92379255D01*
X141085369Y-92379249D01*
X141105565Y-92200003D01*
X141105565Y-92199996D01*
X141085369Y-92020750D01*
X141085368Y-92020745D01*
X141069720Y-91976027D01*
X141025789Y-91850478D01*
X141014288Y-91832175D01*
X140994069Y-91799996D01*
X143094435Y-91799996D01*
X143094435Y-91800003D01*
X143114630Y-91979249D01*
X143114631Y-91979254D01*
X143174211Y-92149523D01*
X143250028Y-92270184D01*
X143270184Y-92302262D01*
X143397738Y-92429816D01*
X143550478Y-92525789D01*
X143673628Y-92568881D01*
X143720745Y-92585368D01*
X143720750Y-92585369D01*
X143899996Y-92605565D01*
X143900000Y-92605565D01*
X143900004Y-92605565D01*
X144079249Y-92585369D01*
X144079252Y-92585368D01*
X144079255Y-92585368D01*
X144249522Y-92525789D01*
X144402262Y-92429816D01*
X144529816Y-92302262D01*
X144625789Y-92149522D01*
X144685368Y-91979255D01*
X144685369Y-91979249D01*
X144705565Y-91800003D01*
X144705565Y-91799996D01*
X144685369Y-91620750D01*
X144685368Y-91620745D01*
X144641170Y-91494435D01*
X144625789Y-91450478D01*
X144607106Y-91420745D01*
X144562955Y-91350478D01*
X144529816Y-91297738D01*
X144402262Y-91170184D01*
X144297988Y-91104664D01*
X144249523Y-91074211D01*
X144079254Y-91014631D01*
X144079249Y-91014630D01*
X143900004Y-90994435D01*
X143899996Y-90994435D01*
X143720750Y-91014630D01*
X143720745Y-91014631D01*
X143550476Y-91074211D01*
X143397737Y-91170184D01*
X143270184Y-91297737D01*
X143174211Y-91450476D01*
X143114631Y-91620745D01*
X143114630Y-91620750D01*
X143094435Y-91799996D01*
X140994069Y-91799996D01*
X140931237Y-91700000D01*
X140929816Y-91697738D01*
X140802262Y-91570184D01*
X140649523Y-91474211D01*
X140479254Y-91414631D01*
X140479249Y-91414630D01*
X140300004Y-91394435D01*
X140299996Y-91394435D01*
X140120750Y-91414630D01*
X140120745Y-91414631D01*
X139950476Y-91474211D01*
X139797737Y-91570184D01*
X139670184Y-91697737D01*
X139574211Y-91850476D01*
X139514631Y-92020745D01*
X139514630Y-92020750D01*
X139494435Y-92199996D01*
X137094298Y-92199996D01*
X137085369Y-92120750D01*
X137085368Y-92120745D01*
X137080858Y-92107855D01*
X137025789Y-91950478D01*
X137025188Y-91949522D01*
X136962955Y-91850478D01*
X136929816Y-91797738D01*
X136802262Y-91670184D01*
X136649523Y-91574211D01*
X136479254Y-91514631D01*
X136479249Y-91514630D01*
X136300004Y-91494435D01*
X136299996Y-91494435D01*
X136120750Y-91514630D01*
X136120745Y-91514631D01*
X135950476Y-91574211D01*
X135797737Y-91670184D01*
X135670184Y-91797737D01*
X135574211Y-91950476D01*
X135514631Y-92120745D01*
X135514630Y-92120750D01*
X135494435Y-92299996D01*
X132232074Y-92299996D01*
X132202262Y-92270184D01*
X132099422Y-92205565D01*
X132049523Y-92174211D01*
X131879254Y-92114631D01*
X131879249Y-92114630D01*
X131700004Y-92094435D01*
X131699996Y-92094435D01*
X131520746Y-92114631D01*
X131520745Y-92114631D01*
X131451033Y-92139024D01*
X131381254Y-92142585D01*
X131320628Y-92107855D01*
X131305086Y-92087954D01*
X131279816Y-92047738D01*
X131269428Y-92037350D01*
X131235943Y-91976027D01*
X131240067Y-91908715D01*
X131278109Y-91800000D01*
X131285367Y-91779259D01*
X131285369Y-91779249D01*
X131305565Y-91600003D01*
X131305565Y-91599996D01*
X131285369Y-91420750D01*
X131285368Y-91420745D01*
X131265300Y-91363393D01*
X131225789Y-91250478D01*
X131207106Y-91220745D01*
X131129815Y-91097737D01*
X131002262Y-90970184D01*
X130849523Y-90874211D01*
X130679254Y-90814631D01*
X130679249Y-90814630D01*
X130500004Y-90794435D01*
X130499996Y-90794435D01*
X130320750Y-90814630D01*
X130320745Y-90814631D01*
X130150476Y-90874211D01*
X129997737Y-90970184D01*
X129870184Y-91097737D01*
X129774211Y-91250476D01*
X129714631Y-91420745D01*
X129714630Y-91420750D01*
X129694435Y-91599996D01*
X124994298Y-91599996D01*
X124985369Y-91520750D01*
X124985368Y-91520745D01*
X124969085Y-91474211D01*
X124925789Y-91350478D01*
X124893520Y-91299123D01*
X124862955Y-91250478D01*
X124829816Y-91197738D01*
X124702262Y-91070184D01*
X124613852Y-91014632D01*
X124549523Y-90974211D01*
X124379254Y-90914631D01*
X124379249Y-90914630D01*
X124200004Y-90894435D01*
X124199996Y-90894435D01*
X124020750Y-90914630D01*
X124020745Y-90914631D01*
X123850476Y-90974211D01*
X123697737Y-91070184D01*
X123570184Y-91197737D01*
X123474211Y-91350476D01*
X123414631Y-91520745D01*
X123414630Y-91520750D01*
X123394435Y-91699996D01*
X118143119Y-91699996D01*
X118185368Y-91579255D01*
X118185369Y-91579249D01*
X118205565Y-91400003D01*
X118205565Y-91399996D01*
X118185369Y-91220750D01*
X118185368Y-91220745D01*
X118125789Y-91050478D01*
X118103265Y-91014632D01*
X118050012Y-90929880D01*
X118029816Y-90897738D01*
X117902262Y-90770184D01*
X117900150Y-90768857D01*
X117749523Y-90674211D01*
X117579254Y-90614631D01*
X117579249Y-90614630D01*
X117400004Y-90594435D01*
X117399996Y-90594435D01*
X117220750Y-90614630D01*
X117220745Y-90614631D01*
X117050476Y-90674211D01*
X116897737Y-90770184D01*
X116770184Y-90897737D01*
X116674211Y-91050476D01*
X116614631Y-91220745D01*
X116614630Y-91220750D01*
X116594435Y-91399996D01*
X106140229Y-91399996D01*
X106124173Y-91363393D01*
X105988166Y-91155217D01*
X105941633Y-91104669D01*
X105819744Y-90972262D01*
X105736991Y-90907852D01*
X105696179Y-90851143D01*
X105692504Y-90781370D01*
X105727136Y-90720687D01*
X105736985Y-90712151D01*
X105819744Y-90647738D01*
X105988164Y-90464785D01*
X106124173Y-90256607D01*
X106224063Y-90028881D01*
X106285108Y-89787821D01*
X106285818Y-89779254D01*
X106305643Y-89540005D01*
X106305643Y-89539994D01*
X106285756Y-89299996D01*
X118794435Y-89299996D01*
X118794435Y-89300003D01*
X118814630Y-89479249D01*
X118814631Y-89479254D01*
X118874211Y-89649523D01*
X118909425Y-89705565D01*
X118970184Y-89802262D01*
X119097738Y-89929816D01*
X119250478Y-90025789D01*
X119420745Y-90085368D01*
X119420750Y-90085369D01*
X119599996Y-90105565D01*
X119600000Y-90105565D01*
X119600004Y-90105565D01*
X119779249Y-90085369D01*
X119779252Y-90085368D01*
X119779255Y-90085368D01*
X119949522Y-90025789D01*
X120102262Y-89929816D01*
X120229816Y-89802262D01*
X120325789Y-89649522D01*
X120343119Y-89599996D01*
X131694435Y-89599996D01*
X131694435Y-89600003D01*
X131714630Y-89779249D01*
X131714631Y-89779254D01*
X131774211Y-89949523D01*
X131859569Y-90085368D01*
X131870184Y-90102262D01*
X131997738Y-90229816D01*
X132150478Y-90325789D01*
X132320745Y-90385368D01*
X132320750Y-90385369D01*
X132499996Y-90405565D01*
X132500000Y-90405565D01*
X132500004Y-90405565D01*
X132679249Y-90385369D01*
X132679252Y-90385368D01*
X132679255Y-90385368D01*
X132849522Y-90325789D01*
X133002262Y-90229816D01*
X133129816Y-90102262D01*
X133225789Y-89949522D01*
X133285368Y-89779255D01*
X133286642Y-89767951D01*
X133305565Y-89600003D01*
X133305565Y-89599996D01*
X133285369Y-89420750D01*
X133285368Y-89420745D01*
X133279094Y-89402815D01*
X133225789Y-89250478D01*
X133225188Y-89249522D01*
X133129815Y-89097737D01*
X133002262Y-88970184D01*
X132890559Y-88899996D01*
X139868435Y-88899996D01*
X139868435Y-88900003D01*
X139888630Y-89079249D01*
X139888631Y-89079254D01*
X139948211Y-89249523D01*
X139975014Y-89292179D01*
X140044184Y-89402262D01*
X140171738Y-89529816D01*
X140187946Y-89540000D01*
X140282712Y-89599546D01*
X140324478Y-89625789D01*
X140392306Y-89649523D01*
X140494745Y-89685368D01*
X140494750Y-89685369D01*
X140673996Y-89705565D01*
X140674000Y-89705565D01*
X140674004Y-89705565D01*
X140853249Y-89685369D01*
X140853252Y-89685368D01*
X140853255Y-89685368D01*
X141023522Y-89625789D01*
X141176262Y-89529816D01*
X141303816Y-89402262D01*
X141399789Y-89249522D01*
X141459368Y-89079255D01*
X141462538Y-89051119D01*
X141479565Y-88900003D01*
X141479565Y-88899996D01*
X141459369Y-88720750D01*
X141459368Y-88720745D01*
X141422441Y-88615215D01*
X141399789Y-88550478D01*
X141377265Y-88514632D01*
X141325508Y-88432261D01*
X141303816Y-88397738D01*
X141176262Y-88270184D01*
X141110491Y-88228857D01*
X141023523Y-88174211D01*
X140853254Y-88114631D01*
X140853249Y-88114630D01*
X140674004Y-88094435D01*
X140673996Y-88094435D01*
X140494750Y-88114630D01*
X140494745Y-88114631D01*
X140324476Y-88174211D01*
X140171737Y-88270184D01*
X140044184Y-88397737D01*
X139948211Y-88550476D01*
X139888631Y-88720745D01*
X139888630Y-88720750D01*
X139868435Y-88899996D01*
X132890559Y-88899996D01*
X132849523Y-88874211D01*
X132679254Y-88814631D01*
X132679249Y-88814630D01*
X132500004Y-88794435D01*
X132499996Y-88794435D01*
X132320750Y-88814630D01*
X132320745Y-88814631D01*
X132150476Y-88874211D01*
X131997737Y-88970184D01*
X131870184Y-89097737D01*
X131774211Y-89250476D01*
X131714631Y-89420745D01*
X131714630Y-89420750D01*
X131694435Y-89599996D01*
X120343119Y-89599996D01*
X120385368Y-89479255D01*
X120391960Y-89420750D01*
X120405565Y-89300003D01*
X120405565Y-89299996D01*
X120385369Y-89120750D01*
X120385368Y-89120745D01*
X120325789Y-88950478D01*
X120229816Y-88797738D01*
X120205074Y-88772996D01*
X123908435Y-88772996D01*
X123908435Y-88773003D01*
X123928630Y-88952249D01*
X123928631Y-88952254D01*
X123988211Y-89122523D01*
X124068010Y-89249522D01*
X124084184Y-89275262D01*
X124211738Y-89402816D01*
X124240272Y-89420745D01*
X124341474Y-89484335D01*
X124364478Y-89498789D01*
X124482267Y-89540005D01*
X124534745Y-89558368D01*
X124534750Y-89558369D01*
X124713996Y-89578565D01*
X124714000Y-89578565D01*
X124714004Y-89578565D01*
X124893249Y-89558369D01*
X124893252Y-89558368D01*
X124893255Y-89558368D01*
X125063522Y-89498789D01*
X125216262Y-89402816D01*
X125343816Y-89275262D01*
X125439789Y-89122522D01*
X125499368Y-88952255D01*
X125499369Y-88952249D01*
X125519565Y-88773003D01*
X125519565Y-88772996D01*
X125499369Y-88593750D01*
X125499368Y-88593745D01*
X125484228Y-88550478D01*
X125439789Y-88423478D01*
X125423615Y-88397738D01*
X125369204Y-88311143D01*
X125343816Y-88270738D01*
X125216262Y-88143184D01*
X125170822Y-88114632D01*
X125063523Y-88047211D01*
X124893254Y-87987631D01*
X124893249Y-87987630D01*
X124714004Y-87967435D01*
X124713996Y-87967435D01*
X124534750Y-87987630D01*
X124534745Y-87987631D01*
X124364476Y-88047211D01*
X124211737Y-88143184D01*
X124084184Y-88270737D01*
X123988211Y-88423476D01*
X123928631Y-88593745D01*
X123928630Y-88593750D01*
X123908435Y-88772996D01*
X120205074Y-88772996D01*
X120102262Y-88670184D01*
X120014783Y-88615217D01*
X119949523Y-88574211D01*
X119779254Y-88514631D01*
X119779249Y-88514630D01*
X119600004Y-88494435D01*
X119599996Y-88494435D01*
X119420750Y-88514630D01*
X119420745Y-88514631D01*
X119250476Y-88574211D01*
X119097737Y-88670184D01*
X118970184Y-88797737D01*
X118874211Y-88950476D01*
X118814631Y-89120745D01*
X118814630Y-89120750D01*
X118794435Y-89299996D01*
X106285756Y-89299996D01*
X106285109Y-89292187D01*
X106285107Y-89292175D01*
X106224063Y-89051118D01*
X106124173Y-88823393D01*
X105988166Y-88615217D01*
X105928569Y-88550478D01*
X105819744Y-88432262D01*
X105736991Y-88367852D01*
X105696179Y-88311143D01*
X105692504Y-88241370D01*
X105727136Y-88180687D01*
X105736985Y-88172151D01*
X105819744Y-88107738D01*
X105988164Y-87924785D01*
X106124173Y-87716607D01*
X106224063Y-87488881D01*
X106285108Y-87247821D01*
X106288646Y-87205127D01*
X106297357Y-87099996D01*
X113294435Y-87099996D01*
X113294435Y-87100003D01*
X113314630Y-87279249D01*
X113314631Y-87279254D01*
X113374211Y-87449523D01*
X113402239Y-87494129D01*
X113470184Y-87602262D01*
X113597738Y-87729816D01*
X113750478Y-87825789D01*
X113899180Y-87877822D01*
X113920745Y-87885368D01*
X113920750Y-87885369D01*
X114099996Y-87905565D01*
X114100000Y-87905565D01*
X114100004Y-87905565D01*
X114279249Y-87885369D01*
X114279252Y-87885368D01*
X114279255Y-87885368D01*
X114449522Y-87825789D01*
X114602262Y-87729816D01*
X114729816Y-87602262D01*
X114825789Y-87449522D01*
X114885368Y-87279255D01*
X114885759Y-87275788D01*
X114905565Y-87100003D01*
X114905565Y-87099996D01*
X114885369Y-86920750D01*
X114885368Y-86920745D01*
X114825788Y-86750476D01*
X114764419Y-86652808D01*
X114729816Y-86597738D01*
X114682074Y-86549996D01*
X133444435Y-86549996D01*
X133444435Y-86550003D01*
X133464630Y-86729249D01*
X133464631Y-86729254D01*
X133524211Y-86899523D01*
X133587349Y-87000005D01*
X133620184Y-87052262D01*
X133747738Y-87179816D01*
X133900478Y-87275789D01*
X133968729Y-87299671D01*
X134070745Y-87335368D01*
X134070750Y-87335369D01*
X134249996Y-87355565D01*
X134250000Y-87355565D01*
X134250004Y-87355565D01*
X134429249Y-87335369D01*
X134429252Y-87335368D01*
X134429255Y-87335368D01*
X134599522Y-87275789D01*
X134752262Y-87179816D01*
X134879816Y-87052262D01*
X134975789Y-86899522D01*
X135035368Y-86729255D01*
X135035968Y-86723931D01*
X135055565Y-86550003D01*
X135055565Y-86549996D01*
X135035369Y-86370750D01*
X135035368Y-86370745D01*
X135015733Y-86314631D01*
X134975789Y-86200478D01*
X134966295Y-86185369D01*
X134918587Y-86109442D01*
X134879816Y-86047738D01*
X134752262Y-85920184D01*
X134736788Y-85910461D01*
X134599523Y-85824211D01*
X134429254Y-85764631D01*
X134429249Y-85764630D01*
X134250004Y-85744435D01*
X134249996Y-85744435D01*
X134070750Y-85764630D01*
X134070745Y-85764631D01*
X133900476Y-85824211D01*
X133747737Y-85920184D01*
X133620184Y-86047737D01*
X133524211Y-86200476D01*
X133464631Y-86370745D01*
X133464630Y-86370750D01*
X133444435Y-86549996D01*
X114682074Y-86549996D01*
X114602262Y-86470184D01*
X114522788Y-86420247D01*
X114449523Y-86374211D01*
X114279254Y-86314631D01*
X114279249Y-86314630D01*
X114100004Y-86294435D01*
X114099996Y-86294435D01*
X113920750Y-86314630D01*
X113920745Y-86314631D01*
X113750476Y-86374211D01*
X113597737Y-86470184D01*
X113470184Y-86597737D01*
X113374211Y-86750476D01*
X113314631Y-86920745D01*
X113314630Y-86920750D01*
X113294435Y-87099996D01*
X106297357Y-87099996D01*
X106305643Y-87000005D01*
X106305643Y-86999994D01*
X106285109Y-86752187D01*
X106285107Y-86752175D01*
X106224063Y-86511118D01*
X106124173Y-86283393D01*
X105988166Y-86075217D01*
X105946370Y-86029815D01*
X105819744Y-85892262D01*
X105623509Y-85739526D01*
X105623507Y-85739525D01*
X105623506Y-85739524D01*
X105404811Y-85621172D01*
X105404802Y-85621169D01*
X105169616Y-85540429D01*
X104924335Y-85499500D01*
X104675665Y-85499500D01*
X104430383Y-85540429D01*
X104195197Y-85621169D01*
X104195188Y-85621172D01*
X103976493Y-85739524D01*
X103780257Y-85892261D01*
X103611833Y-86075217D01*
X103475826Y-86283393D01*
X103375936Y-86511118D01*
X103314892Y-86752175D01*
X103314890Y-86752187D01*
X103294357Y-86999994D01*
X100216251Y-86999994D01*
X100194566Y-86941853D01*
X100209418Y-86873580D01*
X100230563Y-86845332D01*
X100352495Y-86723401D01*
X100488035Y-86529830D01*
X100587903Y-86315663D01*
X100649063Y-86087408D01*
X100669659Y-85852000D01*
X100649063Y-85616592D01*
X100591027Y-85399996D01*
X115694435Y-85399996D01*
X115694435Y-85400003D01*
X115714630Y-85579249D01*
X115714631Y-85579254D01*
X115774211Y-85749523D01*
X115838602Y-85852000D01*
X115870184Y-85902262D01*
X115997738Y-86029816D01*
X116150478Y-86125789D01*
X116270776Y-86167883D01*
X116320745Y-86185368D01*
X116320750Y-86185369D01*
X116499996Y-86205565D01*
X116500000Y-86205565D01*
X116500004Y-86205565D01*
X116679249Y-86185369D01*
X116679252Y-86185368D01*
X116679255Y-86185368D01*
X116849522Y-86125789D01*
X117002262Y-86029816D01*
X117129816Y-85902262D01*
X117225789Y-85749522D01*
X117285368Y-85579255D01*
X117305565Y-85400000D01*
X117305564Y-85399995D01*
X117289549Y-85257849D01*
X117301603Y-85189028D01*
X117348953Y-85137648D01*
X117416563Y-85120024D01*
X117453724Y-85126925D01*
X117620737Y-85185366D01*
X117620743Y-85185367D01*
X117620745Y-85185368D01*
X117620746Y-85185368D01*
X117620750Y-85185369D01*
X117799996Y-85205565D01*
X117800000Y-85205565D01*
X117800003Y-85205565D01*
X117907462Y-85193457D01*
X117965896Y-85186873D01*
X118034718Y-85198927D01*
X118086098Y-85246276D01*
X118103722Y-85313887D01*
X118103000Y-85323976D01*
X118094435Y-85399995D01*
X118094435Y-85400003D01*
X118114630Y-85579249D01*
X118114631Y-85579254D01*
X118174211Y-85749523D01*
X118238602Y-85852000D01*
X118270184Y-85902262D01*
X118397738Y-86029816D01*
X118550478Y-86125789D01*
X118670776Y-86167883D01*
X118720745Y-86185368D01*
X118720750Y-86185369D01*
X118899996Y-86205565D01*
X118900000Y-86205565D01*
X118900004Y-86205565D01*
X119079249Y-86185369D01*
X119079252Y-86185368D01*
X119079255Y-86185368D01*
X119249522Y-86125789D01*
X119402262Y-86029816D01*
X119529816Y-85902262D01*
X119625789Y-85749522D01*
X119685368Y-85579255D01*
X119705565Y-85400000D01*
X119705564Y-85399995D01*
X119685369Y-85220750D01*
X119685368Y-85220745D01*
X119625788Y-85050476D01*
X119534734Y-84905565D01*
X119529816Y-84897738D01*
X119482078Y-84850000D01*
X120100000Y-84850000D01*
X122190000Y-84850000D01*
X122190000Y-84099996D01*
X133794435Y-84099996D01*
X133794435Y-84100003D01*
X133814630Y-84279249D01*
X133814631Y-84279254D01*
X133874211Y-84449523D01*
X133965266Y-84594435D01*
X133970184Y-84602262D01*
X134097738Y-84729816D01*
X134129100Y-84749522D01*
X134242450Y-84820745D01*
X134250478Y-84825789D01*
X134420745Y-84885368D01*
X134420750Y-84885369D01*
X134599996Y-84905565D01*
X134600000Y-84905565D01*
X134600004Y-84905565D01*
X134779249Y-84885369D01*
X134779252Y-84885368D01*
X134779255Y-84885368D01*
X134949522Y-84825789D01*
X135102262Y-84729816D01*
X135229816Y-84602262D01*
X135301152Y-84488731D01*
X136305700Y-84488731D01*
X136305700Y-84488738D01*
X136325895Y-84667984D01*
X136325896Y-84667989D01*
X136385476Y-84838258D01*
X136422850Y-84897738D01*
X136481449Y-84990997D01*
X136609003Y-85118551D01*
X136639396Y-85137648D01*
X136736920Y-85198927D01*
X136761743Y-85214524D01*
X136852485Y-85246276D01*
X136932010Y-85274103D01*
X136932015Y-85274104D01*
X137111261Y-85294300D01*
X137111265Y-85294300D01*
X137111269Y-85294300D01*
X137290514Y-85274104D01*
X137290517Y-85274103D01*
X137290520Y-85274103D01*
X137460787Y-85214524D01*
X137613527Y-85118551D01*
X137741081Y-84990997D01*
X137837054Y-84838257D01*
X137896633Y-84667990D01*
X137896761Y-84666855D01*
X137916830Y-84488738D01*
X137916830Y-84488731D01*
X137896634Y-84309485D01*
X137896633Y-84309480D01*
X137865583Y-84220745D01*
X137837054Y-84139213D01*
X137826363Y-84122199D01*
X137781297Y-84050476D01*
X137741081Y-83986473D01*
X137613527Y-83858919D01*
X137567210Y-83829816D01*
X137460788Y-83762946D01*
X137290519Y-83703366D01*
X137290514Y-83703365D01*
X137111269Y-83683170D01*
X137111261Y-83683170D01*
X136932015Y-83703365D01*
X136932010Y-83703366D01*
X136761741Y-83762946D01*
X136609002Y-83858919D01*
X136481449Y-83986472D01*
X136385476Y-84139211D01*
X136325896Y-84309480D01*
X136325895Y-84309485D01*
X136305700Y-84488731D01*
X135301152Y-84488731D01*
X135325789Y-84449522D01*
X135385368Y-84279255D01*
X135385369Y-84279249D01*
X135405565Y-84100003D01*
X135405565Y-84099996D01*
X135385369Y-83920750D01*
X135385368Y-83920745D01*
X135380056Y-83905565D01*
X135325789Y-83750478D01*
X135229816Y-83597738D01*
X135218074Y-83585996D01*
X143339435Y-83585996D01*
X143339435Y-83586003D01*
X143359630Y-83765246D01*
X143359631Y-83765254D01*
X143419211Y-83935523D01*
X143515184Y-84088262D01*
X143642738Y-84215816D01*
X143795478Y-84311789D01*
X143906102Y-84350498D01*
X143965745Y-84371368D01*
X143965750Y-84371369D01*
X144034715Y-84379139D01*
X144099129Y-84406205D01*
X144138685Y-84463799D01*
X144140824Y-84533636D01*
X144125827Y-84568331D01*
X144074211Y-84650476D01*
X144014631Y-84820745D01*
X144014630Y-84820750D01*
X143994435Y-84999996D01*
X143994435Y-85000003D01*
X144014630Y-85179249D01*
X144014631Y-85179254D01*
X144074211Y-85349523D01*
X144105925Y-85399995D01*
X144170184Y-85502262D01*
X144297738Y-85629816D01*
X144450478Y-85725789D01*
X144518306Y-85749523D01*
X144620745Y-85785368D01*
X144620750Y-85785369D01*
X144799996Y-85805565D01*
X144800000Y-85805565D01*
X144800004Y-85805565D01*
X144979249Y-85785369D01*
X144979252Y-85785368D01*
X144979255Y-85785368D01*
X145149522Y-85725789D01*
X145302262Y-85629816D01*
X145429816Y-85502262D01*
X145525789Y-85349522D01*
X145585368Y-85179255D01*
X145591264Y-85126925D01*
X145605565Y-85000003D01*
X145605565Y-84999996D01*
X145585369Y-84820750D01*
X145585368Y-84820745D01*
X145560446Y-84749522D01*
X145525789Y-84650478D01*
X145503265Y-84614632D01*
X145481037Y-84579255D01*
X145429816Y-84497738D01*
X145302262Y-84370184D01*
X145270924Y-84350493D01*
X145149523Y-84274211D01*
X144979254Y-84214631D01*
X144979250Y-84214630D01*
X144910282Y-84206860D01*
X144845868Y-84179793D01*
X144806313Y-84122199D01*
X144804176Y-84052362D01*
X144819171Y-84017671D01*
X144870789Y-83935522D01*
X144930368Y-83765255D01*
X144930368Y-83765253D01*
X144930370Y-83765246D01*
X144950565Y-83586003D01*
X144950565Y-83585996D01*
X144930369Y-83406750D01*
X144930368Y-83406745D01*
X144898136Y-83314631D01*
X144870789Y-83236478D01*
X144774816Y-83083738D01*
X144647262Y-82956184D01*
X144601233Y-82927262D01*
X144494523Y-82860211D01*
X144324254Y-82800631D01*
X144324249Y-82800630D01*
X144145004Y-82780435D01*
X144144996Y-82780435D01*
X143965750Y-82800630D01*
X143965745Y-82800631D01*
X143795476Y-82860211D01*
X143642737Y-82956184D01*
X143515184Y-83083737D01*
X143419211Y-83236476D01*
X143359631Y-83406745D01*
X143359630Y-83406750D01*
X143339435Y-83585996D01*
X135218074Y-83585996D01*
X135102262Y-83470184D01*
X134949523Y-83374211D01*
X134779254Y-83314631D01*
X134779249Y-83314630D01*
X134600004Y-83294435D01*
X134599996Y-83294435D01*
X134420750Y-83314630D01*
X134420745Y-83314631D01*
X134250476Y-83374211D01*
X134097737Y-83470184D01*
X133970184Y-83597737D01*
X133874211Y-83750476D01*
X133814631Y-83920745D01*
X133814630Y-83920750D01*
X133794435Y-84099996D01*
X122190000Y-84099996D01*
X122190000Y-82950000D01*
X120100000Y-82950000D01*
X120100000Y-84850000D01*
X119482078Y-84850000D01*
X119402262Y-84770184D01*
X119338017Y-84729816D01*
X119249523Y-84674211D01*
X119079254Y-84614631D01*
X119079249Y-84614630D01*
X118900004Y-84594435D01*
X118899996Y-84594435D01*
X118734102Y-84613126D01*
X118665280Y-84601071D01*
X118613901Y-84553722D01*
X118596277Y-84486112D01*
X118596998Y-84476034D01*
X118605565Y-84400000D01*
X118602735Y-84374885D01*
X118585369Y-84220750D01*
X118585367Y-84220740D01*
X118557670Y-84141589D01*
X118554107Y-84071810D01*
X118588836Y-84011182D01*
X118650829Y-83978955D01*
X118715664Y-83983591D01*
X118720738Y-83985366D01*
X118720742Y-83985367D01*
X118720745Y-83985368D01*
X118720746Y-83985368D01*
X118720750Y-83985369D01*
X118899996Y-84005565D01*
X118900000Y-84005565D01*
X118900004Y-84005565D01*
X119079249Y-83985369D01*
X119079252Y-83985368D01*
X119079255Y-83985368D01*
X119249522Y-83925789D01*
X119402262Y-83829816D01*
X119529816Y-83702262D01*
X119625789Y-83549522D01*
X119685368Y-83379255D01*
X119685369Y-83379249D01*
X119705565Y-83200003D01*
X119705565Y-83199996D01*
X119685369Y-83020750D01*
X119685368Y-83020745D01*
X119650376Y-82920745D01*
X119625789Y-82850478D01*
X119624442Y-82848335D01*
X119566920Y-82756789D01*
X119529816Y-82697738D01*
X119402262Y-82570184D01*
X119343501Y-82533262D01*
X119249523Y-82474211D01*
X119079254Y-82414631D01*
X119079249Y-82414630D01*
X118900004Y-82394435D01*
X118899996Y-82394435D01*
X118720750Y-82414630D01*
X118720745Y-82414631D01*
X118550476Y-82474211D01*
X118397737Y-82570184D01*
X118270184Y-82697737D01*
X118174211Y-82850476D01*
X118114631Y-83020745D01*
X118114630Y-83020750D01*
X118094435Y-83199996D01*
X118094435Y-83200003D01*
X118114630Y-83379249D01*
X118114633Y-83379262D01*
X118142329Y-83458411D01*
X118145891Y-83528190D01*
X118111163Y-83588817D01*
X118049169Y-83621045D01*
X117984341Y-83616410D01*
X117979265Y-83614634D01*
X117979249Y-83614630D01*
X117800004Y-83594435D01*
X117799996Y-83594435D01*
X117620750Y-83614630D01*
X117620745Y-83614631D01*
X117450476Y-83674211D01*
X117297737Y-83770184D01*
X117170184Y-83897737D01*
X117074211Y-84050476D01*
X117014631Y-84220745D01*
X117014630Y-84220750D01*
X116994435Y-84399996D01*
X116994435Y-84400004D01*
X117010450Y-84542150D01*
X116998395Y-84610972D01*
X116951046Y-84662351D01*
X116883435Y-84679975D01*
X116846275Y-84673074D01*
X116679262Y-84614633D01*
X116679249Y-84614630D01*
X116500004Y-84594435D01*
X116499996Y-84594435D01*
X116320750Y-84614630D01*
X116320745Y-84614631D01*
X116150476Y-84674211D01*
X115997737Y-84770184D01*
X115870184Y-84897737D01*
X115774211Y-85050476D01*
X115714631Y-85220745D01*
X115714630Y-85220750D01*
X115694435Y-85399996D01*
X100591027Y-85399996D01*
X100587903Y-85388337D01*
X100488035Y-85174171D01*
X100462462Y-85137648D01*
X100352494Y-84980597D01*
X100185402Y-84813506D01*
X100185396Y-84813501D01*
X99999842Y-84683575D01*
X99956217Y-84628998D01*
X99949023Y-84559500D01*
X99980546Y-84497145D01*
X99999842Y-84480425D01*
X100105839Y-84406205D01*
X100185401Y-84350495D01*
X100352495Y-84183401D01*
X100488035Y-83989830D01*
X100587903Y-83775663D01*
X100649063Y-83547408D01*
X100669659Y-83312000D01*
X100651111Y-83099996D01*
X102294435Y-83099996D01*
X102294435Y-83100003D01*
X102314630Y-83279249D01*
X102314631Y-83279254D01*
X102374211Y-83449523D01*
X102423641Y-83528190D01*
X102470184Y-83602262D01*
X102597738Y-83729816D01*
X102750478Y-83825789D01*
X102761984Y-83829815D01*
X102920745Y-83885368D01*
X102920750Y-83885369D01*
X103099996Y-83905565D01*
X103100000Y-83905565D01*
X103100004Y-83905565D01*
X103279249Y-83885369D01*
X103279252Y-83885368D01*
X103279255Y-83885368D01*
X103449522Y-83825789D01*
X103602262Y-83729816D01*
X103729816Y-83602262D01*
X103825789Y-83449522D01*
X103885368Y-83279255D01*
X103893130Y-83210368D01*
X103905565Y-83100003D01*
X103905565Y-83099996D01*
X108694435Y-83099996D01*
X108694435Y-83100003D01*
X108714630Y-83279249D01*
X108714631Y-83279254D01*
X108774211Y-83449523D01*
X108823641Y-83528190D01*
X108870184Y-83602262D01*
X108997738Y-83729816D01*
X109150478Y-83825789D01*
X109161984Y-83829815D01*
X109320745Y-83885368D01*
X109320750Y-83885369D01*
X109499996Y-83905565D01*
X109500000Y-83905565D01*
X109500004Y-83905565D01*
X109679249Y-83885369D01*
X109679252Y-83885368D01*
X109679255Y-83885368D01*
X109849522Y-83825789D01*
X110002262Y-83729816D01*
X110129816Y-83602262D01*
X110225789Y-83449522D01*
X110285368Y-83279255D01*
X110293130Y-83210368D01*
X110305565Y-83100003D01*
X110305565Y-83099996D01*
X112494435Y-83099996D01*
X112494435Y-83100003D01*
X112514630Y-83279249D01*
X112514631Y-83279254D01*
X112574211Y-83449523D01*
X112623641Y-83528190D01*
X112670184Y-83602262D01*
X112797738Y-83729816D01*
X112950478Y-83825789D01*
X112961984Y-83829815D01*
X113120745Y-83885368D01*
X113120750Y-83885369D01*
X113299996Y-83905565D01*
X113300000Y-83905565D01*
X113300004Y-83905565D01*
X113479249Y-83885369D01*
X113479252Y-83885368D01*
X113479255Y-83885368D01*
X113649522Y-83825789D01*
X113802262Y-83729816D01*
X113929816Y-83602262D01*
X114025789Y-83449522D01*
X114085368Y-83279255D01*
X114093130Y-83210368D01*
X114105565Y-83100003D01*
X114105565Y-83099996D01*
X114085369Y-82920750D01*
X114085368Y-82920745D01*
X114064186Y-82860211D01*
X114025789Y-82750478D01*
X113929816Y-82597738D01*
X113802262Y-82470184D01*
X113755175Y-82440597D01*
X113649523Y-82374211D01*
X113479254Y-82314631D01*
X113479249Y-82314630D01*
X113300004Y-82294435D01*
X113299996Y-82294435D01*
X113120750Y-82314630D01*
X113120745Y-82314631D01*
X112950476Y-82374211D01*
X112797737Y-82470184D01*
X112670184Y-82597737D01*
X112574211Y-82750476D01*
X112514631Y-82920745D01*
X112514630Y-82920750D01*
X112494435Y-83099996D01*
X110305565Y-83099996D01*
X110285369Y-82920750D01*
X110285368Y-82920745D01*
X110264186Y-82860211D01*
X110225789Y-82750478D01*
X110129816Y-82597738D01*
X110002262Y-82470184D01*
X109955175Y-82440597D01*
X109849523Y-82374211D01*
X109679254Y-82314631D01*
X109679249Y-82314630D01*
X109500004Y-82294435D01*
X109499996Y-82294435D01*
X109320750Y-82314630D01*
X109320745Y-82314631D01*
X109150476Y-82374211D01*
X108997737Y-82470184D01*
X108870184Y-82597737D01*
X108774211Y-82750476D01*
X108714631Y-82920745D01*
X108714630Y-82920750D01*
X108694435Y-83099996D01*
X103905565Y-83099996D01*
X103885369Y-82920750D01*
X103885368Y-82920745D01*
X103864186Y-82860211D01*
X103825789Y-82750478D01*
X103729816Y-82597738D01*
X103602262Y-82470184D01*
X103555175Y-82440597D01*
X103449523Y-82374211D01*
X103279254Y-82314631D01*
X103279249Y-82314630D01*
X103100004Y-82294435D01*
X103099996Y-82294435D01*
X102920750Y-82314630D01*
X102920745Y-82314631D01*
X102750476Y-82374211D01*
X102597737Y-82470184D01*
X102470184Y-82597737D01*
X102374211Y-82750476D01*
X102314631Y-82920745D01*
X102314630Y-82920750D01*
X102294435Y-83099996D01*
X100651111Y-83099996D01*
X100649063Y-83076592D01*
X100587903Y-82848337D01*
X100488035Y-82634171D01*
X100467085Y-82604250D01*
X100352494Y-82440597D01*
X100185402Y-82273506D01*
X100185401Y-82273505D01*
X99999405Y-82143269D01*
X99955781Y-82088692D01*
X99948588Y-82019193D01*
X99980110Y-81956839D01*
X99999405Y-81940119D01*
X100185082Y-81810105D01*
X100352105Y-81643082D01*
X100487600Y-81449578D01*
X100557351Y-81299996D01*
X106694435Y-81299996D01*
X106694435Y-81300003D01*
X106714630Y-81479249D01*
X106714631Y-81479254D01*
X106774211Y-81649523D01*
X106828184Y-81735420D01*
X106870184Y-81802262D01*
X106997738Y-81929816D01*
X107040745Y-81956839D01*
X107139980Y-82019193D01*
X107150478Y-82025789D01*
X107260236Y-82064195D01*
X107320745Y-82085368D01*
X107320750Y-82085369D01*
X107499996Y-82105565D01*
X107500000Y-82105565D01*
X107500004Y-82105565D01*
X107679249Y-82085369D01*
X107679252Y-82085368D01*
X107679255Y-82085368D01*
X107849522Y-82025789D01*
X108002262Y-81929816D01*
X108129816Y-81802262D01*
X108225789Y-81649522D01*
X108285368Y-81479255D01*
X108289536Y-81442262D01*
X108305565Y-81300003D01*
X108305565Y-81299996D01*
X108285369Y-81120750D01*
X108285368Y-81120745D01*
X108280056Y-81105565D01*
X108243116Y-80999996D01*
X110194435Y-80999996D01*
X110194435Y-81000003D01*
X110214630Y-81179249D01*
X110214631Y-81179254D01*
X110274211Y-81349523D01*
X110324662Y-81429815D01*
X110370184Y-81502262D01*
X110497738Y-81629816D01*
X110579954Y-81681476D01*
X110649809Y-81725369D01*
X110650478Y-81725789D01*
X110706995Y-81745565D01*
X110820745Y-81785368D01*
X110820750Y-81785369D01*
X110999996Y-81805565D01*
X111000000Y-81805565D01*
X111000004Y-81805565D01*
X111179249Y-81785369D01*
X111179252Y-81785368D01*
X111179255Y-81785368D01*
X111349522Y-81725789D01*
X111502262Y-81629816D01*
X111629816Y-81502262D01*
X111725789Y-81349522D01*
X111785368Y-81179255D01*
X111785368Y-81179254D01*
X111787668Y-81172682D01*
X111789273Y-81173243D01*
X111819096Y-81119915D01*
X111880755Y-81087052D01*
X111919771Y-81085258D01*
X111920743Y-81085367D01*
X111920745Y-81085368D01*
X111981488Y-81092212D01*
X112099997Y-81105565D01*
X112100000Y-81105565D01*
X112100004Y-81105565D01*
X112279249Y-81085369D01*
X112279252Y-81085368D01*
X112279255Y-81085368D01*
X112279256Y-81085367D01*
X112279259Y-81085367D01*
X112310182Y-81074546D01*
X112348760Y-81061046D01*
X112418538Y-81057484D01*
X112479165Y-81092212D01*
X112511393Y-81154205D01*
X112512935Y-81164201D01*
X112514631Y-81179251D01*
X112514631Y-81179254D01*
X112574211Y-81349523D01*
X112624662Y-81429815D01*
X112670184Y-81502262D01*
X112797738Y-81629816D01*
X112879954Y-81681476D01*
X112949809Y-81725369D01*
X112950478Y-81725789D01*
X113006995Y-81745565D01*
X113120745Y-81785368D01*
X113120750Y-81785369D01*
X113299996Y-81805565D01*
X113300000Y-81805565D01*
X113300004Y-81805565D01*
X113479249Y-81785369D01*
X113479252Y-81785368D01*
X113479255Y-81785368D01*
X113649522Y-81725789D01*
X113802262Y-81629816D01*
X113929816Y-81502262D01*
X114025789Y-81349522D01*
X114085368Y-81179255D01*
X114085368Y-81179252D01*
X114085369Y-81179249D01*
X114105565Y-81000003D01*
X114105565Y-80999996D01*
X114098805Y-80939996D01*
X116794435Y-80939996D01*
X116794435Y-80940003D01*
X116814630Y-81119249D01*
X116814631Y-81119254D01*
X116874211Y-81289523D01*
X116934765Y-81385893D01*
X116970184Y-81442262D01*
X117097738Y-81569816D01*
X117154632Y-81605565D01*
X117220551Y-81646985D01*
X117250478Y-81665789D01*
X117420745Y-81725368D01*
X117420750Y-81725369D01*
X117599996Y-81745565D01*
X117600000Y-81745565D01*
X117600004Y-81745565D01*
X117779249Y-81725369D01*
X117779252Y-81725368D01*
X117779255Y-81725368D01*
X117949522Y-81665789D01*
X118054231Y-81599996D01*
X122994435Y-81599996D01*
X122994435Y-81600003D01*
X123014630Y-81779249D01*
X123014631Y-81779254D01*
X123074211Y-81949523D01*
X123125407Y-82031000D01*
X123170184Y-82102262D01*
X123297738Y-82229816D01*
X123450478Y-82325789D01*
X123515163Y-82348423D01*
X123571939Y-82389144D01*
X123597429Y-82451581D01*
X123614630Y-82604250D01*
X123614631Y-82604254D01*
X123674211Y-82774523D01*
X123700505Y-82816369D01*
X123770184Y-82927262D01*
X123897738Y-83054816D01*
X124050478Y-83150789D01*
X124191104Y-83199996D01*
X124220745Y-83210368D01*
X124220750Y-83210369D01*
X124399996Y-83230565D01*
X124400000Y-83230565D01*
X124400004Y-83230565D01*
X124579249Y-83210369D01*
X124579252Y-83210368D01*
X124579255Y-83210368D01*
X124749522Y-83150789D01*
X124902262Y-83054816D01*
X125029816Y-82927262D01*
X125125789Y-82774522D01*
X125185368Y-82604255D01*
X125185369Y-82604249D01*
X125205565Y-82425003D01*
X125205565Y-82424996D01*
X125185369Y-82245750D01*
X125185368Y-82245745D01*
X125179794Y-82229815D01*
X125125789Y-82075478D01*
X125118699Y-82064195D01*
X125072773Y-81991104D01*
X125029816Y-81922738D01*
X124902262Y-81795184D01*
X124749524Y-81699212D01*
X124749523Y-81699211D01*
X124684834Y-81676575D01*
X124628058Y-81635853D01*
X124602570Y-81573417D01*
X124585369Y-81420750D01*
X124585368Y-81420745D01*
X124560446Y-81349522D01*
X124525789Y-81250478D01*
X124522743Y-81245631D01*
X124476540Y-81172099D01*
X124429816Y-81097738D01*
X124302262Y-80970184D01*
X124269361Y-80949511D01*
X124149523Y-80874211D01*
X123979254Y-80814631D01*
X123979249Y-80814630D01*
X123800004Y-80794435D01*
X123799996Y-80794435D01*
X123620750Y-80814630D01*
X123620745Y-80814631D01*
X123450476Y-80874211D01*
X123297737Y-80970184D01*
X123170184Y-81097737D01*
X123074211Y-81250476D01*
X123014631Y-81420745D01*
X123014630Y-81420750D01*
X122994435Y-81599996D01*
X118054231Y-81599996D01*
X118102262Y-81569816D01*
X118229816Y-81442262D01*
X118325789Y-81289522D01*
X118385368Y-81119255D01*
X118385369Y-81119249D01*
X118405565Y-80940003D01*
X118405565Y-80939996D01*
X118385369Y-80760750D01*
X118385368Y-80760745D01*
X118351789Y-80664782D01*
X118329119Y-80599996D01*
X120994435Y-80599996D01*
X120994435Y-80600003D01*
X121014630Y-80779249D01*
X121014631Y-80779254D01*
X121074211Y-80949523D01*
X121127345Y-81034084D01*
X121170184Y-81102262D01*
X121297738Y-81229816D01*
X121450478Y-81325789D01*
X121518306Y-81349523D01*
X121620745Y-81385368D01*
X121620750Y-81385369D01*
X121799996Y-81405565D01*
X121800000Y-81405565D01*
X121800004Y-81405565D01*
X121979249Y-81385369D01*
X121979252Y-81385368D01*
X121979255Y-81385368D01*
X122149522Y-81325789D01*
X122302262Y-81229816D01*
X122429816Y-81102262D01*
X122525789Y-80949522D01*
X122585368Y-80779255D01*
X122587979Y-80756081D01*
X122594298Y-80699996D01*
X128494435Y-80699996D01*
X128494435Y-80700003D01*
X128514630Y-80879249D01*
X128514631Y-80879254D01*
X128574211Y-81049523D01*
X128637045Y-81149522D01*
X128670184Y-81202262D01*
X128797738Y-81329816D01*
X128886148Y-81385368D01*
X128942450Y-81420745D01*
X128950478Y-81425789D01*
X129103258Y-81479249D01*
X129120745Y-81485368D01*
X129120750Y-81485369D01*
X129299996Y-81505565D01*
X129300000Y-81505565D01*
X129300004Y-81505565D01*
X129479249Y-81485369D01*
X129479252Y-81485368D01*
X129479255Y-81485368D01*
X129649522Y-81425789D01*
X129802262Y-81329816D01*
X129929816Y-81202262D01*
X130025789Y-81049522D01*
X130085368Y-80879255D01*
X130085369Y-80879249D01*
X130094299Y-80799996D01*
X134494435Y-80799996D01*
X134494435Y-80800003D01*
X134514630Y-80979249D01*
X134514631Y-80979254D01*
X134574211Y-81149523D01*
X134668760Y-81299996D01*
X134670184Y-81302262D01*
X134797738Y-81429816D01*
X134817546Y-81442262D01*
X134941772Y-81520319D01*
X134950478Y-81525789D01*
X135062954Y-81565146D01*
X135120745Y-81585368D01*
X135120750Y-81585369D01*
X135299996Y-81605565D01*
X135300000Y-81605565D01*
X135300004Y-81605565D01*
X135479249Y-81585369D01*
X135479252Y-81585368D01*
X135479255Y-81585368D01*
X135649522Y-81525789D01*
X135802262Y-81429816D01*
X135846185Y-81385893D01*
X142784538Y-81385893D01*
X142784538Y-81385900D01*
X142804733Y-81565146D01*
X142804734Y-81565151D01*
X142864314Y-81735420D01*
X142937410Y-81851750D01*
X142960287Y-81888159D01*
X143087841Y-82015713D01*
X143112175Y-82031003D01*
X143225582Y-82102262D01*
X143240581Y-82111686D01*
X143330840Y-82143269D01*
X143410848Y-82171265D01*
X143410853Y-82171266D01*
X143590099Y-82191462D01*
X143590103Y-82191462D01*
X143590107Y-82191462D01*
X143769352Y-82171266D01*
X143769355Y-82171265D01*
X143769358Y-82171265D01*
X143939625Y-82111686D01*
X144092365Y-82015713D01*
X144116976Y-81991101D01*
X144178295Y-81957618D01*
X144247987Y-81962602D01*
X144303921Y-82004472D01*
X144309648Y-82012811D01*
X144404182Y-82163260D01*
X144404184Y-82163262D01*
X144531738Y-82290816D01*
X144569641Y-82314632D01*
X144674505Y-82380523D01*
X144684478Y-82386789D01*
X144838258Y-82440599D01*
X144854745Y-82446368D01*
X144854750Y-82446369D01*
X145033996Y-82466565D01*
X145034000Y-82466565D01*
X145034004Y-82466565D01*
X145213249Y-82446369D01*
X145213252Y-82446368D01*
X145213255Y-82446368D01*
X145383522Y-82386789D01*
X145536262Y-82290816D01*
X145663816Y-82163262D01*
X145746924Y-82030996D01*
X146994435Y-82030996D01*
X146994435Y-82031003D01*
X147014630Y-82210249D01*
X147014631Y-82210254D01*
X147074211Y-82380523D01*
X147115585Y-82446369D01*
X147170184Y-82533262D01*
X147297738Y-82660816D01*
X147450478Y-82756789D01*
X147575771Y-82800631D01*
X147620745Y-82816368D01*
X147620750Y-82816369D01*
X147799996Y-82836565D01*
X147800000Y-82836565D01*
X147800004Y-82836565D01*
X147979249Y-82816369D01*
X147979252Y-82816368D01*
X147979255Y-82816368D01*
X148149522Y-82756789D01*
X148302262Y-82660816D01*
X148429816Y-82533262D01*
X148525789Y-82380522D01*
X148585368Y-82210255D01*
X148585369Y-82210249D01*
X148605565Y-82031003D01*
X148605565Y-82030996D01*
X148585369Y-81851750D01*
X148585368Y-81851745D01*
X148581345Y-81840249D01*
X148525789Y-81681478D01*
X148515930Y-81665788D01*
X148452696Y-81565151D01*
X148429816Y-81528738D01*
X148302262Y-81401184D01*
X148277091Y-81385368D01*
X148149523Y-81305211D01*
X147979254Y-81245631D01*
X147979249Y-81245630D01*
X147800004Y-81225435D01*
X147799996Y-81225435D01*
X147620750Y-81245630D01*
X147620745Y-81245631D01*
X147450476Y-81305211D01*
X147297737Y-81401184D01*
X147170184Y-81528737D01*
X147074211Y-81681476D01*
X147014631Y-81851745D01*
X147014630Y-81851750D01*
X146994435Y-82030996D01*
X145746924Y-82030996D01*
X145759789Y-82010522D01*
X145819368Y-81840255D01*
X145823649Y-81802262D01*
X145839565Y-81661003D01*
X145839565Y-81660996D01*
X145819369Y-81481750D01*
X145819368Y-81481745D01*
X145785828Y-81385893D01*
X145759789Y-81311478D01*
X145752574Y-81299996D01*
X145718414Y-81245630D01*
X145663816Y-81158738D01*
X145536262Y-81031184D01*
X145521646Y-81022000D01*
X145383523Y-80935211D01*
X145213254Y-80875631D01*
X145213249Y-80875630D01*
X145034004Y-80855435D01*
X145033996Y-80855435D01*
X144854750Y-80875630D01*
X144854745Y-80875631D01*
X144684476Y-80935211D01*
X144531739Y-81031183D01*
X144507127Y-81055795D01*
X144445803Y-81089279D01*
X144376111Y-81084293D01*
X144320179Y-81042421D01*
X144314453Y-81034084D01*
X144255337Y-80940003D01*
X144219919Y-80883635D01*
X144092365Y-80756081D01*
X144070100Y-80742091D01*
X143939626Y-80660108D01*
X143769357Y-80600528D01*
X143769352Y-80600527D01*
X143590107Y-80580332D01*
X143590099Y-80580332D01*
X143410853Y-80600527D01*
X143410848Y-80600528D01*
X143240579Y-80660108D01*
X143087840Y-80756081D01*
X142960287Y-80883634D01*
X142864314Y-81036373D01*
X142804734Y-81206642D01*
X142804733Y-81206647D01*
X142784538Y-81385893D01*
X135846185Y-81385893D01*
X135929816Y-81302262D01*
X136025789Y-81149522D01*
X136085368Y-80979255D01*
X136086975Y-80964993D01*
X136105565Y-80800003D01*
X136105565Y-80799996D01*
X136085369Y-80620750D01*
X136085368Y-80620745D01*
X136061508Y-80552558D01*
X136025789Y-80450478D01*
X136007106Y-80420745D01*
X135962955Y-80350478D01*
X135929816Y-80297738D01*
X135802262Y-80170184D01*
X135777508Y-80154630D01*
X135649523Y-80074211D01*
X135479254Y-80014631D01*
X135479249Y-80014630D01*
X135300004Y-79994435D01*
X135299996Y-79994435D01*
X135120750Y-80014630D01*
X135120745Y-80014631D01*
X134950476Y-80074211D01*
X134797737Y-80170184D01*
X134670184Y-80297737D01*
X134574211Y-80450476D01*
X134514631Y-80620745D01*
X134514630Y-80620750D01*
X134494435Y-80799996D01*
X130094299Y-80799996D01*
X130105565Y-80700003D01*
X130105565Y-80699996D01*
X130085369Y-80520750D01*
X130085368Y-80520745D01*
X130083228Y-80514630D01*
X130025789Y-80350478D01*
X129929816Y-80197738D01*
X129802262Y-80070184D01*
X129778286Y-80055119D01*
X129649523Y-79974211D01*
X129479254Y-79914631D01*
X129479249Y-79914630D01*
X129300004Y-79894435D01*
X129299996Y-79894435D01*
X129120750Y-79914630D01*
X129120745Y-79914631D01*
X128950476Y-79974211D01*
X128797737Y-80070184D01*
X128670184Y-80197737D01*
X128574211Y-80350476D01*
X128514631Y-80520745D01*
X128514630Y-80520750D01*
X128494435Y-80699996D01*
X122594298Y-80699996D01*
X122605565Y-80600003D01*
X122605565Y-80599996D01*
X122585369Y-80420750D01*
X122585368Y-80420745D01*
X122567676Y-80370184D01*
X122525789Y-80250478D01*
X122520312Y-80241762D01*
X122460010Y-80145792D01*
X122429816Y-80097738D01*
X122302262Y-79970184D01*
X122240108Y-79931130D01*
X122149523Y-79874211D01*
X121979254Y-79814631D01*
X121979249Y-79814630D01*
X121800004Y-79794435D01*
X121799996Y-79794435D01*
X121620750Y-79814630D01*
X121620745Y-79814631D01*
X121450476Y-79874211D01*
X121297737Y-79970184D01*
X121170184Y-80097737D01*
X121074211Y-80250476D01*
X121014631Y-80420745D01*
X121014630Y-80420750D01*
X120994435Y-80599996D01*
X118329119Y-80599996D01*
X118325789Y-80590478D01*
X118229816Y-80437738D01*
X118102262Y-80310184D01*
X118062768Y-80285368D01*
X117949523Y-80214211D01*
X117779254Y-80154631D01*
X117779249Y-80154630D01*
X117600004Y-80134435D01*
X117599996Y-80134435D01*
X117420750Y-80154630D01*
X117420745Y-80154631D01*
X117250476Y-80214211D01*
X117097737Y-80310184D01*
X116970184Y-80437737D01*
X116874211Y-80590476D01*
X116814631Y-80760745D01*
X116814630Y-80760750D01*
X116794435Y-80939996D01*
X114098805Y-80939996D01*
X114085369Y-80820750D01*
X114085368Y-80820745D01*
X114078108Y-80799996D01*
X114025789Y-80650478D01*
X114007106Y-80620745D01*
X113940431Y-80514632D01*
X113929816Y-80497738D01*
X113802262Y-80370184D01*
X113706773Y-80310184D01*
X113649523Y-80274211D01*
X113479254Y-80214631D01*
X113479249Y-80214630D01*
X113300004Y-80194435D01*
X113299996Y-80194435D01*
X113120750Y-80214630D01*
X113120742Y-80214632D01*
X113051238Y-80238953D01*
X112981460Y-80242514D01*
X112920832Y-80207785D01*
X112888605Y-80145792D01*
X112887063Y-80135793D01*
X112886910Y-80134435D01*
X112885368Y-80120745D01*
X112825789Y-79950478D01*
X112803265Y-79914632D01*
X112740431Y-79814632D01*
X112729816Y-79797738D01*
X112602262Y-79670184D01*
X112488019Y-79598400D01*
X112449523Y-79574211D01*
X112279254Y-79514631D01*
X112279249Y-79514630D01*
X112100004Y-79494435D01*
X112099996Y-79494435D01*
X111920750Y-79514630D01*
X111920745Y-79514631D01*
X111750476Y-79574211D01*
X111597737Y-79670184D01*
X111470184Y-79797737D01*
X111374210Y-79950478D01*
X111337596Y-80055119D01*
X111314632Y-80120745D01*
X111314631Y-80120747D01*
X111312333Y-80127317D01*
X111310732Y-80126756D01*
X111280884Y-80180104D01*
X111219218Y-80212953D01*
X111180230Y-80214741D01*
X111000004Y-80194435D01*
X110999996Y-80194435D01*
X110820750Y-80214630D01*
X110820745Y-80214631D01*
X110650476Y-80274211D01*
X110497737Y-80370184D01*
X110370184Y-80497737D01*
X110274211Y-80650476D01*
X110214631Y-80820745D01*
X110214630Y-80820750D01*
X110194435Y-80999996D01*
X108243116Y-80999996D01*
X108225789Y-80950478D01*
X108225188Y-80949522D01*
X108140431Y-80814632D01*
X108129816Y-80797738D01*
X108002262Y-80670184D01*
X107970897Y-80650476D01*
X107849523Y-80574211D01*
X107679254Y-80514631D01*
X107679249Y-80514630D01*
X107500004Y-80494435D01*
X107499996Y-80494435D01*
X107320750Y-80514630D01*
X107320745Y-80514631D01*
X107150476Y-80574211D01*
X106997737Y-80670184D01*
X106870184Y-80797737D01*
X106774211Y-80950476D01*
X106714631Y-81120745D01*
X106714630Y-81120750D01*
X106694435Y-81299996D01*
X100557351Y-81299996D01*
X100587429Y-81235492D01*
X100587432Y-81235486D01*
X100644636Y-81022000D01*
X99747012Y-81022000D01*
X99779925Y-80964993D01*
X99814000Y-80837826D01*
X99814000Y-80706174D01*
X99779925Y-80579007D01*
X99747012Y-80522000D01*
X100644636Y-80522000D01*
X100644635Y-80521999D01*
X100587432Y-80308513D01*
X100587429Y-80308507D01*
X100487600Y-80094422D01*
X100487599Y-80094420D01*
X100352113Y-79900926D01*
X100352108Y-79900920D01*
X100185082Y-79733894D01*
X99991578Y-79598399D01*
X99780550Y-79499996D01*
X102294435Y-79499996D01*
X102294435Y-79500003D01*
X102314630Y-79679249D01*
X102314631Y-79679254D01*
X102374211Y-79849523D01*
X102437646Y-79950478D01*
X102470184Y-80002262D01*
X102597738Y-80129816D01*
X102661983Y-80170184D01*
X102732721Y-80214632D01*
X102750478Y-80225789D01*
X102888860Y-80274211D01*
X102920745Y-80285368D01*
X102920750Y-80285369D01*
X103099996Y-80305565D01*
X103100000Y-80305565D01*
X103100004Y-80305565D01*
X103279249Y-80285369D01*
X103279252Y-80285368D01*
X103279255Y-80285368D01*
X103449522Y-80225789D01*
X103602262Y-80129816D01*
X103729816Y-80002262D01*
X103825789Y-79849522D01*
X103885368Y-79679255D01*
X103886390Y-79670184D01*
X103905565Y-79500003D01*
X103905565Y-79499996D01*
X103885369Y-79320750D01*
X103885368Y-79320745D01*
X103876193Y-79294524D01*
X142410435Y-79294524D01*
X142410435Y-79294531D01*
X142430630Y-79473777D01*
X142430631Y-79473782D01*
X142490211Y-79644051D01*
X142546662Y-79733891D01*
X142586184Y-79796790D01*
X142713738Y-79924344D01*
X142793101Y-79974211D01*
X142857428Y-80014631D01*
X142866478Y-80020317D01*
X143008990Y-80070184D01*
X143036745Y-80079896D01*
X143036750Y-80079897D01*
X143215996Y-80100093D01*
X143216000Y-80100093D01*
X143216004Y-80100093D01*
X143395249Y-80079897D01*
X143395252Y-80079896D01*
X143395255Y-80079896D01*
X143565522Y-80020317D01*
X143718262Y-79924344D01*
X143845816Y-79796790D01*
X143941789Y-79644050D01*
X144001368Y-79473783D01*
X144001369Y-79473777D01*
X144021565Y-79294531D01*
X144021565Y-79294524D01*
X144001369Y-79115278D01*
X144001368Y-79115273D01*
X143946840Y-78959441D01*
X143941789Y-78945006D01*
X143932244Y-78929816D01*
X143875048Y-78838788D01*
X143845816Y-78792266D01*
X143718262Y-78664712D01*
X143639563Y-78615262D01*
X143565523Y-78568739D01*
X143395254Y-78509159D01*
X143395249Y-78509158D01*
X143216004Y-78488963D01*
X143215996Y-78488963D01*
X143036750Y-78509158D01*
X143036745Y-78509159D01*
X142866476Y-78568739D01*
X142713737Y-78664712D01*
X142586184Y-78792265D01*
X142490211Y-78945004D01*
X142430631Y-79115273D01*
X142430630Y-79115278D01*
X142410435Y-79294524D01*
X103876193Y-79294524D01*
X103867694Y-79270237D01*
X103825789Y-79150478D01*
X103729816Y-78997738D01*
X103602262Y-78870184D01*
X103449523Y-78774211D01*
X103279254Y-78714631D01*
X103279249Y-78714630D01*
X103100004Y-78694435D01*
X103099996Y-78694435D01*
X102920750Y-78714630D01*
X102920745Y-78714631D01*
X102750476Y-78774211D01*
X102597737Y-78870184D01*
X102470184Y-78997737D01*
X102374211Y-79150476D01*
X102314631Y-79320745D01*
X102314630Y-79320750D01*
X102294435Y-79499996D01*
X99780550Y-79499996D01*
X99777492Y-79498570D01*
X99777486Y-79498567D01*
X99564000Y-79441364D01*
X99564000Y-80338988D01*
X99506993Y-80306075D01*
X99379826Y-80272000D01*
X99248174Y-80272000D01*
X99121007Y-80306075D01*
X99064000Y-80338988D01*
X99064000Y-79441364D01*
X99063999Y-79441364D01*
X98850513Y-79498567D01*
X98850507Y-79498570D01*
X98636422Y-79598399D01*
X98636420Y-79598400D01*
X98442926Y-79733886D01*
X98442920Y-79733891D01*
X98275891Y-79900920D01*
X98275890Y-79900922D01*
X98226075Y-79972065D01*
X98171498Y-80015690D01*
X98101999Y-80022882D01*
X98039645Y-79991360D01*
X98004231Y-79931130D01*
X98000500Y-79900941D01*
X98000500Y-75629420D01*
X98020185Y-75562381D01*
X98072989Y-75516626D01*
X98142147Y-75506682D01*
X98205703Y-75535707D01*
X98242154Y-75592427D01*
X98242643Y-75592262D01*
X98243308Y-75594222D01*
X98243477Y-75594485D01*
X98243856Y-75595838D01*
X98243945Y-75596098D01*
X98336773Y-75820205D01*
X98336777Y-75820214D01*
X98356982Y-75855209D01*
X98458064Y-76030289D01*
X98458066Y-76030292D01*
X98458067Y-76030293D01*
X98605733Y-76222736D01*
X98605739Y-76222743D01*
X98777256Y-76394260D01*
X98777263Y-76394266D01*
X98803805Y-76414632D01*
X98969711Y-76541936D01*
X99179788Y-76663224D01*
X99403900Y-76756054D01*
X99638211Y-76818838D01*
X99818586Y-76842584D01*
X99878711Y-76850500D01*
X99878712Y-76850500D01*
X100121289Y-76850500D01*
X100169388Y-76844167D01*
X100361789Y-76818838D01*
X100596100Y-76756054D01*
X100820212Y-76663224D01*
X101030289Y-76541936D01*
X101222738Y-76394265D01*
X101394265Y-76222738D01*
X101541936Y-76030289D01*
X101663224Y-75820212D01*
X101756054Y-75596100D01*
X101808600Y-75399996D01*
X124894435Y-75399996D01*
X124894435Y-75400003D01*
X124914630Y-75579249D01*
X124914631Y-75579254D01*
X124974211Y-75749523D01*
X125040620Y-75855211D01*
X125070184Y-75902262D01*
X125197738Y-76029816D01*
X125350478Y-76125789D01*
X125476677Y-76169948D01*
X125520745Y-76185368D01*
X125520750Y-76185369D01*
X125699996Y-76205565D01*
X125700000Y-76205565D01*
X125700004Y-76205565D01*
X125879249Y-76185369D01*
X125879252Y-76185368D01*
X125879255Y-76185368D01*
X126049522Y-76125789D01*
X126202262Y-76029816D01*
X126329816Y-75902262D01*
X126425789Y-75749522D01*
X126485368Y-75579255D01*
X126485369Y-75579249D01*
X126505565Y-75400003D01*
X126505565Y-75399996D01*
X126485369Y-75220750D01*
X126485368Y-75220745D01*
X126467676Y-75170184D01*
X126425789Y-75050478D01*
X126425788Y-75050476D01*
X126395058Y-75001569D01*
X126376058Y-74934332D01*
X126396426Y-74867497D01*
X126434079Y-74830604D01*
X126486262Y-74797816D01*
X126613816Y-74670262D01*
X126709789Y-74517522D01*
X126769368Y-74347255D01*
X126769369Y-74347249D01*
X126789565Y-74168003D01*
X126789565Y-74167996D01*
X126769369Y-73988750D01*
X126769368Y-73988745D01*
X126737523Y-73897737D01*
X126709789Y-73818478D01*
X126683887Y-73777256D01*
X126613815Y-73665737D01*
X126486262Y-73538184D01*
X126333523Y-73442211D01*
X126163254Y-73382631D01*
X126163249Y-73382630D01*
X125984004Y-73362435D01*
X125983996Y-73362435D01*
X125804750Y-73382630D01*
X125804745Y-73382631D01*
X125634476Y-73442211D01*
X125481737Y-73538184D01*
X125354184Y-73665737D01*
X125258211Y-73818476D01*
X125198631Y-73988745D01*
X125198630Y-73988750D01*
X125178435Y-74167996D01*
X125178435Y-74168003D01*
X125198630Y-74347249D01*
X125198631Y-74347254D01*
X125258212Y-74517525D01*
X125288941Y-74566431D01*
X125307941Y-74633668D01*
X125287573Y-74700503D01*
X125249920Y-74737395D01*
X125197740Y-74770182D01*
X125197737Y-74770184D01*
X125070184Y-74897737D01*
X124974211Y-75050476D01*
X124914631Y-75220745D01*
X124914630Y-75220750D01*
X124894435Y-75399996D01*
X101808600Y-75399996D01*
X101818838Y-75361789D01*
X101850500Y-75121288D01*
X101850500Y-74878712D01*
X101818838Y-74638211D01*
X101756054Y-74403900D01*
X101754437Y-74399996D01*
X115994435Y-74399996D01*
X115994435Y-74400003D01*
X116014630Y-74579249D01*
X116014631Y-74579254D01*
X116074211Y-74749523D01*
X116161620Y-74888633D01*
X116170184Y-74902262D01*
X116297738Y-75029816D01*
X116368389Y-75074209D01*
X116443314Y-75121288D01*
X116450478Y-75125789D01*
X116620745Y-75185368D01*
X116620750Y-75185369D01*
X116799996Y-75205565D01*
X116800000Y-75205565D01*
X116800004Y-75205565D01*
X116979249Y-75185369D01*
X116979252Y-75185368D01*
X116979255Y-75185368D01*
X117149522Y-75125789D01*
X117302262Y-75029816D01*
X117429816Y-74902262D01*
X117525789Y-74749522D01*
X117585368Y-74579255D01*
X117590872Y-74530408D01*
X117605565Y-74400003D01*
X117605565Y-74399996D01*
X117585369Y-74220750D01*
X117585368Y-74220745D01*
X117571039Y-74179794D01*
X117525789Y-74050478D01*
X117429816Y-73897738D01*
X117302262Y-73770184D01*
X117149523Y-73674211D01*
X116979254Y-73614631D01*
X116979249Y-73614630D01*
X116800004Y-73594435D01*
X116799996Y-73594435D01*
X116620750Y-73614630D01*
X116620745Y-73614631D01*
X116450476Y-73674211D01*
X116297737Y-73770184D01*
X116170184Y-73897737D01*
X116074211Y-74050476D01*
X116014631Y-74220745D01*
X116014630Y-74220750D01*
X115994435Y-74399996D01*
X101754437Y-74399996D01*
X101663224Y-74179788D01*
X101541936Y-73969711D01*
X101451216Y-73851482D01*
X101394266Y-73777263D01*
X101394260Y-73777256D01*
X101222743Y-73605739D01*
X101222736Y-73605733D01*
X101030293Y-73458067D01*
X101030292Y-73458066D01*
X101030289Y-73458064D01*
X100858661Y-73358974D01*
X100820214Y-73336777D01*
X100820205Y-73336773D01*
X100596098Y-73243945D01*
X100592262Y-73242643D01*
X100592671Y-73241435D01*
X100537670Y-73207914D01*
X100507138Y-73145068D01*
X100515430Y-73075692D01*
X100559913Y-73021812D01*
X100626464Y-73000535D01*
X100629420Y-73000500D01*
X121660138Y-73000500D01*
X121727177Y-73020185D01*
G37*
%TD.AperFunction*%
%TD*%
M02*
